<?xml version="1.0" encoding="UTF-8"?>
<svg id="Layer_2" data-name="Layer 2" xmlns="http://www.w3.org/2000/svg" viewBox="0 0 891.33 339.39">
  <defs>
    <style>
      .cls-1 {
        fill: #09104f;
      }
    </style>
  </defs>
  <g id="Layer_2-2" data-name="Layer 2">
    <g id="Layer_1-2" data-name="Layer 1-2">
      <g>
        <g>
          <path class="cls-1" d="M18.64,176.71h68.59c10.27,0,18.62,8.34,18.62,18.62h0c0,10.28-8.35,18.62-18.62,18.62H18.64C8.36,213.95.02,205.61.02,195.33H.02c0-10.28,8.34-18.62,18.62-18.62Z"/>
          <path class="cls-1" d="M2.5,186.09L97.7,21.2c5.14-8.91,16.53-11.96,25.44-6.82h0c8.91,5.14,11.96,16.53,6.81,25.44L34.75,204.71c-5.14,8.91-16.53,11.96-25.44,6.82h0c-8.91-5.14-11.96-16.53-6.81-25.44Z"/>
          <path class="cls-1" d="M161.41-.89h0c10.28,0,18.62,8.34,18.62,18.62v190.41c0,10.28-8.34,18.62-18.62,18.62h0c-10.28,0-18.62-8.34-18.62-18.62V17.73c0-10.28,8.34-18.62,18.62-18.62Z" transform="translate(-34.84 95.83) rotate(-30)"/>
        </g>
        <g>
          <path class="cls-1" d="M278.09,65.62h0c10.28,0,18.62,8.34,18.62,18.62v111.14c0,10.29-8.34,18.62-18.62,18.62h0c-10.28,0-18.62-8.34-18.62-18.62v-111.14c0-10.29,8.34-18.62,18.62-18.62Z"/>
          <path class="cls-1" d="M278.36,50.99c-1.06-6.94-3.83-13.01-8.81-17.68-4.58-4.39-10.15-6.58-16.7-7.72,13.78-1.56,23.88-11.81,25.51-25.59,1.66,13.71,11.34,23.59,25,25.61-6.22,1.24-11.83,3.43-16.32,7.83-4.96,4.69-7.68,10.83-8.66,17.55h0Z"/>
        </g>
        <rect class="cls-1" x="322.21" y="189.77" width="24.24" height="24.24" rx="5.68" ry="5.68"/>
        <g>
          <path class="cls-1" d="M458.4,155.21h-68.14v56.76h-17.54v-46.19c0-10.57,1.48-18,12.19-17.81h1.29l-.19-1.85h-1.11c-10.71,0-12.19-7.24-12.19-17.81v-28.57c0-10.57,7.02-17.62,17.36-17.62h79.03v16.32h-78.85v40.44h68.14v16.32h0Z"/>
          <path class="cls-1" d="M557.74,155.21h-68.14v40.44h78.85v16.32h-79.03c-10.34,0-17.36-7.05-17.36-17.62v-28.57c0-10.57,1.48-18,12.19-17.81h1.29l-.19-1.85h-1.11c-10.71,0-12.19-7.24-12.19-17.81v-28.57c0-10.57,7.02-17.62,17.36-17.62h79.03v16.32h-78.85v40.44h68.14v16.32h0Z"/>
          <path class="cls-1" d="M625.87,80.26c18.84,0,30.65,2.04,44.5,7.24v17.62c-9.05-3.16-20.31-8.9-43.76-8.9-26.22,0-38.41,7.42-38.41,21.7,0,35.25,87.71,4.64,87.71,57.69,0,25.6-20.13,38.4-55.03,38.4-19.02,0-30.84-2.04-44.5-7.24v-17.62c9.05,3.16,20.31,8.91,43.76,8.91,26.22,0,38.41-7.42,38.41-21.52,0-35.25-87.71-5.01-87.71-57.88,0-25.6,20.13-38.4,55.03-38.4h0Z"/>
          <path class="cls-1" d="M740.72,98.25v113.71h-17.36v-113.71h-47.64v-16.14h112.64v16.14h-47.64,0Z"/>
        </g>
        <g>
          <path class="cls-1" d="M743.54,311.41c.18-.63.54-1.11.06-2.67-.87,1.41-2.81.47-3.2,2.33-.59-.5-2.2-.71-1.95,1-.39,1.42-2.28,1.79-3.22.69l-4.93-4.05c-1.61-1.91-4.17-.6-6.1.65-2.05-.97-3.94-2.08-6.13-1-1.29.6-2.56.33-3.7-.18-2.41-.91-4.58-.37-7.33.48-2.64-2.05-5.85-2.19-8.79-.67-2.29.16-4.12-.16-6.22-1.51-1.08.41-2.22-.35-3.19.33-1.93.77-3.55-.32-5.69-.21-1.55,1.09-.46,2.17,1.13,1.72l7.61,1.09c2.9-.37,5.62-.89,8.58.13,1.93.68,3.66-.99,5.51.02,4.27.86,8.18.12,11.79,1.43-1.55,1.82-3.15.54-4.71,1.17-.64,1.07-1.17,1.39-1.72,1.48-.49,0-1.01-.24-1.79-1.15-.97.91-2.28,1.59-3.64.5-.66-.89-1.88-1.73-2.47-.15-1.02,1.7-2.74.86-4.24.63-3.73.3-6.96.31-10.48-.38-.7-1.05-1.71-1.66-2.74-.26-4.21.6-7.8.57-11.67-1.22-.49-1.53.42-3.18,1.92-4.85-.35-1.38-.91-1.79-1.74-.89-.26-.02-1.03.24-.69,2.18-1.22.61-3.04.52-3.42,2.63.3,1.26-.34,1.44-.88,1.12-.8.09-1.53-.28-1.33-1.15-.44-2.4.31-2.52,2.35-1.87-.55-2.39-1.91-2.33-3.43-1.81-1.89.61-1.84-.41-2.4-2.41-1.31,1.04-.66,2.76-1.04,4.54-.43,2.28-1.56,3.26-3.57,3.34-2.44-.17-4.69-.68-7.1-.47-.39-1.55-1.24-1.76-1.81-1.38-.91.41-.45,1.13-.47,2.28-3.23-1-5.72-1.75-8.81-1-1.88.55-3.53.24-5.16.48-2.17-.92-4.32-.82-6.66-.11-1.22-1.18-2.21.26-3.32-.47l-8.67-.21c-4.14.56-7.88.32-11.88.06-2.64.78-5.03.13-7.51-.48-4.15.85-7.93,1.28-12.02.86l-15.17.29c-1.45-.55-2.76-1.24-4.16-.47-2.25.35-4.29.29-6.66-.07-1.88.47-3.27,1.03-4.63,1-.25-1.94-1.6-2.43-3.31-2.11-.7-.21-2.03.29-3.01,1.87-2.29.19-4.28.51-6.54,1.21-1.79-.64-3.39-.73-5.3-.23-1.67-.71-3.09-.64-4.53.02-3.16.64-6.18.55-9.61-.38-1.46.82-2.9.78-3.57-.69-.6-1.19-1.79-1.53-3-.8-2.43.37-4.72.27-7.04-.04-4.09.84-7.66,1.66-11.85,1.97-.6,1.22-2.03,1.98-3.88,1.92-2.6.54-4.97,1.22-7.59.61-2.61.07-4.95-.34-7.38,0-2.22.51-4.32.1-6.71.2-2.31-.65-4.24.8-6.51.51l-6.46.76c-2.6,0-3.96-1.36-4.81-3.41-1.04,1.75-.85,3.07-2.32,3.63-.24.49-2.64,1-2.74-.43-.17-2.02-1.42-.59-1.71,1.02l-11.65,1.11-9.53,1.08c-2.47-.21-4.62.19-6.77.86-2.51.68-4.28-.2-6.15-3.56-1.69,1.57-3.32,2.44-5.43,1.56-1.9,1-3.55.82-5.34.42-1.79.87-3.12,1.35-4.29,2.75-.9,1.06-2.23.64-3.49.64-2.63,1.34-5,1.79-7.78,1.06-1.03.09-1.88-.05-2.53,1.02-3.81-.03-7.55.34-11.43-.12-.66-1.79-1.67-2.24-2.77-.55-1.08-.78-2.48-1.22-3.97-.13-1.54.22-4.27-.33-4.1,2.42-.86,2.94-2.6.77-1.47-1.86-1.99-.53-2.26.53-1.66,2.19l-9.18,1.57-9.99.77c-1.38-.6-2.23.42-3.22.73-3.11.17-6-.11-8.88.86l-4.37.99c-1.68.38-3.33.79-4.95.78-.68-3.02-3.12-1.95-1.75.81-1.73,1.57-2.71,0-1.61-1.95.2-2.52-2.54-3.05-2.37.78-2.8-.04-5.56.53-8.62,1.26l-7.7,1c-1.45-.5-2.19-.29-2.86,1.17-2.99-1.62-5.84-.97-9.08-.24-3.16.41-6.07.47-9.08,1.29-3.47.38-6.97.17-10.63,1.57-3.39,1.13-6.86,1.16-9.12-1.53-1.53-4-1.2-7.99-.33-12.24,7.47-2.07,14.65-3.43,22.51-2.83,2.64-.75,5.36-2,8.24-1.42.71-1.02,1.6-.39,2.73-1.43,1.22.78,2.19,1.73,2.26-.54,2.77-.42,4.85.06,7.61.14,1.66.75,3.24.49,4.2-1.12l9.88.04c1.8,1.35,3.46.2,5.52.91,1.31-.3,2.5-1.23,4.16-.8.18-2.05,1.03-2.45,2.26-2.14,1.63.89,2.67-.74,4.36-.79,3.46-1.55,6.52-2.14,9.95-.59,1.33-1.24,2.68-1.16,4.39-1.01,1.99,1.04,3.51-.48,5.48-.14l6.5-2.81,6.64-.05c2.16-1.08,4.23-1.13,6.49-.43,1.57.47,2.8-.08,4.4-.34,2.06-1.08,3.87-1.13,5.14,1.1.82-1.16.9-1.93,1.72-1.98,1.52-.7,1.64.04,2.08,1.81,3.77-2.55,8.04-3.05,12.86-2.99,1.48.34,2.71.22,4.34.33,1.36-.45,2.59-1.15,4.36-.51.75-.51,1.21-.98,1.65-1.11.95-.27,1.58.35,2.53,1.49l3.59-2.66c.86.45,1.32.82,1.76,1.75.55.32,1.26-.74,2.24-1.36l10.69,1.27c1.03-1.1,2.05-1.62,3.49-2.7,3.03.54,5.5,1.35,8.3,1.08,2.92-2.33,6.28-3.04,9.63-.51l2.82-2.42c1.77-.68,2.81-.02,3.71,1.89,1.55-2.15,4.51-1.76,6.18.33l2.98.15c.78-1.7,1.82-2.95,3.44-2.46,1.94.16,3.11.45,3.86,2.09.72-1.48.48-2.4.86-2.42,1-.92,1.83-.7,2.96.15,1.88-1.27,3.72-1.04,5.03-.14,2.13-.67,3.51,1.3,5.08.33,1.75-1.78,3.92-1.65,6.27-1.15,1.65-1.42,3.42-.77,5.51-1.47,1.83.07,3.43,1.13,5.36-.29.79.53,1.17.91,1.52,1.07.45-.03.86-.42,1.63-.86,2.4.68,4.5.91,6.67-.76,2.75.58,4.95.52,7.45.3,1.96.92,3.61.05,5.45-.64,4.2.86,7.95-.47,11.98-1.04,3.79.16,7.15-1.44,10.95-.66,2.97-1.39,5.87-1.01,8.84-1.46l10.38-1.08c.38,1.97,1.22,2.1,1.64.45.93-1.26,2.24-.77,3.39-1.59,1.8.54,3.39-.31,5.12-.89,1.87.34,3.34.33,4.86-.62,1.75-.24,3.7.63,5.38-.78,3.4-1.1,6.86-.85,10.32-1.08,1.53-.36,3.07-.42,4.69-1.35,4.43-.5,8.45-.72,12.36-2.27l10.81-.89c1.75-.59,3.56-.29,5.32-1.47l17.06-3.04c5.26-1.71,10.42-2.63,15.89-3.49,3.52,0,6.42-1.93,10.03-2.49,2.59-.09,4.71-.66,6.73-1.61,2.9-.21,5.56-.97,8.5-2.15,1.72.55,3.02.11,4.29-1.29,1.85.16,2.77-.67,4.09-1.13.65-.49.73-1.56.69-2.24-.21-.68-.93-1.15-2.09-1.4-2.54.55-4.41-.13-6.36-2.11-1.21,1.44-2.19,1.85-3.44,1.05-3.93.7-7.67,0-11.72-.59-3.17-.2-5.87-.54-9.02-1.37-1.22.84-3.13,1.75-4.99.25-2-.16-3.06-1.06-3.93-3.08-2.51,1.93-4.31,2.06-7.05,1.27-.71.06-.89-1.13-1.26-1.28-.78-.39-2.19-.26-1.1,1.75-1.65,1.97-4.43,1.94-7.25,1.94-3.79.32-7.24.23-10.7-1.64-3.33,1.44-6.41,1.27-9.85,1.04-1.58-.2-2.82-.28-4.44.72-1.25-1.44-2.5-2.1-3.76-1.33-1.26,1.38-2.96,1.06-4.74.55-2.37.86-4.2-.34-6.44-.58-1.22.94-2.15.72-2.77.11-.94-.39-.47-1.1-.59-2.77-1.48,1.39-2.99,1.71-4.36,3.3-3.34.92-6.93.36-10.52.61-3.3.37-6.49-.02-9.73-.02-.73-1.4-1.63-.33-2.32.34-4.32.67-8.54.46-13.16-.18-2.15,1.04-4.27.6-6.58.55-1.95.47-3.56.48-5.43-.06-1.84.33-3.47,1.34-5.43.37-3.66.86-7.09.97-10.73-.18-1.22.18-2.07-.13-3.37.25-1.64-2.3-3.99-1.57-5.32.43-4.13.61-7.85.86-11.74.64-1.29.04-2.69.76-3.92-.58-2.37.31-4.78,1.68-7.36,1.08-2.38-.53-4.63-.61-6.57-.45-2.13,1.62-4.63,1.2-7.41,1.16-1.14.64-2.08.79-3.28.27-2.25.56-4.23.6-6.49-.05-4.76,1.43-9.31,1.47-14.15,1.31-3.78.67-7.25.44-10.73-.55l-3.2,1.54c-1.22.75-2.28.47-3.43-.91-1.94,1.5-3.84,2.01-5.47,1.14.2-1.86-.91-1.84-1.38.24-2.99-.81-6.17-.58-9.44.71-.94-1.02-1.92-1.14-2.06-2.7-.92-1.22-1.28.24-1.22,2.55-1.71-.42-3.51-.16-5.43.84-2.33.36-4.27.96-6.62.48-1.91-1.37-3.89-1.27-5.35.28-3.56.55-6.52-.59-9.69-1.17-1.93.07-3.28.62-4.22,2.46-1.75-.79-2.41.48-3.58.29-2.1.07-3.46,1.64-5.51,2.26-3.36-.8-6.34-.93-9.5-.58-1.01-.87-2.4-.71-3.14-.49-.25-2.81-1.83-2.37-.65.07-3.08,1.44-6.54,1.16-10.76.38-2.33-2.19-2.98-5.72-1.66-9.06-.34-2.91,1.15-5.05,3.96-5.14,2.63.11,4.98-.14,7.59-.66,1.73-.1,2.77.68,3.74,1.86.75,1.61,2.1,1.33,3.56,1.32,2.41,1.48,3.48-1.06,5.6-1.58,2.34-1.89,4.64-3.62,7.73-2.56l7.67-.81c1.72.68,3.22.68,4.59-.25,7.81-.93,15.49-1.29,23.63-1.15,3.12-.82,6.09-.88,9.08-1.3l10.97-.39c2.72-.29,5.6,1.13,8.44-.41,2.93-1.08,5.83-.12,8.85-.73,2.67,0,5.3.97,8.35-.2,1.13.18,2.07.03,3.33.55,3.51-1.53,6.98-2.05,10.86-1.35,2.26-.76,4.21.07,6.05-.03,4.23-1.6,8.46-.83,12.68-1.79,1.77-.51,3.45-.05,5.22-.27,1.4.84,2.9.51,4.26-.65,3.28.51,6.05.9,8.97.1,1.62-.64,3.33-.61,5.19.07,1.31.16,2.72.43,3.67-.95l9.32.36c1.93.58,3.61-.16,5.42-.78,2.38.7,4.36,0,6.5-.42,2.37,0,4.29.13,6.31-.16l12.85-.12c1.89-.94,3.76-.73,5.86-.32,3.74-.16,7.1-.2,10.94.58,1.82-.63,3.43-1.13,5.33-.67,4.76-1.29,9.27-.48,14.05.22l8.75-1.12c2.72,1.79,5.66,1.79,8.53.51,3.29.27,6.15.86,9.09.03l6.1.23c4.82-.14,9.25.29,14.02.76,3.16-.04,6.07.76,9.02-.12,1.48-.81,2.77.71,4.48.85,1.77-1.19,3.79-1.16,5.25.26l12.64,1.01c1.57-.9,3.3-1.27,4.63.2l11.42.7c5.91.35,11.4,1.36,17.06,3.01,2.26-.74,3.68.77,4.26,2.99,1,1.15.95,2.31.8,3.48,1.46.71,1.96,1.65,2.15,2.04.57,1.81-.46,2.75-1.56,3.39,1.76,2.68-.44,3.43-1,5.36-1.61,1.93-3.3,3.49-5.12,5.09-4.63.61-8.79,1.66-13.19,3.49-2.15.03-4.26-.38-5.82,1.48-1.96.08-3.94.82-6.14.6-1.13-.88-2.1-.6-3.34-1.09-.95.94-2.31,2.69-3.1,1.02-1.04-1.71-1.41.02-.91,1.24-1.64,1.94-3.54,2.33-6.07,2.77-3.35-.38-6.74-.78-9.71,1.73-3.32,1.22-6.55.79-9.9.75-3.24,1.27-6.39,1.72-9.85,2.02-2.15-1.17-4.14-1.13-6.29-.61-.1,2.04-1.27,2.82-2.77,3.75-1.13.54-1.57,1.27-1.13,2.37.2.32.88.67,1.87.73.08,1.53.75,2.47,1.81,2.46,1.11.14,2.01-.61,2.32-1.79l3.77,1.4c2.25-2.73,4.89-2.59,7.42-1.12,2.23.16,3.92.07,5.47.55-1.52,1.47-1.18,2.23.2,1.54.92-1.96,2.45-2.02,4-1.11,2.11-.72,3.57-.46,5.95.42,1.99-2.5,4.52-2.77,7.55-2l4.85,4.07c1.55-.86,2.84-1.32,4.45-.02,1.73-1.26,3.41-1.4,5.28-.48,2.01.32,3.6.2,5.33-.51,2.59,1.75,5.36,1.85,7.82.2l5,.55c1.39,1.06,3.08.99,4.54-.41,1.71.4,2.77,1.36,4.28,1.05,1.94.1,3.21-.6,4.23-1.8,1.83.33,2.69.37,3.34,1.77,1.6-.54,2.23.7,2.99,1.13,1.91-1.66,3.02-.51,4.71-.35.72-1.34,1.04-1.82,1.66-1.53.55.17.86.76,1.43,1.61,2.84-.16,5,.27,7.3,1.4,1.03-1.14,2.06-2.34,3.23-1.6,3.1,1.79,6.34,2.23,9.98,1.85,1.98,1.64,4.36,1.7,6.56.48,2.24-.41,4.36-.71,6.31.91,2.05-.29,3.74-.44,5.35.49,4.14,1.51,8.42,1.58,12.98,1.26l13.88,1.46,15.1,1.93c4.14-.2,7.86.17,11.54,1.27,1.7-1.66,3.42-.95,4.94.29,1.67.62,3.02,1.41,4.78,1.55.32-2,1.13-2.9,1.44-1.33-.6,2.65.69,3.35,1.22.32,2.72.92,5.29,1.19,8.34,1.36,3.01.06,5.69.47,8.5,1.48,2.19-.64,4.13-.69,5.72.76,2.29.56,4.59.51,7.05.76,1.11-1.44,2.2-.19,3.42.49,1.85-.66,3.09,0,4.15,1.27,2.02.07,3.64-.46,5.5.77-1.57.97-3.49.6-5.6-.17-2.08-.64-4.01.11-5.75.38-.69.91-1.7.29-2.81.16-1.38.1-2.92.34-1.9,1.93-3.09.34-6.47.27-10.16-1.1l-20.31-2.16c-1.61.92-2.9.05-4.25-.39-1.73.96-2.77.32-4.67.13-.46,1.11.22,1.79,1.53,1.35,1.31.77.53,1.48-1.06,1.46-.61-2.22-1.85-2.42-3.75-1.53-.97-1.36-2.18-2.26-4.01-2.04-2.67-.27-5.21-.74-7.23.54-.71,1.31-1.31-.32-2.52-.76-.86-.98-1.66-2.28-2.17-3.37.59-1.51-.64-1.53-.99-.09-1.4,1.68-3.35,1.41-5.21.55-1.57-.27-2.95.38-4.23-.78-2.39.46-5.01.73-7.63-.84-1.55-.22-2.27,0-2.66,1.66-2.16.24-3.7-1.37-5.85-1.78-1.71.18-2.9-1-4.49.2-1.63-.72-3.07-1.72-4.62-.69-2.5.18-4.78-.82-7.23-1.05.56-1.9.22-2.97-1.31-2.96-.71-.26-1.63.43-2.09,2.3-2.7.48-4.88.98-7.42-.15-2.87.39-5.63.5-8.24-.6-1.22.73-2.1.29-3.86-.11-.76.87-.73,1.97-2.11,2.1l-.02-.07ZM663.59,284.98c-2.77-.37-3.2,1-.69,1.35,1.26-.04,1.79-.63.69-1.35ZM635.51,297.53c.44-2.27.58-3.7-.47-3.82-.78-.38-1.57-.5-2.66-.38-1.59-.26-2.64.48-2.81,1.48-.1,1.26.81,2.28,2.14,2.54.97.92,2.45,1.75,3.8.19h0ZM637.87,294.19c.02-.38-.24-.72-.61-.74-.36-.02-.68.27-.7.65s.24.72.61.74.68-.27.7-.65ZM628.96,296.97c-2.46-1.04-4.67-1.28-6.67-.34,2.46,1.04,4.67,1.28,6.67.34ZM806.46,311.57c-2.5-1.17-3.7-1.39-4.41-.1,1.9.61,3.22.92,4.41.1ZM787.01,311.31c.02-.32-.2-.59-.5-.6-.29-.02-.55.22-.58.53-.02.32.2.59.5.6s.55-.22.58-.53ZM835.47,314.7c-2.5-1.17-3.7-1.39-4.41-.1,1.9.61,3.22.92,4.41.1ZM863.4,317.77c-2.5-1.17-3.7-1.39-4.41-.1,1.9.61,3.22.92,4.41.1ZM611.01,307.12c-2.14-1.23-3.93-1.03-5.03-3.16-1.71.78-2.95-.3-3.57,1.25-.2.25-1.13.65-.36,1.99,3.21-.11,5.58,1.18,8.95-.08ZM612.08,305.03c.02-.32-.2-.59-.5-.6-.29-.02-.55.22-.58.53s.2.59.5.6c.29.02.55-.22.58-.53ZM628.46,307.96c1.11-.91,1.75-1.22,2-2.05-1.88-.37-3.45-1.09-4.77.49-3.25.49-6.35-1.22-9.5.14,4.11,1.44,7.82.64,12.27,1.42h0ZM563.67,308.23c2.46-.24,4.08-.55,5.99-.24,2.61.49,4.97.54,7.58-.17,3.49.2,6.68.47,9.91.17,2.16-.76,4.24-.64,6.55-.38,1.57.4,3.02-.57,4.39-1.59l-10.92-1.12c-2.78-.15-5.17.26-7.6,1.89-3.74-1.27-7.08-1.95-10.96-1.28-1.75,1.91-3.99,2.28-5.83.21-.77,1.15-2.14,1.09-3.86.84-2.63-.55-4.71-.03-6.71,1.48,2.48.82,4.26.63,6.27.64,1.22-1.69,2.97-.82,5.2-.46h0ZM546.88,308.65c-2.5-1.17-3.7-1.39-4.41-.1,1.9.61,3.22.92,4.41.1ZM487.15,311.42c-2.5-1.17-3.7-1.39-4.41-.1,1.9.61,3.22.92,4.41.1Z"/>
          <path class="cls-1" d="M743.54,311.41c-.05,1.2,2.06,1.66.33,2.02-2.1.07-3.3,1.31-4.63-.15.5-1.22,1.07-1.59,1.17-2.22,1.3-.58,2.11.82,3.14.33h0Z"/>
          <path class="cls-1" d="M781.21,315.27c-1.59,1.31-3.11.2-4.21,2.03-1.84-.66-2.75-1.33-4.36-2.54,2.81-.52,5.39-.3,8.57.51h0Z"/>
          <rect class="cls-1" x="796.13" y="311.45" width="1.14" height="10.26" transform="translate(426.2635 1089.7096) rotate(-86.07)"/>
          <path class="cls-1" d="M767.39,314.49c-1.6.96-3.48.76-5.56-.25,1.6-.96,3.48-.76,5.56.25Z"/>
          <path class="cls-1" d="M754.26,312.62c1.2-1.31,2.08-.64,2.34.04.24.67-.04,1.39-.66,1.67-.66.33-1.66.13-1.68-1.71h0Z"/>
          <path class="cls-1" d="M890.73,318.91c1.09.72.56,1.31-.69,1.35-2.5-.35-2.08-1.71.69-1.35Z"/>
        </g>
        <g>
          <path class="cls-1" d="M798.48,180.36h-19.38c.16-1.3.46-2.48.9-3.54s.92-1.96,1.45-2.68,1.26-1.46,2.17-2.19,1.77-1.34,2.57-1.83c.8-.49,1.83-1.11,3.1-1.85.53-.29.93-.51,1.19-.68,2.28-1.33,3.82-2.37,4.62-3.14,1.27-1.25,1.91-2.64,1.91-4.18,0-1.27-.4-2.28-1.19-3.04-.8-.76-1.88-1.13-3.26-1.13-1.75,0-3.11.56-4.08,1.69s-1.54,2.59-1.73,4.4h-4.3c.29-3.03,1.33-5.43,3.1-7.22,1.78-1.79,4.2-2.68,7.28-2.68,2.68,0,4.81.69,6.4,2.09,1.59,1.4,2.39,3.26,2.39,5.59,0,1.86-.53,3.53-1.59,5.03s-2.73,2.94-5.01,4.32c-.51.32-1.22.75-2.15,1.3-.93.55-1.58.93-1.97,1.15s-.91.55-1.55.95-1.13.73-1.44.98-.66.53-1.08.87c-.41.34-.75.68-1.01,1s-.51.66-.76,1.04c.74-.05,2.01-.08,3.82-.08l10.46-.04-.87,3.9h0Z"/>
          <path class="cls-1" d="M822.66,166.17c-.21,1.38-.53,2.77-.95,4.18-.42,1.4-.99,2.74-1.69,4s-1.5,2.39-2.39,3.38-1.97,1.78-3.22,2.35-2.62.86-4.08.86c-2.84,0-4.94-.95-6.31-2.86s-2.05-4.34-2.05-7.28c0-1.54.15-3.12.44-4.76s.78-3.27,1.45-4.91c.68-1.65,1.48-3.11,2.42-4.4.94-1.29,2.13-2.33,3.56-3.14,1.44-.81,2.99-1.22,4.69-1.22,2.86,0,4.98.89,6.36,2.67,1.38,1.78,2.07,4.16,2.07,7.16,0,1.27-.11,2.6-.32,3.98h0ZM810.62,157.82c-1.1,1.17-1.93,2.61-2.49,4.34-.55,1.72-.97,3.39-1.26,4.99-.28,1.61-.42,3.03-.42,4.27,0,3.84,1.42,5.77,4.26,5.77,1.38,0,2.6-.59,3.68-1.77s1.89-2.64,2.45-4.4.97-3.43,1.26-5.03c.28-1.61.42-3.02.42-4.23,0-3.79-1.38-5.69-4.14-5.69-1.4,0-2.66.59-3.76,1.75h0Z"/>
          <path class="cls-1" d="M798.48,212.19h-19.38c.16-1.3.46-2.48.9-3.54.44-1.06.92-1.96,1.45-2.68s1.26-1.46,2.17-2.19,1.77-1.34,2.57-1.83c.8-.49,1.83-1.11,3.1-1.85.53-.29.93-.51,1.19-.68,2.28-1.33,3.82-2.37,4.62-3.14,1.27-1.25,1.91-2.64,1.91-4.18,0-1.27-.4-2.28-1.19-3.04-.8-.76-1.88-1.13-3.26-1.13-1.75,0-3.11.56-4.08,1.69s-1.54,2.59-1.73,4.4h-4.3c.29-3.03,1.33-5.43,3.1-7.22,1.78-1.79,4.2-2.68,7.28-2.68,2.68,0,4.81.69,6.4,2.09,1.59,1.4,2.39,3.26,2.39,5.59,0,1.86-.53,3.53-1.59,5.03s-2.73,2.94-5.01,4.32c-.51.32-1.22.75-2.15,1.29-.93.55-1.58.93-1.97,1.15s-.91.55-1.55.95c-.65.41-1.13.73-1.44.98s-.66.53-1.08.87c-.41.34-.75.68-1.01,1s-.51.66-.76,1.04c.74-.05,2.01-.08,3.82-.08l10.46-.04-.87,3.9h0Z"/>
          <path class="cls-1" d="M819.32,191.42c-.16-2.57-1.48-3.86-3.98-3.86-3.42,0-5.98,3.03-7.68,9.07,1.57-1.8,3.61-2.71,6.13-2.71s4.41.76,5.89,2.28c1.48,1.53,2.23,3.53,2.23,6.03,0,2.97-.99,5.47-2.96,7.48-1.97,2.02-4.42,3.03-7.34,3.03s-5.16-.91-6.78-2.74c-1.63-1.83-2.45-4.36-2.45-7.6,0-2.07.31-4.27.94-6.58.62-2.32,1.43-4.29,2.41-5.91,2.36-3.92,5.66-5.89,9.9-5.89,2.44,0,4.41.65,5.91,1.97,1.5,1.31,2.25,3.06,2.25,5.23v.2h-4.46ZM808.44,199.18c-1.04,1.19-1.57,2.74-1.57,4.66,0,1.57.44,2.82,1.33,3.78s2.06,1.44,3.52,1.44c1.65,0,2.99-.62,4.05-1.85,1.06-1.23,1.59-2.81,1.59-4.72,0-1.57-.42-2.81-1.27-3.72s-2.04-1.37-3.58-1.37c-1.67,0-3.03.6-4.08,1.79h0Z"/>
        </g>
      </g>
    </g>
  </g>
</svg>