<?xml version="1.0" encoding="UTF-8"?>
<svg id="Layer_2" data-name="Layer 2" xmlns="http://www.w3.org/2000/svg" viewBox="0 0 1092.57 416.01">
  <defs>
    <style>
      .cls-1 {
        fill: #fff;
      }
    </style>
  </defs>
  <g id="Layer_1-2" data-name="Layer 1">
    <g>
      <g>
        <rect class="cls-1" x="0" y="216.61" width="129.72" height="45.65" rx="22.83" ry="22.83"/>
        <rect class="cls-1" x="-58.36" y="115.63" width="279.05" height="45.65" rx="22.83" ry="22.83" transform="translate(-79.33 139.52) rotate(-60)"/>
        <rect class="cls-1" x="175.01" y="-1.1" width="45.65" height="279.05" rx="22.83" ry="22.83" transform="translate(-42.71 117.47) rotate(-30)"/>
      </g>
      <g>
        <rect class="cls-1" x="318.04" y="80.44" width="45.65" height="181.89" rx="22.83" ry="22.83"/>
        <path class="cls-1" d="M341.19,62.5c-1.3-8.51-4.69-15.95-10.8-21.67-5.61-5.38-12.44-8.07-20.47-9.46,16.89-1.91,29.27-14.48,31.27-31.37,2.04,16.8,13.9,28.92,30.64,31.39-7.62,1.52-14.5,4.21-20.01,9.6-6.08,5.75-9.42,13.28-10.62,21.51Z"/>
      </g>
      <rect class="cls-1" x="394.95" y="232.62" width="29.71" height="29.71" rx="6.96" ry="6.96"/>
      <g>
        <path class="cls-1" d="M561.89,190.25h-83.52v69.58h-21.5v-56.62c0-12.96,1.81-22.06,14.94-21.83h1.58l-.23-2.27h-1.36c-13.13,0-14.94-8.87-14.94-21.83v-35.02c0-12.96,8.6-21.6,21.28-21.6h96.88v20.01h-96.65v49.57h83.52v20.01Z"/>
        <path class="cls-1" d="M683.66,190.25h-83.52v49.57h96.65v20.01h-96.88c-12.68,0-21.28-8.64-21.28-21.6v-35.02c0-12.96,1.81-22.06,14.94-21.83h1.58l-.23-2.27h-1.36c-13.13,0-14.94-8.87-14.94-21.83v-35.02c0-12.96,8.6-21.6,21.28-21.6h96.88v20.01h-96.65v49.57h83.52v20.01Z"/>
        <path class="cls-1" d="M767.17,98.38c23.09,0,37.57,2.5,54.55,8.87v21.6c-11.09-3.87-24.9-10.91-53.64-10.91-32.14,0-47.08,9.1-47.08,26.6,0,43.21,107.51,5.69,107.51,70.72,0,31.38-24.67,47.07-67.45,47.07-23.31,0-37.8-2.5-54.55-8.87v-21.6c11.09,3.87,24.9,10.92,53.64,10.92,32.14,0,47.08-9.1,47.08-26.38,0-43.21-107.51-6.14-107.51-70.95,0-31.38,24.67-47.07,67.45-47.07Z"/>
        <path class="cls-1" d="M907.95,120.44v139.39h-21.28V120.44h-58.4v-19.78h138.07v19.78h-58.4Z"/>
      </g>
      <g>
        <path class="cls-1" d="M911.41,381.73c.22-.77.66-1.36.07-3.27-1.07,1.73-3.44.57-3.92,2.86-.72-.61-2.7-.87-2.39,1.22-.48,1.74-2.8,2.2-3.95.84l-6.04-4.96c-1.97-2.34-5.11-.74-7.48.8-2.51-1.19-4.83-2.55-7.51-1.23-1.58.73-3.14.41-4.54-.22-2.96-1.11-5.62-.45-8.98.59-3.24-2.51-7.17-2.69-10.77-.82-2.81.19-5.05-.19-7.62-1.85-1.32.5-2.72-.43-3.91.4-2.37.94-4.35-.39-6.98-.26-1.9,1.34-.56,2.66,1.39,2.11l9.33,1.34c3.55-.45,6.89-1.09,10.52.16,2.36.83,4.49-1.21,6.76.02,5.24,1.06,10.03.15,14.45,1.75-1.9,2.23-3.86.66-5.77,1.43-.79,1.31-1.44,1.7-2.11,1.82-.6.01-1.24-.29-2.2-1.41-1.19,1.11-2.79,1.95-4.46.61-.81-1.09-2.31-2.12-3.03-.18-1.25,2.08-3.36,1.06-5.2.77-4.57.37-8.53.38-12.85-.46-.86-1.29-2.1-2.03-3.36-.32-5.16.74-9.56.7-14.31-1.49-.6-1.88.51-3.9,2.35-5.95-.43-1.69-1.12-2.19-2.13-1.09-.32-.03-1.26.3-.84,2.67-1.5.75-3.73.64-4.19,3.22.37,1.54-.42,1.76-1.08,1.37-.98.11-1.88-.34-1.63-1.41-.54-2.94.38-3.09,2.88-2.29-.67-2.93-2.34-2.86-4.21-2.22-2.32.75-2.25-.5-2.94-2.95-1.6,1.28-.81,3.38-1.28,5.56-.53,2.79-1.91,4-4.37,4.1-2.99-.21-5.75-.83-8.7-.57-.48-1.9-1.52-2.16-2.22-1.69-1.11.5-.55,1.38-.57,2.8-3.96-1.22-7.01-2.15-10.8-1.23-2.3.68-4.33.3-6.33.59-2.66-1.13-5.3-1-8.16-.14-1.5-1.45-2.71.32-4.07-.58l-10.63-.26c-5.08.69-9.66.39-14.56.07-3.23.96-6.16.16-9.2-.59-5.09,1.04-9.72,1.57-14.74,1.05l-18.59.36c-1.78-.67-3.38-1.52-5.1-.57-2.76.43-5.26.36-8.16-.09-2.31.58-4.01,1.26-5.67,1.22-.31-2.38-1.96-2.98-4.06-2.59-.86-.26-2.49.35-3.69,2.29-2.81.23-5.25.62-8.02,1.48-2.2-.79-4.15-.9-6.5-.28-2.05-.87-3.79-.79-5.55.02-3.87.79-7.57.67-11.78-.46-1.79,1-3.56.96-4.38-.85-.73-1.46-2.2-1.88-3.68-.98-2.98.45-5.79.33-8.63-.05-5.01,1.03-9.39,2.03-14.52,2.41-.74,1.49-2.49,2.43-4.75,2.35-3.19.66-6.09,1.5-9.3.75-3.2.08-6.07-.42-9.05.01-2.72.62-5.29.12-8.23.24-2.83-.8-5.2.98-7.98.62l-7.92.93c-3.19.01-4.85-1.67-5.89-4.18-1.28,2.14-1.04,3.76-2.84,4.45-.29.6-3.23,1.23-3.36-.53-.21-2.47-1.74-.72-2.09,1.25l-14.28,1.36-11.68,1.33c-3.03-.26-5.66.23-8.3,1.06-3.08.83-5.25-.25-7.54-4.36-2.07,1.92-4.07,2.99-6.66,1.91-2.33,1.23-4.35,1.01-6.54.52-2.19,1.07-3.83,1.65-5.26,3.37-1.1,1.3-2.73.79-4.28.79-3.22,1.64-6.13,2.19-9.54,1.3-1.26.11-2.3-.06-3.1,1.25-4.67-.04-9.25.42-14.01-.15-.81-2.2-2.05-2.75-3.39-.68-1.32-.96-3.04-1.49-4.87-.16-1.89.27-5.23-.41-5.03,2.97-1.05,3.6-3.19.94-1.8-2.28-2.44-.65-2.77.65-2.04,2.69l-11.25,1.92-12.25.94c-1.69-.74-2.73.52-3.95.9-3.81.21-7.35-.13-10.89,1.06l-5.36,1.21c-2.06.47-4.08.97-6.07.96-.83-3.7-3.83-2.39-2.14.99-2.12,1.92-3.32,0-1.97-2.39.25-3.09-3.11-3.74-2.91.95-3.43-.05-6.82.65-10.57,1.55l-9.44,1.23c-1.78-.61-2.69-.35-3.5,1.44-3.67-1.99-7.16-1.19-11.13-.29-3.87.5-7.44.57-11.13,1.58-4.25.46-8.54.21-13.03,1.93-4.15,1.39-8.41,1.42-11.18-1.87-1.87-4.9-1.47-9.79-.41-15,9.16-2.54,17.96-4.21,27.59-3.47,3.24-.92,6.57-2.45,10.1-1.74.87-1.25,1.96-.48,3.35-1.75,1.5.95,2.69,2.12,2.77-.66,3.39-.52,5.95.07,9.33.17,2.04.92,3.97.6,5.15-1.37l12.11.05c2.21,1.66,4.24.25,6.77,1.11,1.6-.37,3.06-1.51,5.1-.98.22-2.51,1.26-3,2.77-2.62,2,1.09,3.27-.91,5.34-.97,4.24-1.9,7.99-2.62,12.2-.72,1.63-1.52,3.29-1.42,5.38-1.24,2.44,1.27,4.3-.59,6.72-.17l7.97-3.45,8.14-.06c2.65-1.32,5.18-1.38,7.96-.53,1.93.57,3.43-.1,5.39-.42,2.53-1.32,4.74-1.38,6.3,1.35,1.01-1.42,1.1-2.36,2.11-2.43,1.86-.86,2.01.05,2.55,2.22,4.62-3.12,9.85-3.74,15.76-3.67,1.82.42,3.32.27,5.32.4,1.67-.55,3.17-1.41,5.34-.62.92-.62,1.48-1.2,2.02-1.36,1.17-.33,1.94.43,3.1,1.83l4.4-3.26c1.05.55,1.62,1.01,2.16,2.14.68.39,1.55-.91,2.74-1.67l13.1,1.56c1.26-1.35,2.51-1.98,4.28-3.31,3.71.66,6.74,1.65,10.17,1.32,3.58-2.85,7.7-3.73,11.81-.62l3.46-2.97c2.17-.83,3.44-.03,4.55,2.32,1.9-2.63,5.53-2.16,7.57.41l3.65.18c.96-2.08,2.23-3.61,4.22-3.02,2.38.19,3.81.55,4.73,2.56.88-1.81.59-2.94,1.06-2.97,1.22-1.13,2.24-.86,3.63.18,2.3-1.56,4.56-1.27,6.16-.17,2.61-.82,4.3,1.59,6.23.4,2.14-2.18,4.8-2.02,7.68-1.41,2.02-1.74,4.19-.94,6.76-1.8,2.24.09,4.21,1.39,6.57-.36.97.65,1.43,1.12,1.86,1.31.55-.04,1.06-.52,2-1.05,2.94.83,5.52,1.11,8.18-.93,3.37.71,6.07.64,9.13.37,2.4,1.13,4.43.06,6.68-.79,5.15,1.05,9.74-.57,14.68-1.27,4.65.2,8.76-1.76,13.42-.81,3.64-1.7,7.2-1.24,10.83-1.79l12.72-1.32c.47,2.42,1.5,2.58,2.01.55,1.14-1.54,2.75-.94,4.16-1.95,2.21.66,4.16-.38,6.28-1.09,2.29.42,4.1.4,5.96-.76,2.14-.29,4.53.77,6.6-.96,4.17-1.35,8.41-1.04,12.65-1.33,1.88-.44,3.76-.51,5.75-1.65,5.43-.61,10.36-.88,15.15-2.78l13.25-1.09c2.14-.72,4.36-.35,6.52-1.8l20.91-3.73c6.45-2.09,12.77-3.22,19.48-4.28,4.31,0,7.87-2.37,12.29-3.05,3.17-.11,5.77-.81,8.25-1.97,3.55-.26,6.81-1.19,10.42-2.64,2.11.67,3.7.13,5.26-1.58,2.27.19,3.4-.82,5.01-1.39.8-.6.9-1.91.85-2.74-.26-.83-1.14-1.41-2.56-1.72-3.11.67-5.4-.16-7.8-2.59-1.48,1.77-2.68,2.27-4.22,1.29-4.82.86-9.4,0-14.37-.72-3.88-.25-7.19-.66-11.06-1.68-1.5,1.03-3.84,2.14-6.12.31-2.45-.2-3.75-1.3-4.82-3.78-3.08,2.36-5.28,2.52-8.64,1.56-.87.07-1.09-1.39-1.55-1.57-.96-.48-2.68-.32-1.35,2.14-2.02,2.42-5.43,2.38-8.89,2.38-4.64.39-8.88.28-13.11-2.01-4.08,1.77-7.86,1.56-12.07,1.27-1.94-.24-3.46-.34-5.44.88-1.53-1.76-3.06-2.58-4.61-1.63-1.54,1.69-3.63,1.3-5.81.68-2.91,1.06-5.15-.42-7.9-.71-1.49,1.15-2.64.88-3.39.13-1.15-.48-.57-1.35-.72-3.4-1.81,1.7-3.66,2.1-5.34,4.05-4.1,1.13-8.49.44-12.9.75-4.05.45-7.95-.03-11.93-.02-.89-1.71-2-.41-2.84.42-5.29.82-10.47.56-16.13-.22-2.64,1.27-5.24.74-8.07.67-2.39.57-4.36.59-6.65-.07-2.26.4-4.25,1.64-6.65.45-4.49,1.06-8.69,1.19-13.15-.22-1.49.22-2.54-.16-4.13.31-2.01-2.82-4.89-1.93-6.52.53-5.06.75-9.62,1.05-14.39.79-1.58.05-3.3.93-4.81-.71-2.9.38-5.86,2.06-9.02,1.32-2.92-.65-5.67-.75-8.05-.55-2.61,1.98-5.67,1.47-9.08,1.42-1.4.78-2.55.97-4.02.33-2.76.69-5.19.73-7.95-.06-5.84,1.75-11.41,1.8-17.34,1.6-4.63.82-8.89.54-13.15-.67l-3.92,1.89c-1.49.92-2.8.57-4.21-1.12-2.38,1.84-4.71,2.46-6.7,1.4.24-2.28-1.11-2.26-1.69.29-3.66-.99-7.56-.71-11.57.87-1.15-1.25-2.35-1.4-2.52-3.31-1.13-1.5-1.57.3-1.5,3.12-2.1-.51-4.3-.2-6.66,1.03-2.86.44-5.24,1.18-8.11.59-2.34-1.68-4.77-1.56-6.56.34-4.36.68-7.99-.72-11.88-1.44-2.37.09-4.02.76-5.17,3.02-2.14-.97-2.95.59-4.39.36-2.58.08-4.24,2.01-6.75,2.77-4.12-.98-7.77-1.14-11.64-.71-1.24-1.07-2.94-.87-3.85-.6-.31-3.44-2.24-2.9-.8.08-3.78,1.76-8.02,1.42-13.19.46-2.85-2.69-3.65-7.01-2.03-11.11-.42-3.57,1.41-6.19,4.86-6.3,3.22.14,6.11-.17,9.3-.81,2.12-.12,3.39.83,4.59,2.28.92,1.97,2.58,1.63,4.36,1.62,2.96,1.82,4.27-1.3,6.87-1.94,2.87-2.32,5.69-4.44,9.48-3.14l9.4-.99c2.11.83,3.95.83,5.63-.31,9.57-1.14,18.99-1.58,28.96-1.41,3.83-1.01,7.46-1.08,11.13-1.59l13.45-.48c3.33-.35,6.87,1.39,10.34-.5,3.59-1.32,7.15-.15,10.85-.89,3.27,0,6.5,1.19,10.23-.24,1.38.22,2.54.04,4.08.67,4.3-1.88,8.55-2.51,13.31-1.65,2.77-.93,5.16.09,7.41-.04,5.19-1.96,10.37-1.02,15.54-2.19,2.17-.63,4.23-.06,6.4-.33,1.72,1.03,3.55.62,5.22-.8,4.02.62,7.41,1.1,10.99.12,1.98-.79,4.08-.75,6.36.09,1.6.19,3.33.53,4.5-1.16l11.43.44c2.37.71,4.42-.2,6.64-.96,2.92.86,5.35,0,7.97-.51,2.9,0,5.26.16,7.74-.2l15.75-.15c2.32-1.15,4.61-.9,7.18-.39,4.58-.19,8.7-.24,13.41.71,2.23-.77,4.2-1.39,6.53-.82,5.83-1.58,11.36-.59,17.22.27l10.73-1.37c3.34,2.2,6.94,2.19,10.46.63,4.03.33,7.54,1.06,11.14.04l7.48.28c5.91-.17,11.34.36,17.19.93,3.87-.05,7.44.93,11.06-.15,1.82-.99,3.39.87,5.49,1.04,2.17-1.46,4.65-1.42,6.43.32l15.5,1.24c1.92-1.1,4.04-1.56,5.67.25l14,.86c7.25.43,13.97,1.67,20.91,3.69,2.77-.91,4.51.94,5.22,3.67,1.23,1.41,1.17,2.83.98,4.27,1.79.87,2.4,2.02,2.64,2.5.7,2.22-.56,3.37-1.91,4.15,2.16,3.29-.54,4.2-1.23,6.57-1.97,2.37-4.04,4.28-6.28,6.24-5.67.75-10.77,2.03-16.17,4.28-2.64.04-5.22-.46-7.14,1.81-2.4.1-4.83,1-7.53.74-1.39-1.08-2.58-.73-4.09-1.34-1.16,1.15-2.83,3.3-3.8,1.25-1.27-2.09-1.73.03-1.11,1.52-2.01,2.38-4.34,2.86-7.44,3.39-4.11-.46-8.26-.96-11.9,2.12-4.07,1.5-8.03.97-12.13.92-3.97,1.56-7.83,2.11-12.08,2.47-2.64-1.44-5.07-1.38-7.71-.75-.12,2.5-1.56,3.46-3.4,4.6-1.39.66-1.92,1.56-1.39,2.91.25.39,1.08.82,2.29.9.1,1.88.92,3.03,2.22,3.01,1.36.17,2.47-.75,2.85-2.19l4.62,1.71c2.76-3.35,5.99-3.18,9.1-1.37,2.73.19,4.81.08,6.7.68-1.86,1.8-1.45,2.73.25,1.89,1.13-2.4,3-2.48,4.9-1.36,2.59-.88,4.38-.56,7.29.51,2.44-3.06,5.54-3.4,9.25-2.45l5.95,4.99c1.9-1.06,3.48-1.62,5.46-.03,2.12-1.54,4.18-1.71,6.47-.59,2.46.39,4.41.25,6.53-.62,3.18,2.14,6.57,2.27,9.58.24l6.13.68c1.7,1.3,3.77,1.21,5.56-.5,2.09.49,3.39,1.67,5.25,1.29,2.38.12,3.93-.74,5.18-2.21,2.24.41,3.3.45,4.1,2.17,1.96-.66,2.73.86,3.67,1.38,2.34-2.04,3.7-.63,5.77-.43.88-1.64,1.28-2.23,2.03-1.87.68.21,1.05.93,1.75,1.97,3.48-.19,6.13.33,8.95,1.71,1.26-1.4,2.52-2.87,3.96-1.96,3.8,2.2,7.77,2.73,12.23,2.27,2.43,2.01,5.34,2.08,8.04.59,2.75-.5,5.35-.87,7.73,1.11,2.51-.36,4.59-.54,6.56.6,5.07,1.85,10.32,1.94,15.91,1.55l17.01,1.79,18.51,2.37c5.07-.24,9.64.21,14.15,1.56,2.08-2.04,4.19-1.16,6.05.36,2.05.76,3.7,1.73,5.86,1.9.39-2.45,1.38-3.55,1.77-1.63-.73,3.25.85,4.11,1.49.39,3.34,1.13,6.49,1.46,10.22,1.67,3.69.07,6.98.57,10.42,1.81,2.69-.78,5.06-.84,7.01.93,2.81.69,5.63.63,8.64.93,1.36-1.76,2.7-.23,4.19.6,2.27-.81,3.79,0,5.09,1.56,2.48.09,4.46-.56,6.74.94-1.93,1.19-4.28.74-6.86-.21-2.55-.78-4.91.14-7.05.46-.85,1.12-2.09.36-3.45.2-1.69.12-3.58.42-2.33,2.36-3.79.42-7.93.33-12.46-1.35l-24.89-2.65c-1.97,1.13-3.55.06-5.21-.48-2.12,1.18-3.4.39-5.73.16-.56,1.36.27,2.2,1.87,1.65,1.61.94.65,1.82-1.3,1.79-.75-2.72-2.27-2.97-4.6-1.87-1.19-1.67-2.67-2.77-4.91-2.5-3.27-.33-6.39-.91-8.86.66-.87,1.6-1.61-.39-3.09-.93-1.06-1.2-2.03-2.79-2.66-4.13.72-1.85-.78-1.88-1.21-.11-1.71,2.06-4.11,1.73-6.39.68-1.93-.33-3.61.47-5.19-.96-2.93.56-6.14.9-9.35-1.03-1.9-.27-2.78-.01-3.26,2.04-2.65.3-4.53-1.68-7.17-2.18-2.09.22-3.55-1.22-5.5.25-2-.88-3.76-2.11-5.66-.84-3.06.22-5.86-1-8.86-1.29.69-2.33.27-3.64-1.6-3.63-.87-.32-2,.53-2.56,2.82-3.31.59-5.98,1.2-9.09-.18-3.52.48-6.9.61-10.1-.73-1.5.9-2.57.36-4.73-.14-.93,1.07-.9,2.41-2.59,2.58ZM813.41,349.33c-3.4-.45-3.92,1.22-.85,1.65,1.54-.05,2.19-.77.85-1.65ZM778.99,364.71c.54-2.78.71-4.53-.57-4.68-.96-.47-1.92-.61-3.26-.47-1.95-.32-3.23.59-3.44,1.81-.12,1.54.99,2.79,2.62,3.11,1.19,1.13,3,2.15,4.66.23ZM781.88,360.62c.03-.47-.3-.88-.75-.91-.44-.03-.83.33-.86.8s.3.88.75.91.83-.33.86-.8ZM770.96,364.02c-3.02-1.27-5.72-1.57-8.17-.42,3.02,1.27,5.72,1.57,8.17.42ZM988.54,381.92c-3.06-1.44-4.53-1.7-5.41-.12,2.33.75,3.95,1.13,5.41.12ZM964.69,381.6c.03-.39-.25-.72-.61-.74-.36-.03-.68.27-.71.65-.03.39.25.72.61.74s.68-.27.71-.65ZM1024.1,385.76c-3.06-1.44-4.53-1.7-5.41-.12,2.33.75,3.95,1.13,5.41.12ZM1058.34,389.52c-3.06-1.44-4.53-1.7-5.41-.12,2.33.75,3.95,1.13,5.41.12ZM748.96,376.47c-2.62-1.51-4.82-1.26-6.16-3.87-2.1.95-3.61-.37-4.37,1.53-.24.31-1.39.8-.44,2.44,3.93-.13,6.84,1.45,10.97-.1ZM750.27,373.91c.03-.39-.25-.72-.61-.74-.36-.03-.68.27-.71.65s.25.72.61.74c.36.03.68-.27.71-.65ZM770.35,377.5c1.36-1.12,2.15-1.49,2.45-2.51-2.31-.45-4.23-1.34-5.85.6-3.98.6-7.78-1.5-11.65.17,5.04,1.77,9.58.78,15.04,1.74ZM690.93,377.83c3.01-.29,5-.68,7.34-.3,3.2.6,6.09.66,9.29-.21,4.28.24,8.19.57,12.15.21,2.65-.93,5.2-.79,8.03-.46,1.93.49,3.7-.7,5.38-1.95l-13.39-1.37c-3.41-.18-6.34.32-9.32,2.32-4.58-1.56-8.68-2.39-13.43-1.57-2.15,2.34-4.89,2.79-7.15.26-.94,1.41-2.62,1.34-4.73,1.03-3.22-.68-5.77-.04-8.23,1.81,3.04,1.01,5.22.77,7.68.79,1.5-2.07,3.64-1.01,6.37-.56ZM670.34,378.34c-3.06-1.44-4.53-1.7-5.41-.12,2.33.75,3.95,1.13,5.41.12ZM597.13,381.74c-3.06-1.44-4.53-1.7-5.41-.12,2.33.75,3.95,1.13,5.41.12Z"/>
        <path class="cls-1" d="M911.41,381.73c-.06,1.47,2.52,2.03.4,2.48-2.57.09-4.04,1.61-5.68-.18.61-1.5,1.31-1.95,1.43-2.72,1.59-.71,2.59,1.01,3.85.41Z"/>
        <path class="cls-1" d="M957.59,386.46c-1.95,1.6-3.81.25-5.16,2.49-2.26-.81-3.37-1.63-5.35-3.11,3.44-.64,6.61-.37,10.51.63Z"/>
        <rect class="cls-1" x="975.82" y="381.75" width="1.4" height="12.58" transform="translate(522.52 1335.69) rotate(-86.07)"/>
        <path class="cls-1" d="M940.64,385.5c-1.96,1.18-4.27.93-6.82-.31,1.96-1.18,4.27-.93,6.82.31Z"/>
        <path class="cls-1" d="M924.55,383.21c1.47-1.6,2.55-.78,2.87.05.29.82-.05,1.7-.81,2.05-.81.41-2.04.16-2.06-2.1Z"/>
        <path class="cls-1" d="M1091.84,390.92c1.34.88.69,1.6-.85,1.65-3.07-.43-2.55-2.09.85-1.65Z"/>
      </g>
      <g>
        <path class="cls-1" d="M978.75,221.09h-23.75c.2-1.59.56-3.04,1.1-4.34.54-1.3,1.13-2.4,1.78-3.29s1.54-1.79,2.66-2.68c1.12-.89,2.17-1.64,3.15-2.24.98-.6,2.24-1.36,3.8-2.27.65-.36,1.14-.63,1.46-.83,2.8-1.63,4.68-2.91,5.66-3.85,1.56-1.53,2.34-3.23,2.34-5.12,0-1.56-.49-2.8-1.46-3.73-.98-.93-2.31-1.39-4-1.39-2.15,0-3.81.69-5,2.07-1.19,1.38-1.89,3.18-2.12,5.39h-5.27c.36-3.71,1.63-6.66,3.8-8.85,2.18-2.19,5.15-3.29,8.92-3.29,3.28,0,5.9.85,7.85,2.56,1.95,1.71,2.93,3.99,2.93,6.85,0,2.28-.65,4.33-1.95,6.17-1.3,1.84-3.35,3.6-6.14,5.29-.62.39-1.5.92-2.63,1.59-1.14.67-1.94,1.14-2.41,1.41s-1.11.67-1.9,1.17-1.38.9-1.76,1.2-.81.65-1.32,1.07c-.5.42-.92.83-1.24,1.22s-.63.81-.93,1.27c.91-.06,2.47-.1,4.68-.1l12.82-.05-1.07,4.78Z"/>
        <path class="cls-1" d="M1008.39,203.69c-.26,1.69-.65,3.4-1.17,5.12-.52,1.72-1.21,3.36-2.07,4.9-.86,1.54-1.84,2.93-2.93,4.14s-2.41,2.18-3.95,2.88-3.21,1.05-5,1.05c-3.48,0-6.05-1.17-7.73-3.51s-2.51-5.32-2.51-8.92c0-1.89.18-3.83.54-5.83.36-2,.95-4.01,1.78-6.02.83-2.02,1.82-3.81,2.97-5.39,1.15-1.58,2.61-2.86,4.36-3.85,1.76-.99,3.67-1.49,5.75-1.49,3.51,0,6.11,1.09,7.8,3.27,1.69,2.18,2.54,5.1,2.54,8.78,0,1.56-.13,3.19-.39,4.88ZM993.64,193.45c-1.35,1.43-2.36,3.2-3.05,5.32-.68,2.11-1.19,4.15-1.54,6.12-.34,1.97-.51,3.71-.51,5.24,0,4.71,1.74,7.07,5.22,7.07,1.69,0,3.19-.72,4.51-2.17,1.32-1.45,2.32-3.24,3-5.39s1.19-4.2,1.54-6.17c.34-1.97.51-3.7.51-5.19,0-4.65-1.69-6.97-5.07-6.97-1.72,0-3.26.72-4.61,2.15Z"/>
        <path class="cls-1" d="M978.75,260.1h-23.75c.2-1.59.56-3.04,1.1-4.34.54-1.3,1.13-2.4,1.78-3.29s1.54-1.79,2.66-2.68c1.12-.89,2.17-1.64,3.15-2.24.98-.6,2.24-1.36,3.8-2.27.65-.36,1.14-.63,1.46-.83,2.8-1.63,4.68-2.91,5.66-3.85,1.56-1.53,2.34-3.23,2.34-5.12,0-1.56-.49-2.8-1.46-3.73-.98-.93-2.31-1.39-4-1.39-2.15,0-3.81.69-5,2.07-1.19,1.38-1.89,3.18-2.12,5.39h-5.27c.36-3.71,1.63-6.66,3.8-8.85,2.18-2.19,5.15-3.29,8.92-3.29,3.28,0,5.9.85,7.85,2.56,1.95,1.71,2.93,3.99,2.93,6.85,0,2.28-.65,4.33-1.95,6.17-1.3,1.84-3.35,3.6-6.14,5.29-.62.39-1.5.92-2.63,1.58-1.14.67-1.94,1.14-2.41,1.41s-1.11.67-1.9,1.17c-.8.5-1.38.9-1.76,1.2s-.81.65-1.32,1.07c-.5.42-.92.83-1.24,1.22s-.63.81-.93,1.27c.91-.06,2.47-.1,4.68-.1l12.82-.05-1.07,4.78Z"/>
        <path class="cls-1" d="M1004.3,234.64c-.2-3.15-1.82-4.73-4.88-4.73-4.19,0-7.33,3.71-9.41,11.12,1.92-2.21,4.42-3.32,7.51-3.32s5.4.93,7.22,2.8c1.82,1.87,2.73,4.33,2.73,7.39,0,3.64-1.21,6.7-3.63,9.17-2.42,2.47-5.42,3.71-9,3.71s-6.32-1.12-8.31-3.36c-2-2.24-3-5.35-3-9.31,0-2.54.38-5.23,1.15-8.07.76-2.84,1.75-5.26,2.95-7.24,2.89-4.81,6.94-7.22,12.14-7.22,2.99,0,5.41.8,7.24,2.41,1.84,1.61,2.76,3.75,2.76,6.41v.24h-5.46ZM990.96,244.15c-1.28,1.46-1.93,3.36-1.93,5.71,0,1.92.54,3.46,1.63,4.63,1.09,1.17,2.53,1.76,4.32,1.76,2.02,0,3.67-.76,4.97-2.27,1.3-1.51,1.95-3.44,1.95-5.78,0-1.92-.52-3.44-1.56-4.56-1.04-1.12-2.5-1.68-4.39-1.68-2.05,0-3.71.73-5,2.19Z"/>
      </g>
    </g>
  </g>
</svg>