<?xml version="1.0" encoding="UTF-8"?>
<svg id="Layer_2" data-name="Layer 2" xmlns="http://www.w3.org/2000/svg" xmlns:xlink="http://www.w3.org/1999/xlink" viewBox="0 0 3779.51 1065.35">
  <defs>
    <style>
      .cls-1 {
        stroke: url(#linear-gradient-63);
      }

      .cls-1, .cls-2, .cls-3, .cls-4, .cls-5, .cls-6, .cls-7, .cls-8, .cls-9, .cls-10, .cls-11, .cls-12, .cls-13, .cls-14, .cls-15, .cls-16, .cls-17, .cls-18, .cls-19, .cls-20, .cls-21, .cls-22, .cls-23, .cls-24, .cls-25, .cls-26, .cls-27, .cls-28, .cls-29, .cls-30, .cls-31, .cls-32, .cls-33, .cls-34, .cls-35, .cls-36, .cls-37, .cls-38, .cls-39, .cls-40, .cls-41, .cls-42, .cls-43, .cls-44, .cls-45, .cls-46, .cls-47, .cls-48, .cls-49, .cls-50, .cls-51, .cls-52, .cls-53, .cls-54, .cls-55, .cls-56, .cls-57, .cls-58, .cls-59, .cls-60, .cls-61, .cls-62, .cls-63, .cls-64, .cls-65, .cls-66, .cls-67, .cls-68, .cls-69, .cls-70, .cls-71, .cls-72, .cls-73, .cls-74, .cls-75, .cls-76, .cls-77, .cls-78, .cls-79, .cls-80, .cls-81, .cls-82, .cls-83, .cls-84, .cls-85, .cls-86, .cls-87, .cls-88, .cls-89, .cls-90, .cls-91, .cls-92, .cls-93 {
        fill: none;
        stroke-miterlimit: 10;
      }

      .cls-1, .cls-2, .cls-3, .cls-4, .cls-5, .cls-6, .cls-7, .cls-8, .cls-9, .cls-10, .cls-11, .cls-12, .cls-13, .cls-14, .cls-16, .cls-17, .cls-18, .cls-19, .cls-20, .cls-21, .cls-22, .cls-23, .cls-24, .cls-25, .cls-26, .cls-27, .cls-28, .cls-29, .cls-30, .cls-31, .cls-32, .cls-33, .cls-34, .cls-35, .cls-36, .cls-37, .cls-38, .cls-39, .cls-40, .cls-41, .cls-42, .cls-43, .cls-44, .cls-45, .cls-46, .cls-47, .cls-48, .cls-49, .cls-50, .cls-51, .cls-52, .cls-53, .cls-54, .cls-56, .cls-57, .cls-58, .cls-59, .cls-60, .cls-61, .cls-62, .cls-63, .cls-64, .cls-65, .cls-66, .cls-67, .cls-68, .cls-69, .cls-70, .cls-71, .cls-72, .cls-73, .cls-74, .cls-75, .cls-76, .cls-77, .cls-78, .cls-79, .cls-80, .cls-81, .cls-82, .cls-83, .cls-84, .cls-85, .cls-86, .cls-87, .cls-89, .cls-90, .cls-91, .cls-92, .cls-93 {
        stroke-linecap: round;
        stroke-width: 3.26px;
      }

      .cls-2 {
        stroke: url(#linear-gradient-86);
      }

      .cls-2, .cls-5, .cls-8, .cls-11, .cls-14, .cls-21, .cls-26, .cls-27, .cls-30, .cls-31, .cls-33, .cls-35, .cls-39, .cls-41, .cls-43, .cls-44, .cls-46, .cls-47, .cls-53, .cls-62, .cls-64, .cls-66, .cls-69, .cls-71, .cls-75, .cls-79, .cls-82, .cls-83, .cls-85, .cls-87 {
        stroke-dasharray: 28.23 28.23;
      }

      .cls-3 {
        stroke: url(#linear-gradient-58);
      }

      .cls-4 {
        stroke: url(#linear-gradient-21);
      }

      .cls-5 {
        stroke: url(#linear-gradient-80);
      }

      .cls-6 {
        stroke: url(#linear-gradient-61);
      }

      .cls-7 {
        stroke: url(#linear-gradient-85);
      }

      .cls-8 {
        stroke: url(#linear-gradient-68);
      }

      .cls-9 {
        stroke: url(#linear-gradient-69);
      }

      .cls-10 {
        stroke: url(#linear-gradient-27);
      }

      .cls-11 {
        stroke: url(#linear-gradient-14);
      }

      .cls-12 {
        stroke: url(#linear-gradient-39);
      }

      .cls-13 {
        stroke: url(#linear-gradient-43);
      }

      .cls-14 {
        stroke: url(#linear-gradient-59);
      }

      .cls-15 {
        stroke: url(#linear-gradient-2);
      }

      .cls-15, .cls-55 {
        stroke-width: 9.17px;
      }

      .cls-16 {
        stroke: url(#linear-gradient-13);
      }

      .cls-17 {
        stroke: url(#linear-gradient-75);
      }

      .cls-18 {
        stroke: url(#linear-gradient-12);
      }

      .cls-19 {
        stroke: url(#linear-gradient-57);
      }

      .cls-20 {
        stroke: url(#linear-gradient-66);
      }

      .cls-21 {
        stroke: url(#linear-gradient-17);
      }

      .cls-22 {
        stroke: url(#linear-gradient-64);
      }

      .cls-23 {
        stroke: url(#linear-gradient-88);
      }

      .cls-24 {
        stroke: url(#linear-gradient-25);
      }

      .cls-94 {
        fill: #fff;
      }

      .cls-25 {
        stroke: url(#linear-gradient-18);
      }

      .cls-26 {
        stroke: url(#linear-gradient-11);
      }

      .cls-27 {
        stroke: url(#linear-gradient-41);
      }

      .cls-28 {
        stroke: url(#linear-gradient-94);
      }

      .cls-29 {
        stroke: url(#linear-gradient-84);
      }

      .cls-30 {
        stroke: url(#linear-gradient-50);
      }

      .cls-31 {
        stroke: url(#linear-gradient-44);
      }

      .cls-95 {
        fill: url(#linear-gradient-97);
      }

      .cls-96 {
        fill: url(#linear-gradient-4);
      }

      .cls-97 {
        fill: #00674a;
      }

      .cls-32 {
        stroke: url(#linear-gradient-73);
      }

      .cls-33 {
        stroke: url(#linear-gradient-62);
      }

      .cls-34 {
        stroke: url(#linear-gradient-33);
      }

      .cls-35 {
        stroke: url(#linear-gradient-53);
      }

      .cls-36 {
        stroke: url(#linear-gradient-90);
      }

      .cls-37 {
        stroke: url(#linear-gradient-22);
      }

      .cls-98 {
        fill: url(#linear-gradient-3);
      }

      .cls-38 {
        stroke: url(#linear-gradient-16);
      }

      .cls-99 {
        fill: #f2f2f2;
      }

      .cls-100 {
        fill: url(#linear-gradient-5);
      }

      .cls-39 {
        stroke: url(#linear-gradient-8);
      }

      .cls-40 {
        stroke: url(#linear-gradient-48);
      }

      .cls-41 {
        stroke: url(#linear-gradient-56);
      }

      .cls-42 {
        stroke: url(#linear-gradient-52);
      }

      .cls-43 {
        stroke: url(#linear-gradient-38);
      }

      .cls-44 {
        stroke: url(#linear-gradient-26);
      }

      .cls-45 {
        stroke: url(#linear-gradient-15);
      }

      .cls-101 {
        fill: #b63f35;
      }

      .cls-46 {
        stroke: url(#linear-gradient-74);
      }

      .cls-47 {
        stroke: url(#linear-gradient-47);
      }

      .cls-48 {
        stroke: url(#linear-gradient-46);
      }

      .cls-49 {
        stroke: url(#linear-gradient-45);
      }

      .cls-50 {
        stroke: url(#linear-gradient-36);
      }

      .cls-51 {
        stroke: url(#linear-gradient-7);
      }

      .cls-52 {
        stroke: url(#linear-gradient-31);
      }

      .cls-53 {
        stroke: url(#linear-gradient-65);
      }

      .cls-54 {
        stroke: url(#linear-gradient-42);
      }

      .cls-55 {
        stroke: url(#linear-gradient);
      }

      .cls-56 {
        stroke: url(#linear-gradient-37);
      }

      .cls-57 {
        stroke: url(#linear-gradient-40);
      }

      .cls-58 {
        stroke: url(#linear-gradient-96);
      }

      .cls-102 {
        fill: #d6b828;
      }

      .cls-59 {
        stroke: url(#linear-gradient-76);
      }

      .cls-60 {
        stroke: url(#linear-gradient-34);
      }

      .cls-61 {
        stroke: url(#linear-gradient-30);
      }

      .cls-62 {
        stroke: url(#linear-gradient-95);
      }

      .cls-63 {
        stroke: url(#linear-gradient-55);
      }

      .cls-64 {
        stroke: url(#linear-gradient-35);
      }

      .cls-103 {
        fill: #df6226;
      }

      .cls-65 {
        stroke: url(#linear-gradient-67);
      }

      .cls-66 {
        stroke: url(#linear-gradient-29);
      }

      .cls-67 {
        stroke: url(#linear-gradient-10);
      }

      .cls-68 {
        stroke: url(#linear-gradient-60);
      }

      .cls-69 {
        stroke: url(#linear-gradient-77);
      }

      .cls-70 {
        stroke: url(#linear-gradient-79);
      }

      .cls-71 {
        stroke: url(#linear-gradient-92);
      }

      .cls-72 {
        stroke: url(#linear-gradient-9);
      }

      .cls-73 {
        stroke: url(#linear-gradient-70);
      }

      .cls-74 {
        stroke: url(#linear-gradient-91);
      }

      .cls-75 {
        stroke: url(#linear-gradient-23);
      }

      .cls-76 {
        stroke: url(#linear-gradient-19);
      }

      .cls-77 {
        stroke: url(#linear-gradient-82);
      }

      .cls-78 {
        stroke: url(#linear-gradient-49);
      }

      .cls-79 {
        stroke: url(#linear-gradient-89);
      }

      .cls-80 {
        stroke: url(#linear-gradient-87);
      }

      .cls-81 {
        stroke: url(#linear-gradient-24);
      }

      .cls-82 {
        stroke: url(#linear-gradient-71);
      }

      .cls-83 {
        stroke: url(#linear-gradient-32);
      }

      .cls-84 {
        stroke: url(#linear-gradient-78);
      }

      .cls-85 {
        stroke: url(#linear-gradient-20);
      }

      .cls-86 {
        stroke: url(#linear-gradient-81);
      }

      .cls-87 {
        stroke: url(#linear-gradient-83);
      }

      .cls-88 {
        stroke: url(#linear-gradient-6);
        stroke-width: 2.64px;
      }

      .cls-89 {
        stroke: url(#linear-gradient-51);
      }

      .cls-104 {
        fill: #d07629;
      }

      .cls-90 {
        stroke: url(#linear-gradient-54);
      }

      .cls-91 {
        stroke: url(#linear-gradient-72);
      }

      .cls-92 {
        stroke: url(#linear-gradient-28);
      }

      .cls-105 {
        fill: #161616;
      }

      .cls-93 {
        stroke: url(#linear-gradient-93);
      }
    </style>
    <linearGradient id="linear-gradient" x1="36.1" y1="532.67" x2="1181.25" y2="532.67" gradientUnits="userSpaceOnUse">
      <stop offset="0" stop-color="#804399"/>
      <stop offset=".2" stop-color="#693a8b"/>
      <stop offset=".52" stop-color="#4b2e78"/>
      <stop offset=".8" stop-color="#39266d"/>
      <stop offset="1" stop-color="#332469"/>
    </linearGradient>
    <linearGradient id="linear-gradient-2" x1="320.45" y1="532.67" x2="1185.13" y2="532.67" xlink:href="#linear-gradient"/>
    <linearGradient id="linear-gradient-3" x1="0" y1="532.67" x2="82.78" y2="532.67" gradientUnits="userSpaceOnUse">
      <stop offset="0" stop-color="#cbcc2b"/>
      <stop offset="1" stop-color="#91c74a"/>
    </linearGradient>
    <linearGradient id="linear-gradient-4" x1="283.64" y1="1023.96" x2="366.42" y2="1023.96" gradientUnits="userSpaceOnUse">
      <stop offset=".01" stop-color="#30b4d8"/>
      <stop offset="1" stop-color="#3cc4ec"/>
    </linearGradient>
    <linearGradient id="linear-gradient-5" x1="862.7" y1="1023.96" x2="945.49" y2="1023.96" gradientUnits="userSpaceOnUse">
      <stop offset="0" stop-color="#ee9921"/>
      <stop offset=".45" stop-color="#e92"/>
      <stop offset=".61" stop-color="#ee9c29"/>
      <stop offset=".72" stop-color="#efa135"/>
      <stop offset=".81" stop-color="#f0a846"/>
      <stop offset=".89" stop-color="#f2b15c"/>
      <stop offset=".96" stop-color="#f4bd76"/>
      <stop offset="1" stop-color="#f6c58a"/>
    </linearGradient>
    <linearGradient id="linear-gradient-6" x1="503.2" y1="532.67" x2="736.64" y2="532.67" xlink:href="#linear-gradient"/>
    <linearGradient id="linear-gradient-7" x1="618.29" y1="397.83" x2="621.55" y2="397.83" xlink:href="#linear-gradient"/>
    <linearGradient id="linear-gradient-8" x1="618.29" y1="539.73" x2="621.55" y2="539.73" xlink:href="#linear-gradient"/>
    <linearGradient id="linear-gradient-9" x1="618.29" y1="667.52" x2="621.55" y2="667.52" xlink:href="#linear-gradient"/>
    <linearGradient id="linear-gradient-10" x1="603.38" y1="398.57" x2="636.46" y2="398.57" xlink:href="#linear-gradient"/>
    <linearGradient id="linear-gradient-11" x1="603.38" y1="539.69" x2="636.46" y2="539.69" xlink:href="#linear-gradient"/>
    <linearGradient id="linear-gradient-12" x1="603.38" y1="666.78" x2="636.46" y2="666.78" xlink:href="#linear-gradient"/>
    <linearGradient id="linear-gradient-13" x1="588.63" y1="400.77" x2="651.21" y2="400.77" xlink:href="#linear-gradient"/>
    <linearGradient id="linear-gradient-14" x1="588.63" y1="539.58" x2="651.21" y2="539.58" xlink:href="#linear-gradient"/>
    <linearGradient id="linear-gradient-15" x1="588.63" y1="664.57" x2="651.21" y2="664.57" xlink:href="#linear-gradient"/>
    <linearGradient id="linear-gradient-16" x1="574.21" y1="404.43" x2="665.63" y2="404.43" xlink:href="#linear-gradient"/>
    <linearGradient id="linear-gradient-17" x1="574.21" y1="539.39" x2="665.63" y2="539.39" xlink:href="#linear-gradient"/>
    <linearGradient id="linear-gradient-18" x1="574.21" y1="660.92" x2="665.63" y2="660.92" xlink:href="#linear-gradient"/>
    <linearGradient id="linear-gradient-19" x1="560.27" y1="409.49" x2="679.57" y2="409.49" xlink:href="#linear-gradient"/>
    <linearGradient id="linear-gradient-20" x1="560.27" y1="539.12" x2="679.57" y2="539.12" xlink:href="#linear-gradient"/>
    <linearGradient id="linear-gradient-21" x1="560.27" y1="655.86" x2="679.57" y2="655.86" xlink:href="#linear-gradient"/>
    <linearGradient id="linear-gradient-22" x1="546.96" y1="415.89" x2="692.87" y2="415.89" xlink:href="#linear-gradient"/>
    <linearGradient id="linear-gradient-23" x1="546.96" y1="538.79" x2="692.87" y2="538.79" xlink:href="#linear-gradient"/>
    <linearGradient id="linear-gradient-24" x1="546.96" y1="649.45" x2="692.87" y2="649.45" xlink:href="#linear-gradient"/>
    <linearGradient id="linear-gradient-25" x1="534.44" y1="423.58" x2="705.39" y2="423.58" xlink:href="#linear-gradient"/>
    <linearGradient id="linear-gradient-26" x1="534.44" y1="538.38" x2="705.39" y2="538.38" xlink:href="#linear-gradient"/>
    <linearGradient id="linear-gradient-27" x1="534.44" y1="641.77" x2="705.39" y2="641.77" xlink:href="#linear-gradient"/>
    <linearGradient id="linear-gradient-28" x1="522.84" y1="432.46" x2="717" y2="432.46" xlink:href="#linear-gradient"/>
    <linearGradient id="linear-gradient-29" x1="522.84" y1="537.92" x2="717" y2="537.92" xlink:href="#linear-gradient"/>
    <linearGradient id="linear-gradient-30" x1="522.84" y1="632.88" x2="717" y2="632.88" xlink:href="#linear-gradient"/>
    <linearGradient id="linear-gradient-31" x1="512.28" y1="442.44" x2="727.55" y2="442.44" xlink:href="#linear-gradient"/>
    <linearGradient id="linear-gradient-32" x1="512.28" y1="537.4" x2="727.55" y2="537.4" xlink:href="#linear-gradient"/>
    <linearGradient id="linear-gradient-33" x1="512.28" y1="622.9" x2="727.55" y2="622.9" xlink:href="#linear-gradient"/>
    <linearGradient id="linear-gradient-34" x1="502.88" y1="453.41" x2="736.95" y2="453.41" xlink:href="#linear-gradient"/>
    <linearGradient id="linear-gradient-35" x1="502.88" y1="536.82" x2="736.95" y2="536.82" xlink:href="#linear-gradient"/>
    <linearGradient id="linear-gradient-36" x1="502.88" y1="611.93" x2="736.95" y2="611.93" xlink:href="#linear-gradient"/>
    <linearGradient id="linear-gradient-37" x1="494.75" y1="465.25" x2="745.08" y2="465.25" xlink:href="#linear-gradient"/>
    <linearGradient id="linear-gradient-38" x1="494.75" y1="536.2" x2="745.08" y2="536.2" xlink:href="#linear-gradient"/>
    <linearGradient id="linear-gradient-39" x1="494.75" y1="600.1" x2="745.08" y2="600.1" xlink:href="#linear-gradient"/>
    <linearGradient id="linear-gradient-40" x1="487.97" y1="477.83" x2="751.86" y2="477.83" xlink:href="#linear-gradient"/>
    <linearGradient id="linear-gradient-41" x1="487.97" y1="535.54" x2="751.86" y2="535.54" xlink:href="#linear-gradient"/>
    <linearGradient id="linear-gradient-42" x1="487.97" y1="587.52" x2="751.86" y2="587.52" xlink:href="#linear-gradient"/>
    <linearGradient id="linear-gradient-43" x1="482.62" y1="491" x2="757.21" y2="491" xlink:href="#linear-gradient"/>
    <linearGradient id="linear-gradient-44" x1="482.62" y1="534.85" x2="757.21" y2="534.85" xlink:href="#linear-gradient"/>
    <linearGradient id="linear-gradient-45" x1="482.62" y1="574.34" x2="757.21" y2="574.34" xlink:href="#linear-gradient"/>
    <linearGradient id="linear-gradient-46" x1="478.76" y1="504.64" x2="761.08" y2="504.64" xlink:href="#linear-gradient"/>
    <linearGradient id="linear-gradient-47" x1="478.76" y1="534.14" x2="761.08" y2="534.14" xlink:href="#linear-gradient"/>
    <linearGradient id="linear-gradient-48" x1="478.76" y1="560.71" x2="761.08" y2="560.71" xlink:href="#linear-gradient"/>
    <linearGradient id="linear-gradient-49" x1="476.42" y1="518.58" x2="763.41" y2="518.58" xlink:href="#linear-gradient"/>
    <linearGradient id="linear-gradient-50" x1="476.42" y1="533.41" x2="763.41" y2="533.41" xlink:href="#linear-gradient"/>
    <linearGradient id="linear-gradient-51" x1="476.42" y1="546.77" x2="763.41" y2="546.77" xlink:href="#linear-gradient"/>
    <linearGradient id="linear-gradient-52" x1="475.64" y1="532.67" x2="764.19" y2="532.67" xlink:href="#linear-gradient"/>
    <linearGradient id="linear-gradient-53" x1="475.64" y1="532.67" x2="764.19" y2="532.67" xlink:href="#linear-gradient"/>
    <linearGradient id="linear-gradient-54" x1="475.64" y1="532.67" x2="764.19" y2="532.67" xlink:href="#linear-gradient"/>
    <linearGradient id="linear-gradient-55" x1="476.42" y1="546.77" x2="763.41" y2="546.77" xlink:href="#linear-gradient"/>
    <linearGradient id="linear-gradient-56" x1="476.42" y1="531.94" x2="763.41" y2="531.94" xlink:href="#linear-gradient"/>
    <linearGradient id="linear-gradient-57" x1="476.42" y1="518.58" x2="763.41" y2="518.58" xlink:href="#linear-gradient"/>
    <linearGradient id="linear-gradient-58" x1="478.76" y1="560.71" x2="761.08" y2="560.71" xlink:href="#linear-gradient"/>
    <linearGradient id="linear-gradient-59" x1="478.76" y1="531.21" x2="761.08" y2="531.21" xlink:href="#linear-gradient"/>
    <linearGradient id="linear-gradient-60" x1="478.76" y1="504.64" x2="761.08" y2="504.64" xlink:href="#linear-gradient"/>
    <linearGradient id="linear-gradient-61" x1="482.62" y1="574.34" x2="757.21" y2="574.34" xlink:href="#linear-gradient"/>
    <linearGradient id="linear-gradient-62" x1="482.62" y1="530.49" x2="757.21" y2="530.49" xlink:href="#linear-gradient"/>
    <linearGradient id="linear-gradient-63" x1="482.62" y1="491" x2="757.21" y2="491" xlink:href="#linear-gradient"/>
    <linearGradient id="linear-gradient-64" x1="487.97" y1="587.52" x2="751.86" y2="587.52" xlink:href="#linear-gradient"/>
    <linearGradient id="linear-gradient-65" x1="487.97" y1="529.8" x2="751.86" y2="529.8" xlink:href="#linear-gradient"/>
    <linearGradient id="linear-gradient-66" x1="487.97" y1="477.83" x2="751.86" y2="477.83" xlink:href="#linear-gradient"/>
    <linearGradient id="linear-gradient-67" x1="494.75" y1="600.1" x2="745.08" y2="600.1" xlink:href="#linear-gradient"/>
    <linearGradient id="linear-gradient-68" x1="494.75" y1="529.14" x2="745.08" y2="529.14" xlink:href="#linear-gradient"/>
    <linearGradient id="linear-gradient-69" x1="494.75" y1="465.25" x2="745.08" y2="465.25" xlink:href="#linear-gradient"/>
    <linearGradient id="linear-gradient-70" x1="502.88" y1="611.93" x2="736.95" y2="611.93" xlink:href="#linear-gradient"/>
    <linearGradient id="linear-gradient-71" x1="502.88" y1="528.52" x2="736.95" y2="528.52" xlink:href="#linear-gradient"/>
    <linearGradient id="linear-gradient-72" x1="502.88" y1="453.41" x2="736.95" y2="453.41" xlink:href="#linear-gradient"/>
    <linearGradient id="linear-gradient-73" x1="512.28" y1="622.9" x2="727.55" y2="622.9" xlink:href="#linear-gradient"/>
    <linearGradient id="linear-gradient-74" x1="512.28" y1="527.95" x2="727.55" y2="527.95" xlink:href="#linear-gradient"/>
    <linearGradient id="linear-gradient-75" x1="512.28" y1="442.44" x2="727.55" y2="442.44" xlink:href="#linear-gradient"/>
    <linearGradient id="linear-gradient-76" x1="522.84" y1="632.88" x2="717" y2="632.88" xlink:href="#linear-gradient"/>
    <linearGradient id="linear-gradient-77" x1="522.84" y1="527.43" x2="717" y2="527.43" xlink:href="#linear-gradient"/>
    <linearGradient id="linear-gradient-78" x1="522.84" y1="432.46" x2="717" y2="432.46" xlink:href="#linear-gradient"/>
    <linearGradient id="linear-gradient-79" x1="534.44" y1="641.77" x2="705.39" y2="641.77" xlink:href="#linear-gradient"/>
    <linearGradient id="linear-gradient-80" x1="534.44" y1="526.96" x2="705.39" y2="526.96" xlink:href="#linear-gradient"/>
    <linearGradient id="linear-gradient-81" x1="534.44" y1="423.58" x2="705.39" y2="423.58" xlink:href="#linear-gradient"/>
    <linearGradient id="linear-gradient-82" x1="546.96" y1="649.45" x2="692.87" y2="649.45" xlink:href="#linear-gradient"/>
    <linearGradient id="linear-gradient-83" x1="546.96" y1="526.56" x2="692.87" y2="526.56" xlink:href="#linear-gradient"/>
    <linearGradient id="linear-gradient-84" x1="546.96" y1="415.89" x2="692.87" y2="415.89" xlink:href="#linear-gradient"/>
    <linearGradient id="linear-gradient-85" x1="560.27" y1="655.86" x2="679.57" y2="655.86" xlink:href="#linear-gradient"/>
    <linearGradient id="linear-gradient-86" x1="560.27" y1="526.23" x2="679.57" y2="526.23" xlink:href="#linear-gradient"/>
    <linearGradient id="linear-gradient-87" x1="560.27" y1="409.49" x2="679.57" y2="409.49" xlink:href="#linear-gradient"/>
    <linearGradient id="linear-gradient-88" x1="574.21" y1="660.92" x2="665.63" y2="660.92" xlink:href="#linear-gradient"/>
    <linearGradient id="linear-gradient-89" x1="574.21" y1="525.96" x2="665.63" y2="525.96" xlink:href="#linear-gradient"/>
    <linearGradient id="linear-gradient-90" x1="574.21" y1="404.43" x2="665.63" y2="404.43" xlink:href="#linear-gradient"/>
    <linearGradient id="linear-gradient-91" x1="588.63" y1="664.57" x2="651.21" y2="664.57" xlink:href="#linear-gradient"/>
    <linearGradient id="linear-gradient-92" x1="588.63" y1="525.77" x2="651.21" y2="525.77" xlink:href="#linear-gradient"/>
    <linearGradient id="linear-gradient-93" x1="588.63" y1="400.77" x2="651.21" y2="400.77" xlink:href="#linear-gradient"/>
    <linearGradient id="linear-gradient-94" x1="603.38" y1="666.78" x2="636.46" y2="666.78" xlink:href="#linear-gradient"/>
    <linearGradient id="linear-gradient-95" x1="603.38" y1="525.65" x2="636.46" y2="525.65" xlink:href="#linear-gradient"/>
    <linearGradient id="linear-gradient-96" x1="603.38" y1="398.57" x2="636.46" y2="398.57" xlink:href="#linear-gradient"/>
    <linearGradient id="linear-gradient-97" x1="572.11" y1="532.67" x2="667.72" y2="532.67" xlink:href="#linear-gradient"/>
  </defs>
  <g id="Layer_1-2" data-name="Layer 1">
    <g>
      <g>
        <path d="M1424.89,414.59h-83.94c19.52,0,25.95-16,25.95-34.23l.11-218.47c.01-18.59-6.54-35.21-25.95-35.21h83.71c-19.41,0-25.96,16.62-25.95,35.21l.11,218.47c0,18.23,6.42,34.23,25.95,34.23Z"/>
        <path d="M1610.95,415.76h-73.41c19.46,0,22.57-15.65,22.57-34.12v-93.67c0-22.53-5.16-50.96-33.11-50.96-19.15,0-36.74,25.17-47.15,44.39v99.68c0,18.37,1.77,34.23,21.25,34.23h-73.42c19.44,0,22.57-15.6,22.58-34.05v-111.82c0-17.18-9.08-18.88-13.56-18.88,16.33,0,43.04-9.12,43.04-20.43v45.49c14.16-23.54,30.83-47.38,59.16-47.38s50.76,20.79,50.77,53.17l.03,100.13c0,18.37,1.77,34.23,21.25,34.23Z"/>
        <path d="M1794.24,415.31h-28.4c-11.46,0-19.96-5.46-19.96-14.09v-27.12c-12.93,31.46-31.3,44.33-53.16,44.33-41.72,0-70.72-39.29-70.53-94.92.16-52.83,26.35-95.3,65.51-95.3,20.64,0,44.03,12.83,58.19,49.91v-102.8c0-17.18-9.09-18.88-13.56-18.88,16.33,0,43.04-9.12,43.04-20.43v255.04c0,10.2-.46,24.27,18.88,24.27ZM1745.87,366.78v-81.22c-14.35-36.93-34.27-49.87-50.29-49.94-30.07-.13-41.22,38.46-40.87,87.89.34,48.2,7.24,89.75,40.21,89.75,18.16,0,37.79-14,50.95-46.48Z"/>
        <path d="M1819.04,381.28v-111.83c0-17.18-9.08-18.88-13.56-18.88,16.33,0,43.03-9.12,43.03-20.43l.11,150.95c.01,18.37,1.77,34.23,21.26,34.23h-73.42c19.43,0,22.56-15.59,22.58-34.03ZM1813.89,201.27c0-8.89,7.07-15.96,15.96-15.96s15.86,7.16,15.86,15.96-7.04,15.85-15.86,15.85-15.96-6.97-15.96-15.85Z"/>
        <path d="M2013.56,391.04c0,10.82-1.53,24.27,17.85,24.27h-31.07c-14.64,0-16.25-7.33-16.25-16.75v-15.49c-8.11,18.96-29.74,35.36-57.62,35.36-53.24,0-68.22-69.11-10.61-92.13,30.71-12.27,63.61-20.14,68.22-49.36v-3.62c0-18.35-12.13-41.67-34.59-41.67-28.28,0-36.82,23.16-36.82,39.27-1.04,13.6-20.89,13.42-20.89-.65,0-18.83,26.03-42.01,58.13-42.01,38,0,63.64,27.47,63.64,62.24v100.55h-.01ZM1984.09,289.58c-14.2,22.58-37.01,27.65-54.76,36.75-31.51,16.15-22.88,85.67,9.13,85.67,19.85,0,38.29-14.78,45.62-38.18v-84.23Z"/>
        <path d="M2462.83,414.6h-111.49c20.24,0,37.95-9.43,30.09-33.57l-23.51-58.61h-120.15l-20.47,58.29c-7.13,21.92,9.82,33.9,30.09,33.9h-83.4c21.05,0,40.97-13.34,49.21-33.92l77.36-225.3c3.77-10.8-8.07-28.7-20.71-28.7h45.09l96.98,248.1c8.27,18.63,29.56,39.81,50.92,39.81ZM2356.93,318.48l-63.09-161.5-55.33,161.5h118.42Z"/>
        <path d="M2538.63,414.59h-83.92c19.5,0,25.93-16,25.95-34.23l.1-218.47c0-18.59-6.53-35.21-25.95-35.21h83.71c-19.42,0-25.96,16.62-25.95,35.21l.11,218.47c.01,18.23,6.44,34.23,25.94,34.23Z"/>
        <path d="M1582.34,771.64c-22.44,20.79-51.96,31.18-88.58,31.18-41.85,0-75.03-13.84-99.54-41.5-24.51-27.67-36.75-65.05-36.75-112.13,0-44.05,12.32-80.73,36.95-110.06,24.65-29.32,58.72-43.98,102.22-43.98,31.11,0,58.5,8.4,82.19,25.19,23.67,16.79,36.88,40.06,39.64,69.79h-38.82c-4.41-19.27-14.04-34.34-28.91-45.22-14.87-10.87-33.18-16.31-54.92-16.31-32.76,0-57.47,11.57-74.13,34.69-16.66,23.13-24.99,51.62-24.99,85.49,0,37.44,8.81,66.91,26.43,88.38,17.63,21.47,41.72,32.21,72.28,32.21,25.04,0,45.02-7.23,59.87-21.68,14.87-14.45,23.82-35.45,26.84-62.98h38.82c-3.29,37.17-16.17,66.15-38.61,86.93Z"/>
        <path d="M1832.39,605.83c17.9,19.55,26.84,46.95,26.84,82.19s-8.95,64.15-26.84,84.25c-17.9,20.1-43.09,30.15-75.58,30.15s-57.96-9.92-76.4-29.74c-18.44-19.83-27.67-47.36-27.67-82.6s9.35-62.64,28.08-83.01c18.73-20.37,44.18-30.56,76.4-30.56s57.27,9.77,75.16,29.32ZM1707.26,628.54c-12.11,15.15-18.17,35.38-18.17,60.71s5.99,46.6,17.97,61.33c11.97,14.73,28.71,22.1,50.18,22.1s36.82-7.43,48.52-22.3c11.7-14.87,17.56-35.38,17.56-61.54s-5.99-45.49-17.97-60.5c-11.97-15-28.29-22.51-48.94-22.51s-37.04,7.57-49.14,22.71Z"/>
        <path d="M1933.96,615.74c17.63-25.88,41.85-38.82,72.69-38.82,25.06,0,43.16,6.54,54.3,19.61,11.16,13.08,16.73,32.28,16.73,57.61v141.65h-35.1v-125.55c0-10.46-.35-18.65-1.03-24.57-.7-5.92-2.41-12.25-5.17-19-2.76-6.74-7.43-11.63-14.04-14.66-6.61-3.03-15.14-4.55-25.6-4.55-40.49,0-60.71,25.61-60.71,76.82v111.5h-35.11v-213.1h33.03v33.04Z"/>
        <path d="M2149.13,582.7l60.3,178.82,58.64-178.82h36.76l-78.05,213.1h-37.58l-79.3-213.1h39.24Z"/>
        <path d="M2426.24,802.82c-31.38,0-55.96-9.78-73.72-29.32-17.75-19.55-26.64-46.67-26.64-81.36s9.15-62.29,27.46-83.63c18.31-21.34,42.19-32.01,71.66-32.01,32.76,0,57.05,11.08,72.88,33.24,15.84,22.17,23.75,50.18,23.75,84.04v4.96h-160.24l-.41,2.48c0,22.57,5.92,40.34,17.76,53.27,11.84,12.94,28.08,19.41,48.73,19.41,15.42,0,27.59-3.58,36.55-10.73,8.94-7.16,15.9-18.72,20.85-34.69h34.28c-10.73,49.56-41.7,74.34-92.91,74.34ZM2466.7,622.55c-10.73-11.42-24.92-17.14-42.53-17.14s-31.25,5.78-42.53,17.34c-11.28,11.56-18.04,27.4-20.24,47.5h123.91c-1.66-20.38-7.86-36.27-18.6-47.7Z"/>
        <path d="M2669.87,614.09c-2.47-.28-5.5-.41-9.08-.41-11.28,0-21.07,1.72-29.32,5.16-8.26,3.44-14.8,7.92-19.61,13.42-4.82,5.51-8.74,12.39-11.77,20.65-3.03,8.26-5.02,16.52-5.99,24.78-.96,8.26-1.44,17.62-1.44,28.08v90.03h-35.11v-213.1h33.46v45.84c14.04-33.86,40.33-50.8,78.87-50.8v36.35Z"/>
        <path d="M2869.34,772.67c0,18.45-.96,32.69-2.89,42.74-1.93,10.05-5.5,19.48-10.74,28.29-15.69,25.88-43.77,38.82-84.25,38.82-23.96,0-44.19-4.89-60.71-14.66-16.53-9.77-26.16-25.81-28.91-48.11h35.92c4.14,23.68,22.45,35.52,54.94,35.52,21.75,0,37.5-5.51,47.28-16.52,9.77-11.01,14.93-28.77,15.49-53.27l.41-26.02c-13.49,25.88-36.07,38.82-67.73,38.82-28.63,0-51.42-9.77-68.35-29.32-16.93-19.55-25.4-45.84-25.4-78.88,0-31.11,8.4-57.75,25.2-79.91,16.79-22.16,40.2-33.25,70.2-33.25,14.87,0,28.15,3.17,39.86,9.5s20.85,15.42,27.46,27.26v-30.98h32.22v189.97ZM2726.65,629.57c-10.87,14.73-16.31,35.03-16.31,60.91,0,23.4,5.64,42.19,16.94,56.37,11.28,14.18,26.29,21.27,45.01,21.27s34.89-7.43,46.06-22.3c11.14-14.87,16.72-35.24,16.72-61.12,0-24.23-5.58-43.16-16.72-56.78-11.16-13.63-26.78-20.44-46.88-20.44-19,0-33.93,7.37-44.81,22.1Z"/>
        <path d="M3010.98,802.82c-31.38,0-55.96-9.78-73.71-29.32-17.76-19.55-26.65-46.67-26.65-81.36s9.16-62.29,27.47-83.63c18.31-21.34,42.19-32.01,71.65-32.01,32.76,0,57.05,11.08,72.89,33.24,15.84,22.17,23.74,50.18,23.74,84.04v4.96h-160.23l-.41,2.48c0,22.57,5.91,40.34,17.75,53.27,11.84,12.94,28.09,19.41,48.74,19.41,15.41,0,27.59-3.58,36.54-10.73,8.95-7.16,15.91-18.72,20.85-34.69h34.29c-10.75,49.56-41.72,74.34-92.93,74.34ZM3051.46,622.55c-10.74-11.42-24.92-17.14-42.54-17.14s-31.24,5.78-42.52,17.34c-11.3,11.56-18.04,27.4-20.24,47.5h123.89c-1.65-20.38-7.85-36.27-18.57-47.7Z"/>
        <path d="M3176.58,615.74c17.61-25.88,41.84-38.82,72.67-38.82,25.06,0,43.16,6.54,54.3,19.61,11.16,13.08,16.74,32.28,16.74,57.61v141.65h-35.11v-125.55c0-10.46-.35-18.65-1.03-24.57-.7-5.92-2.41-12.25-5.17-19-2.76-6.74-7.43-11.63-14.04-14.66-6.61-3.03-15.14-4.55-25.6-4.55-40.46,0-60.71,25.61-60.71,76.82v111.5h-35.11v-213.1h33.05v33.04Z"/>
        <path d="M3527.4,779.28c-16.39,15.15-37.66,22.71-63.82,22.71-32.21,0-57.12-9.98-74.75-29.94-17.61-19.96-26.42-46.6-26.42-79.91,0-35.52,9.23-63.67,27.66-84.46,18.45-20.78,43.37-31.18,74.75-31.18,26.15,0,47.1,6.54,62.79,19.61,15.69,13.08,24.92,31.73,27.66,55.96h-36.33c-6.34-30.84-24.24-46.26-53.71-46.26-20.37,0-36.47,7.51-48.31,22.51-11.84,15.01-17.75,35.31-17.75,60.92s5.64,46.25,16.93,61.12c11.28,14.87,26.83,22.3,46.66,22.3,15.98,0,28.97-4.68,39.02-14.04,10.05-9.36,16.45-22.85,19.21-40.47h35.52c-3.05,25.6-12.75,45.98-29.12,61.12Z"/>
        <path d="M3684.11,802.82c-31.38,0-55.95-9.78-73.72-29.32-17.75-19.55-26.63-46.67-26.63-81.36s9.14-62.29,27.45-83.63c18.33-21.34,42.19-32.01,71.66-32.01,32.76,0,57.06,11.08,72.9,33.24,15.82,22.17,23.74,50.18,23.74,84.04v4.96h-160.25l-.41,2.48c0,22.57,5.93,40.34,17.77,53.27,11.84,12.94,28.07,19.41,48.72,19.41,15.42,0,27.61-3.58,36.55-10.73,8.96-7.16,15.9-18.72,20.86-34.69h34.27c-10.73,49.56-41.7,74.34-92.91,74.34ZM3724.57,622.55c-10.73-11.42-24.92-17.14-42.52-17.14s-31.26,5.78-42.54,17.34c-11.28,11.56-18.04,27.4-20.22,47.5h123.89c-1.65-20.38-7.85-36.27-18.6-47.7Z"/>
      </g>
      <rect class="cls-105" x="1340.94" y="888.98" width="431.89" height="140.43"/>
      <g>
        <path class="cls-94" d="M1410.39,941.03h-10.5v-10.49h10.5v10.49ZM1420.87,993.48h31.47v10.49h-52.45v-10.49h10.5v-10.49h10.48v10.49ZM1441.86,920.05v10.49h-31.47v-10.49h31.47ZM1431.37,982.99h-10.49v-10.49h10.49v10.49ZM1441.86,972.5h-10.49v-10.49h10.49v10.49ZM1452.34,930.54v31.47h-10.48v-31.47h10.48Z"/>
        <path class="cls-94" d="M1485.04,993.48v-62.94h10.49v62.94h-10.49ZM1527.01,920.05v10.49h-31.48v-10.49h31.48ZM1527.01,1003.97h-31.48v-10.49h31.48v10.49ZM1516.51,941.03v41.96h-10.48v-41.96h10.48ZM1537.49,930.54v62.94h-10.48v-62.94h10.48Z"/>
        <path class="cls-94" d="M1580.67,941.03h-10.48v-10.49h10.48v10.49ZM1591.18,993.48h31.47v10.49h-52.45v-10.49h10.48v-10.49h10.5v10.49ZM1612.14,920.05v10.49h-31.47v-10.49h31.47ZM1601.66,982.99h-10.48v-10.49h10.48v10.49ZM1612.14,972.5h-10.48v-10.49h10.48v10.49ZM1622.64,930.54v31.47h-10.5v-31.47h10.5Z"/>
        <path class="cls-94" d="M1707.79,920.05v10.49h-41.97v20.98h31.47v10.49h-41.95v-41.96h52.45ZM1655.34,993.48v-10.49h10.48v10.49h-10.48ZM1697.29,1003.97h-31.47v-10.49h31.47v10.49ZM1707.79,962.01v31.47h-10.5v-31.47h10.5Z"/>
      </g>
      <rect class="cls-103" x="2656.48" y="308.95" width="234.46" height="35.95"/>
      <rect class="cls-99" x="2656.48" y="344.9" width="303.31" height="35.95"/>
      <rect class="cls-97" x="2656.48" y="379.8" width="378.57" height="35.95"/>
      <polygon class="cls-55" points="892.32 41.39 325.03 41.39 41.39 532.67 325.03 1023.96 892.32 1023.96 1175.96 532.67 892.32 41.39"/>
      <polygon class="cls-15" points="325.03 41.39 325.03 1023.96 1175.96 532.67 325.03 41.39"/>
      <circle class="cls-102" cx="325.03" cy="41.39" r="41.39"/>
      <circle class="cls-94" cx="325.03" cy="41.39" r="29.07"/>
      <circle class="cls-104" cx="892.32" cy="41.39" r="41.39"/>
      <circle class="cls-98" cx="41.39" cy="532.67" r="41.39"/>
      <circle class="cls-96" cx="325.03" cy="1023.96" r="41.39"/>
      <circle class="cls-100" cx="904.1" cy="1023.96" r="41.39"/>
      <circle class="cls-101" cx="1175.96" cy="532.67" r="41.39"/>
      <circle class="cls-94" cx="41.39" cy="532.67" r="29.07"/>
      <circle class="cls-94" cx="1176.29" cy="532.67" r="29.07"/>
      <circle class="cls-94" cx="325.03" cy="1025.14" r="29.07"/>
      <circle class="cls-94" cx="904.1" cy="1025.14" r="29.07"/>
      <circle class="cls-94" cx="892.32" cy="41.39" r="29.07"/>
      <circle class="cls-88" cx="619.92" cy="532.67" r="115.4"/>
      <g>
        <line class="cls-51" x1="619.92" y1="390.03" x2="619.92" y2="405.63"/>
        <line class="cls-39" x1="619.92" y1="433.86" x2="619.92" y2="645.6"/>
        <line class="cls-72" x1="619.92" y1="659.72" x2="619.92" y2="675.32"/>
      </g>
      <g>
        <line class="cls-67" x1="605.01" y1="390.81" x2="606.64" y2="406.32"/>
        <line class="cls-26" x1="609.59" y1="434.4" x2="631.72" y2="644.98"/>
        <line class="cls-18" x1="633.2" y1="659.02" x2="634.83" y2="674.54"/>
      </g>
      <g>
        <line class="cls-16" x1="590.26" y1="393.14" x2="593.5" y2="408.4"/>
        <line class="cls-11" x1="599.37" y1="436.02" x2="643.4" y2="643.14"/>
        <line class="cls-45" x1="646.33" y1="656.94" x2="649.57" y2="672.2"/>
      </g>
      <g>
        <line class="cls-38" x1="575.84" y1="397.01" x2="580.66" y2="411.85"/>
        <line class="cls-21" x1="589.38" y1="438.7" x2="654.81" y2="640.08"/>
        <line class="cls-25" x1="659.18" y1="653.5" x2="664" y2="668.34"/>
      </g>
      <g>
        <line class="cls-76" x1="561.9" y1="402.36" x2="568.24" y2="416.61"/>
        <line class="cls-85" x1="579.73" y1="442.4" x2="665.85" y2="635.84"/>
        <line class="cls-4" x1="671.59" y1="648.74" x2="677.94" y2="662.99"/>
      </g>
      <g>
        <line class="cls-37" x1="548.59" y1="409.14" x2="556.39" y2="422.65"/>
        <line class="cls-75" x1="570.51" y1="447.1" x2="676.38" y2="630.47"/>
        <line class="cls-81" x1="683.44" y1="642.7" x2="691.24" y2="656.21"/>
      </g>
      <g>
        <line class="cls-24" x1="536.07" y1="417.27" x2="545.24" y2="429.89"/>
        <line class="cls-44" x1="561.84" y1="452.73" x2="686.3" y2="624.04"/>
        <line class="cls-10" x1="694.59" y1="635.46" x2="703.76" y2="648.08"/>
      </g>
      <g>
        <line class="cls-92" x1="524.47" y1="426.67" x2="534.91" y2="438.26"/>
        <line class="cls-66" x1="553.8" y1="459.24" x2="695.48" y2="616.6"/>
        <line class="cls-61" x1="704.93" y1="627.09" x2="715.37" y2="638.68"/>
      </g>
      <g>
        <line class="cls-52" x1="513.91" y1="437.22" x2="525.5" y2="447.66"/>
        <line class="cls-83" x1="546.48" y1="466.55" x2="703.84" y2="608.24"/>
        <line class="cls-34" x1="714.33" y1="617.68" x2="725.92" y2="628.12"/>
      </g>
      <g>
        <line class="cls-60" x1="504.51" y1="448.83" x2="517.13" y2="458"/>
        <line class="cls-64" x1="539.98" y1="474.59" x2="711.28" y2="599.05"/>
        <line class="cls-50" x1="722.7" y1="607.35" x2="735.32" y2="616.52"/>
      </g>
      <g>
        <line class="cls-56" x1="496.38" y1="461.35" x2="509.89" y2="469.15"/>
        <line class="cls-43" x1="534.34" y1="483.27" x2="717.72" y2="589.14"/>
        <line class="cls-12" x1="729.94" y1="596.2" x2="743.45" y2="604"/>
      </g>
      <g>
        <line class="cls-57" x1="489.6" y1="474.65" x2="503.85" y2="481"/>
        <line class="cls-27" x1="529.65" y1="492.48" x2="723.08" y2="578.61"/>
        <line class="cls-54" x1="735.98" y1="584.35" x2="750.23" y2="590.69"/>
      </g>
      <g>
        <line class="cls-13" x1="484.25" y1="488.59" x2="499.09" y2="493.41"/>
        <line class="cls-31" x1="525.94" y1="502.14" x2="727.32" y2="567.57"/>
        <line class="cls-49" x1="740.74" y1="571.93" x2="755.58" y2="576.75"/>
      </g>
      <g>
        <line class="cls-48" x1="480.39" y1="503.02" x2="495.65" y2="506.26"/>
        <line class="cls-47" x1="523.26" y1="512.13" x2="730.38" y2="556.15"/>
        <line class="cls-40" x1="744.19" y1="559.09" x2="759.45" y2="562.33"/>
      </g>
      <g>
        <line class="cls-78" x1="478.05" y1="517.76" x2="493.57" y2="519.39"/>
        <line class="cls-30" x1="521.64" y1="522.34" x2="732.23" y2="544.48"/>
        <line class="cls-89" x1="746.27" y1="545.95" x2="761.78" y2="547.58"/>
      </g>
      <g>
        <line class="cls-42" x1="477.27" y1="532.67" x2="492.87" y2="532.67"/>
        <line class="cls-35" x1="521.1" y1="532.67" x2="732.85" y2="532.67"/>
        <line class="cls-90" x1="746.96" y1="532.67" x2="762.56" y2="532.67"/>
      </g>
      <g>
        <line class="cls-63" x1="478.05" y1="547.58" x2="493.57" y2="545.95"/>
        <line class="cls-41" x1="521.64" y1="543" x2="732.23" y2="520.87"/>
        <line class="cls-19" x1="746.27" y1="519.39" x2="761.78" y2="517.76"/>
      </g>
      <g>
        <line class="cls-3" x1="480.39" y1="562.33" x2="495.65" y2="559.09"/>
        <line class="cls-14" x1="523.26" y1="553.22" x2="730.38" y2="509.19"/>
        <line class="cls-68" x1="744.19" y1="506.26" x2="759.45" y2="503.02"/>
      </g>
      <g>
        <line class="cls-6" x1="484.25" y1="576.75" x2="499.09" y2="571.93"/>
        <line class="cls-33" x1="525.94" y1="563.21" x2="727.32" y2="497.78"/>
        <line class="cls-1" x1="740.74" y1="493.41" x2="755.58" y2="488.59"/>
      </g>
      <g>
        <line class="cls-22" x1="489.6" y1="590.69" x2="503.85" y2="584.35"/>
        <line class="cls-53" x1="529.65" y1="572.87" x2="723.08" y2="486.74"/>
        <line class="cls-20" x1="735.98" y1="481" x2="750.23" y2="474.65"/>
      </g>
      <g>
        <line class="cls-65" x1="496.38" y1="604" x2="509.89" y2="596.2"/>
        <line class="cls-8" x1="534.34" y1="582.08" x2="717.72" y2="476.21"/>
        <line class="cls-9" x1="729.94" y1="469.15" x2="743.45" y2="461.35"/>
      </g>
      <g>
        <line class="cls-73" x1="504.51" y1="616.52" x2="517.13" y2="607.35"/>
        <line class="cls-82" x1="539.98" y1="590.75" x2="711.28" y2="466.3"/>
        <line class="cls-91" x1="722.7" y1="458" x2="735.32" y2="448.83"/>
      </g>
      <g>
        <line class="cls-32" x1="513.91" y1="628.12" x2="525.5" y2="617.68"/>
        <line class="cls-46" x1="546.48" y1="598.79" x2="703.84" y2="457.11"/>
        <line class="cls-17" x1="714.33" y1="447.66" x2="725.92" y2="437.22"/>
      </g>
      <g>
        <line class="cls-59" x1="524.47" y1="638.68" x2="534.91" y2="627.09"/>
        <line class="cls-69" x1="553.8" y1="606.11" x2="695.48" y2="448.75"/>
        <line class="cls-84" x1="704.93" y1="438.26" x2="715.37" y2="426.67"/>
      </g>
      <g>
        <line class="cls-70" x1="536.07" y1="648.08" x2="545.24" y2="635.46"/>
        <line class="cls-5" x1="561.84" y1="612.62" x2="686.3" y2="441.31"/>
        <line class="cls-86" x1="694.59" y1="429.89" x2="703.76" y2="417.27"/>
      </g>
      <g>
        <line class="cls-77" x1="548.59" y1="656.21" x2="556.39" y2="642.7"/>
        <line class="cls-87" x1="570.51" y1="618.25" x2="676.38" y2="434.87"/>
        <line class="cls-29" x1="683.44" y1="422.65" x2="691.24" y2="409.14"/>
      </g>
      <g>
        <line class="cls-7" x1="561.9" y1="662.99" x2="568.24" y2="648.74"/>
        <line class="cls-2" x1="579.73" y1="622.94" x2="665.85" y2="429.51"/>
        <line class="cls-80" x1="671.59" y1="416.61" x2="677.94" y2="402.36"/>
      </g>
      <g>
        <line class="cls-23" x1="575.84" y1="668.34" x2="580.66" y2="653.5"/>
        <line class="cls-79" x1="589.38" y1="626.65" x2="654.81" y2="425.27"/>
        <line class="cls-36" x1="659.18" y1="411.85" x2="664" y2="397.01"/>
      </g>
      <g>
        <line class="cls-74" x1="590.26" y1="672.2" x2="593.5" y2="656.94"/>
        <line class="cls-71" x1="599.37" y1="629.33" x2="643.4" y2="422.21"/>
        <line class="cls-93" x1="646.33" y1="408.4" x2="649.57" y2="393.14"/>
      </g>
      <g>
        <line class="cls-28" x1="605.01" y1="674.54" x2="606.64" y2="659.02"/>
        <line class="cls-62" x1="609.59" y1="630.95" x2="631.72" y2="420.36"/>
        <line class="cls-58" x1="633.2" y1="406.32" x2="634.83" y2="390.81"/>
      </g>
      <circle class="cls-95" cx="619.92" cy="532.67" r="47.8"/>
    </g>
  </g>
</svg>