<?xml version="1.0" encoding="UTF-8"?>
<svg id="Layer_2" data-name="Layer 2" xmlns="http://www.w3.org/2000/svg" viewBox="0 0 1920 1080">
  <defs>
    <style>
      .cls-1 {
        fill: #fff;
      }

      .cls-2 {
        fill: #f4f4f4;
      }
    </style>
  </defs>
  <g id="Layer_1-2" data-name="Layer 1">
    <g>
      <rect class="cls-2" width="1920" height="1080"/>
      <g>
        <path d="M1055.54,824.43c-1.01.88-1.04,1.96-1.64,2.72l-2.3,2.91c-1.89,2.38-2.82,4.72-5.54,5.57-.14.85-1.68,1.51-2.02.08-.13-.1-1.72.26-2.16.56l-2.52,1.71-2.64,3.56c-.35,2.39-1.73,5.85-4.85,5.46-2.3-.29-3.49,3.42-6.11,1.39l-4.69,3.37c.51,2.97-2.39,5.55-5.41,5.05-4.94-.82-5.47,3.5-7.97,3.06-3.5-.61-5.52,1.09-7.99,2.7l-6.1,3.97c-2.31,1.5-4.45,1.49-7.1.94-1.3-.27-3.24,1.79-6.31,1.53-2.16,6.79-10.2.17-13.91,2.14-1.46.77-2.81,1.59-4.06,2.98-2.15,2.39-5.91.52-9.76.9-.49-1.21-1.08-1.32-1.96-1.04-1.35.41-5.06.35-7.31-1.15l-3.61,2.9c-3.95,1.06-7.76-.41-10.48-2.83-.95.21-1.55-.19-2.63-.53l-2.96-.92c-1.05-.32-2.15-.86-2.65-.16-.86.91-3.78.94-5.17.21l-4.19-2.21c-1.83-.97-3.65.92-5.65-.13l-3.98-2.09c-1.06-.55-1.41-1.3-2.2-1.94l-5.44-4.44c-3.85,1.18-7.1-.25-9.43-2.73l-2.84-3.01c-3.3.08-5.71-1.35-8.2-2.88l-5.51-3.38c-4.33-2.65-8.74-11.24-12.72-11.6-4.28-.38-6.37-2.51-8.07-5.96-4.77-9.67-12.09-11-12.83-12.97-2.04-5.47-7.02-1.84-12.29-10.18l-4.95-7.83c-.51-.81-2.2-1.56-2.82-2.09l-3.15-2.75c-7.34-3.02-8.85-9.65-10.12-10.64l-4.21-3.3c-1.95-1.53-4-2.56-5.46-4.7l-2.99-4.39c-.87-1.28-1.72-1.89-2.3-3.52-.82-2.3-5.72-2.12-10.8-10.02l-2.81-4.37c-.49-.76-.23-1.1-.82-1.9l-6.77-9.21-3.04-3.94-3.29-3.72c-1.42-1.61-2.21-9.17-4.86-9.67-1.56-.29-2.06-.62-2.56-1.93l-4-10.53-2.21-6.53c-.51-1.52-1.97-3.72-1.86-5.5.06-.88-.79-2.55-1.05-3.36l-1.83-5.67-.8-3.35-3.78-16.1-.66-8.04-.19-3.95c-.14-3.02-1.24-5.96-1.13-8.93.09-2.43-.1-4.34-.37-6.54l-.68-5.58c-.36-2.96-1.09-6.03.31-8.81.59-1.18.6-3.18.25-4.19-3.01-1.72-5.77-4.15-7.63-6.76l-4.09-5.73-2.72-4.47-4.76-9.56c-.73-1.47-1.78-3.25-2.51-5.43l-2.29-6.88-3.09-8.31-.41-2.69c-.44-2.92-1.6-5-2.48-7.8l-.98-3.1-1.23-3.35c-.35-.95-.46-1.45-.79-1.7-.36-.27-1.53-.51-2.22-.08l-1.6,1.02c-1.2.77-3.16-2.18-6.33-3.06s-4.51-3.25-6.59-4.59c-12.32-7.88-13.16-19.73-15.41-22.84l-2.13-2.94c-1.5-2.07-2.45-4.36-3.04-6.88l-.95-4.01c-1.96-8.25-.44-12.17-.96-13.16-1.17-2.23-.32-4.85.26-6.88.65-2.28-1.17-2.75-2.25-4l-5.15-5.97c-1.06-1.22-4.16-6.38-4.46-7.85-.41-2-1.75-3.44-2.46-6.25l-1.01-4.05c-1-4.03-.41-6.98-1.16-8.87-.4-3.8-.18-7.26.19-10.74l.87-8.26,1.3-4.14c.59-1.89.21-3.95,1.24-6.47l1.41-3.46c.37-.9.68-1.39.24-2.33.89-.82.03-1.49-.67-.91l-1.07,2.29-2.39,5.18-1.14,3.58-.86,2.25c-.79,2.05-1.67,4.28-2.1,7.03l-.73,4.69c-.25,1.6-.53,2.82-.86,4.34-.1.27-1.03.98-.84,1.58.95.93.4,1.8.28,2.73v10.35s.88,3.34.88,3.34c.21.78-.26,3.64,1.15,8.05l1.28,4.04c.77,2.43,1.28,4.34,2.48,6.41,1.68,2.92,3.01,5.69,4.62,7.31l3.15,3.17c1.05,1.12.27,2.97-1.67,2.94l-4.13-3.01c-.8-.58-2.56-.84-3.58-1.95-7.87-8.61-12.52-19.01-13.76-30.65l-.65-3.45.39-6.94,1.14-8.96.92-5.15,1.16-3.79.76-3.93,1.22-3.12,1.01-2.67,4.81-11.37,6.56-12.48c4.43-8.43,7.74-17.95,6.66-26.79-.41-3.31-4.47-9.68-2.03-26.75l.73-5.1c.17-1.18.43-1.83,1.03-3.2l2.12-4.78c1-2.26,1.17-4.11,2.93-6.15l.96-2.82c.73-2.13,1.92-3.28,3.13-5.18l1.88-2.97,3.91-5.16,3.66-4.41c1.48-1.79,3.87-3.49,5.14-5.62-.29-1.82-.29-3.45.91-5.26,2.05-3.08,5.52-7.27,6.99-8.15l6.39-3.83,7.21-3.72,4.36-1.51c2.07-.72,5-2,8.69-3,.49,1.02,1.66.68,1.32-.36-.02-.73-.64-.9-1.28-.63-2.06.4-3.19-.17-4.61-.67-3.16-1.11-5.18,1.79-6.47,1.7-1.82-.13-2.55.65-4.18,1.67l-2.99,1.88c-1.6,1.01-2.77,1.36-4.04,3.86-1.55-.21-1.57-1.77-.57-2.35-.4-2.05,1.39-2.47,1.87-3.26,2.06-3.36,11.5-7.88,12.86-7.72,3.32.39,5.29-1.62,8.92-.38,2.07.71,4.93.37,7.2,3.26-.8,1.66,1.29,1.96,1.02.16.46-.81.3-1.5.23-2.18,0-.05-8.35-4.49-11.05-17.9-.51-2.54-.8-12.67-.93-12.16.3-1.17,1.54-2.7,1.39-4.38-.24-2.63,3.97-12.56,6.92-16.19l4.09-5.04,5.96-5.99c5.78-5.81,12.16-9.08,18.78-12.5l4.03-2.08,3.49-1.31,2.96-1.49c.62-.31,2.07.12,2.53-.17,2.53-1.59,9.64-3.6,13.86-2.72,0,1.4.47,2.56.84,3.5,2.48,6.26-9.82,4.37-23.06,16.44-2.28,2.08-5.39,3.9-7.12,6.5-1.48,2.22-2.55,3.59-5.03,5.33-1.38.96-2.29,4.02-3.13,5.37l-2.33,3.77-2.74,6.11-2.23,8.59-.52,6.94c-.26,1.07.1,1.83,1.32,1.47.85-6.47,6.03-14.22,10.51-19.59l3.2-3.83,11.82-10.49,10.02-6.3c1.98-1.24,4.45-1.73,4.93-2.38,1.52-2.03,3.91-1.44,5.15-1.9,2.27-.85,3.85-2.23,6.2-1.62.34-1.55,1.03-1.66,1.45-1.86,2-.96,2.49,2.11,4.15.09l3.19-3.89c.61-.74.72-2.55,1.16-3.46l3.05-6.39c.41-.87.36-1.72,1.03-2.74l4.22-6.43,4.62-6.88,1.02-.96c1.87-1.77,3.02-3.62,4.88-5.37l.92-.87c7.55-7.09,15.41-12.74,24.7-16.39l1.33-.87,1.14-.61c.72-.39,1.36-.23,2.04.11l1.19.58c1.42.69,1.75,1.38,1.36,3.09.36,0,1.16.48.82,1.33-1.1,2.11-1.41,4.44-3.35,4.9l-1.86.44c-.41.1-.75.37-1.05.7l-.95,1.07-1.07.9-1.07.96-.98,1.03-1.02.96-.99,1.06-.9,1.08-1.06.9-1.12.93-1.22.73-.88,1.14c-.2.26.03,1.46-1.1,2.85l-.92,1.14c-1.2,1.48-2.3,2.4-3.18,3.97-.48-.35-1.24-.12-1.29.56.11.8.7,1.37,1.65,1.53,1.2-2.74,3.3-4.41,5.9-5.96l3.07-1.84c2.13-1.28,3.76-2.3,6.2-3.35l2.98-1.28c3.47-.79,6.77-3.49,9.87-3.22,2.07.18,3.04,1.49,3.85,3.16.63,1.31.43,1.54-.12,2.75-.16,2.36-2.15,2.61-3.77,3.76l-2.89,2.04c-2.21,1.56-3.64,2.13-5.3,3.99l-1.73,1.93c-2.63,2.94-5.04,4.86-7.02,8.34-.69,1.21-1.37,3.2-3.16,3.79-.42.14-.19,1.44-.07,1.71,2,.39,2.99-1.97,6.29-4.53l5.66-4.39c1.51-1.17,2.92-1.48,4.11-1.72,1.51-2.05,4.4-2.92,6.27-3.93l3.42-1.84,3.58-1.13,4.47-1.83c1.42-.58,3.24-.79,4.5-1.22l2.93-1,3.07-1.01,5.02-1.37,4.03-.6c2.07-.31,3.84-.99,5.72-.84,1.02.08,1.25-.04,2.26-.41,2.67-.73,5.3.01,8-.04l6.99-.12,11.02-1.02,16.04.84,9.02,1.21,8.99-.02,10.02-.15,2.47.73c2.89-.38,6.24.48,9.08,1.02l4.37.83c1.07.2,2.61,1.03,3.51,1.09l9.47.55,4.1-.28c2.3-.16,5.34.2,7.35.85l3.03.97c1.98.64,7.06.75,9.58,2.8l3.01.19c.21.01,4.02,1.3,6.21,3.63l1.04,1.1c.53.57.44,1.37-.09,1.92l-1.09,1.1-.91,1.12c-.3.37-.73.64-1.36.83-1.82-.9-2.15-2.11-2.82-.79-7.43.37-17.65-3.13-23.64-1.6-.73.19-1.83,1.28-3.33.83-2.35-.71-4.79.31-7,.4-.89.04-2.71-1.63-3.66-.09,1.99,1.97,4.75,1.27,5.91,3.02,1.6-.78,3.1-.04,4-1.4.22.21,1.34,1.36,2.02,1.22,1.71-.36,2.84.53,4.16.67l6.62.71c3.41.36,7.68.53,11.07.01,2.03-.31,4.8-1.89,6.16.52h6.94s2.24.83,2.24.83c3.9,1.46,8.57-2.63,12.6-.18l3.97.68c1.51.26,2.6,1.12,3.55,1.44l4.54,1.54,2.28.79c2.83,1.07,4.61,2.45,5.25,2.69l3.62,1.41,12.83,8.42c1.06.7,4.69-.64,5.78,3.65.49,1.92,5.03,2.85,7.46,5.48.85.19,2.39.14,3.77.75l7.04,3.1,2.86.88c1.26.38,4,1.7,6.36,2.76l1.89.85c2.12.95,3.74,1.04,5.83,1.41l5.3.93,1.9.78c1.68.69,1.82,2.47,3.17,3.38l2.82,1.91,3.44,3.27c-.65,1.39-2.03,2.67-3.44,3.87-1.85-2.26-3.68-2.93-5.97-3.95l-5.08-2.26c-1.84-.82-10.29,1.98-10.44,2.18-.17.22-.21.59.25.81l5.13,1.23,4.18,1.49,4.9,2.4,6.42,2.21c1.55.53,2.9,1.4,4.05,2.23.55.4,2.19.15,2.96,1.24,1.46,2.06,5.79,3.38,8.48,5.63l5.1,4.26c8.83,7.38,8.29,9.38,9.03,10.35l6.21,8.07c.95,1.23,1.71,1.61,2.4,2.59l2.51,3.52c1.06,1.49,2.15,3.31,2.55,4.85.14.85.21,1.11.62,2.17l1.58,4.13c1.05,2.75,5.64,4.4,4.2,6.94-.4.7-.96,2.77-1.84,2.6-2.4-.46-2.96-2.88-4.01-3.77-2.89-2.45-7.09-3.91-10.57-3.1-.8.96-.17,2.12,1.06,1.45,1.6.99,2.87,2.46,4.65,3.82l3.77,2.88,7.54,6.52c1.86,1.6,3.44,2.24,5.22,4.01l4.25,4.23c4.46,4.45,1.65,5.3,2.6,6.79s.75,3.5.11,5.46l-.68,2.09c-.36,1.1-.53,1.47-.38,2.73l1.03,1.04c.61.62.39,1.95-.08,2.85l-1.96,3.82c-.59,1.16-.06,2.37-.56,3.65l-2.05,5.26c-1.54.07-1.23,2.3.26,1.51l1.42-2.5c1-1.76,1.3-2.76,2.03-4.19l.69-1.35c1.21-2.38,2.68-7.61,2.68-9.15l-.03-6.84c0-1.84,1.76-2.63,2.73-1.12-1.07,2.91.96,4.49.76,6.81,1.21.66.98,2.55.94,3.49l3.49,4.01c1.67,1.92,2.31,7.31-.07,9.39l-.98,4.69-1.86,4.11c-.69,1.54-.82,2.8-1.75,3.39-.74.2-1.28,1.02-.68,1.69,3.48-2.03,6.67-3.05,8.47-6.1l2.24-3.8c.55-.93,2.27-.26,2.1,1.2,1.42-.78,3.06-.07,3.1,1.62.01.53-.98,1.57-2.11,1.79l-.64,9.03-.65,5.13-.78,3c-.61,2.37-1.32,4.68-2.38,7l-2.21,4.82c-1.24,2.7-2.16,5.01-4.93,6.56l-1.7,2.14c-.46-.11-.62.19-.42.52-.93.59-.44,1.66.59,1.42,2.49,1.95,3.57,4.74,4.6,7.65l1.85,5.26c.54,1.55.6,3,1.14,4.67l1.97,6.06,1.43,3.98.5,4.12c.8,6.65-.61,10.58.07,12,.75,1.56.62,3.16.61,4.69,0,.92.56,1.43.67,2.11l.63,4.11,1.86,5.41c.17.51.68,1.2,1.12,1.73.71.85-.04,1.67-.51,2.03.08,1.83,4.34,2.8,5.28,1.74.79-.89,3.74,1.31,2.89,3.17-1.18,2.56-4.77,3.86-7.22,4.81-.73,1.54.95,2.03,1.54.8l2.7-.4c1.82-.27,3.14-1.99,5.41-1.76.75.08,1.51-.57,2.2-1.11,1.67-1.06,3.1,1,1.63,2.13-2.75,4.88-7.32,3.58-8.83,7.63-.72-.62-1.26-.71-1.97-.42-.16-.03-.66-.4-1.18.06-.3.26-.56.68-.8,1.43.37.44.85.66,1.75.2.54-1.15,1.94-.39,3.09-1.68,1.5-.09,2.28-.25,3.28-1.66,3.71,1.64-1.92,7.21-7.48,11.64-.94,1.23.03,2.26,1.3,1.2,2.83-.86,5.58-1.71,8.03-3l4.04-2.12c1.19-.62,6.02-5.32,8.73-4.16-.4,1.77-6.08,5.42-6.58,6.21l-2.01,3.19c-.88,1.4-1.3,2.11-2.67,2.99,1.05,3.13-1.99,2.81-1.59,7.19.25,2.74-3.62,4.62-5.61,6.08l-1.27.94c-.52.38-1.07.41-1.58.4-1.38,1.23-3.37,1.34-5.55,1.1-1.06.24-1.47.66-1.46,1.42,4.02,4.14,3.88,7.45,4.56,11.08l.95,5.08c.43,2.29.87,4.95.63,6.99.9.28.96,1.04.98,1.7l.06,1.79c.03,1.05.71,1.65.75,2.09l.68,7.29c.23,2.41.17,4.18.71,6.58l.75,3.3c1.21,5.35.5,10.57-.5,15.89l-1.55,8.22c-.45,2.39-1.33,5.44-2.25,7.92l-1.41,3.79-2.68,5.32-1.52,2.55c-.9,1.51-1.86,4.35-2.78,6.04l-3.52,6.48c-1.85,3.41-.76,6.61-4.5,6.27-.55-.05-.32,2.12-.73,2.56l-4.94,5.32-3.13,3.79c-3.95,4.79-7.65,9.05-12.97,12.36l-1.37,1.36-2.8,1.26-5.17,2.97-4.71,2.23-4.87.42c-2.84.25-5,1.21-8.35.8-.32-.05-.96-.77-1.09-.7-1.15.15-1.85-.3-1.65-.04-1.28-1.7-.72,18.99-3.81,24.55-1.77,3.18.34,5.51-1.82,8.23-.33.42.36,3.23-1.21,8.58-.39,1.31-4.33,3.41-4.48,5.4-.39,5.43-4.69,9.42-4.07,10.82.7,1.6-.7,2.85-.94,3.68.62,8.76-5.26,7.67-6.09,10.08-.16.45-1.66,1.07-1.21,1.81s.61,1.08.04,1.92l-3.95,5.8c-.33.49.39,1.46-.18,2.89l-1.14,2.84c-1.38,3.44-6.94,1.75-5.68,5.81.7,2.27-1.68,3.27-1.89,4.31-.35,1.74-.9,3.16-1.77,4.75l-1.59,2.92c-.6,1.1-2.44,1.03-3.83.65-1.23,1.23-2.93.9-3.11,2.15.91.82.78,1.76-.02,2.63l-3.52,3.81c-.87.94-1.17,2.59-2.79,3.16-4.18,1.49-.83,7.4-6.23,6.97-.96,3.26-2.97,5.87-5.57,7.99-.51,5.27-4.06,4.06-6.37,5.11l-1.29.59c.74-.34-1.73,3.83-6.1,7.75-1.72.62.28,2.42-2.59,4.15-1.58.95-1.35,4.55-3.98,5.12-1.74.37-2.74.53-3.93,1.57l-4.25,3.73ZM977.07,195.36l-.5.5.5.5h1l.5-.5-.5-.5h-1ZM773.99,223.44l3.13-1.46,6.61-3.34c1.48-.75,2.4-2.37,3.15-3.92-5.23,1-9.76,5.7-14.3,7.9.27,1.28.73,1.26,1.4.82ZM758.6,238.62l2.68-2.7c-.53-.78-1.66-.81-2.23.32-1.36.04-2.18.6-1.9,2.33.14.86,1.08.94,1.45.06ZM757.31,240.85c-1.31-1.1-2.52-.39-3.07.49l-1.99,3.2c-.55.82-1.44,1.48-.74,3.02,2.46-1.7,3.1-4.6,5.8-6.71ZM734.72,263.46l-.5.5v1l.5.5.5-.5v-1l-.5-.5ZM734.72,276.2c.33-.95-.28-1.9-.47-2.66-.02-1.64.14-2.55-.56-3.72l-1.57,2.65c-.29.49-.53,1.74-.13,2.07.88.72,1.08,1.52,2.73,1.65ZM887.07,290.49c-.05-.62-.9-1.18-1.45-.6-.46.48.63,1.79,1.28,1.56l.17-.97ZM694.2,295.34c2.04.12,2.89-.83,3.58-1.18l2.83-1.41c.39-.2,1.22-.02,1.56-.78.25-.55.06-1.21-.5-1.48-.65-.31-1.29.27-1.71.67-1.4.36-2.02.51-1.99,2.45-1.82-.7-3.38.28-3.77,1.72ZM887.96,291.92l.32.39c-1.26,2.72,1.34,3.74,2.07,5,1.97,3.37,6.74,8.3,9.12,9.99l4.27,3.04,6.77,3.93,7.02,3.18,8.75,3.22c1.22.45,3.11.1,5.29.61s4.68,1.56,6.85,1.68l5.34.28c1.81.09,4.68-.96,6.41.51,1.55,1.32,3.03,1.13,4.92,0,1.69-.65,4.58.82,7.04-.99-1.7-2.45-3.97-.81-5.39-.46-3.04.75-5.49-.03-8.22-.45l-2.91-.45c-.98-.15-1.79-.59-3.18-.9l-3.92-.87-4.84-1.18-2.17-.84c-2.09-.81-3.64-1.24-6.13-2.1l-4.06-1.39-2.97-1.58c-.19-.1-2.58-.45-6.01-2.44l-9.74-5.66c-4.21-2.45-10.15-7.31-13.12-10.74l-1.53-1.76ZM691.52,297.76c.34-.29,1.3.02,1.65-.78.24-.54.06-1.27-.52-1.46-1.15-.38-4.04,2.09-3.3,4.13l2.17-1.9ZM686.65,299.51l-.5.5v1l.5.5.5-.5v-1l-.5-.5ZM880.13,304.74c-.22-.31-.6-.8-1.11-1.06-.39-.2-1.14.76-.61,1.36.43.49.85.69,1.52.48l.2-.77ZM832.86,304.52l-.5.5.5.5.5-.5-.5-.5ZM660.55,353.48c3.19-.82,2.58-3.42,3.13-4.94,1.93-5.36,4.86-11.53,7.67-15.58,1.28-1.84,1.76-4.63,3.91-6.31.49-.38.5-1.7.47-2.18l6.71-7.75,2.82-3.06c2.27-2.46,5.51-3.87,6.53-7.83-2.65.99-4,2.95-5.71,4.69l-3.93,4.02-10.87,13.37-2.25,4.33-3.97,7.26c-.48.87.11,2.74-1.55,3.45-.39,3.39-1.85,7.15-2.97,10.52ZM881.56,305.56l-1.11,1.1c1.17,2.05,3.16.04,1.11-1.1ZM822.79,314.64c.28-1.64-1.84-2.53-2.21-2.02-.81,1.14.72,2.62,1.88,2.53.5.73,1.16-.29.33-.51ZM823.85,317.54l-.5.5.5.5h1l.5-.5-.5-.5h-1ZM968.67,321.54c0-.62-.5-1.12-1.12-1.12s-1.12.5-1.12,1.12.5,1.12,1.12,1.12,1.12-.5,1.12-1.12ZM914.98,329.55l-.5.5.5.5.5-.5-.5-.5ZM918.46,331.38c-.19-.79-1.02-1.62-1.81-1.81-.84,1.43.38,2.65,1.81,1.81ZM920.99,331.56l-.5.5.5.5.5-.5-.5-.5ZM834.48,335.56c0-.62-.5-1.12-1.12-1.12s-1.12.5-1.12,1.12.5,1.12,1.12,1.12,1.12-.5,1.12-1.12ZM1189.71,337.15c.23-.59-1.41-1.58-2.71-1.03-.52.22-.17,1.83.58,1.84.53,0,1.59.57,2.13-.8ZM869.89,360.9l-3.92-1.9-11.13-6.87-11.49-8.63-5.99-5c-.41-.34-1.12-.17-1.53-.22-.08.92-.01,1.4.78,2.23l4.79,5,4.31,3.79,7.38,4.46,4.69,2.99,7.65,3.53,2.8,1.13c.9-.25,1.45-.14,1.69-.07l-.02-.46ZM863.03,340.61c-.66-.88-.77-1.77-1.12-2.03-.46-.35-1.31-.06-1.52.49-.18.47-.17,1.4,1.01,1.73.06,1.47,2.28,1.08,1.63-.19ZM921.13,359.35c-3.78,1.03-5.81-1.52-8.07-2.04-2.76-.64-4.73-.55-7.24-2.09-1.16-.71-3.52-1.33-4.88-1.75l-6.54-2.03-3.89-.5-7.16-2.46c-1.42-.49-3.81.09-5.06-2.09-3.86-.13-7.4-1.94-10.43-4.08-.65-.19-1.55-.32-1.86-.17,1.48,3.03,6.19,3.53,8.91,7,3.22.11,6.05,1.09,7.87,3.86,3.64.18,7.15,2.61,11.32,4.03,2.63.09,6.73.17,8.29,3.1,3.59-.58,6.09-.16,9.04.33l5.14.84,4.45-.45c-.41-.49-.37-1.06.11-1.51ZM670.52,365.38c-.51-2.9,2.6-6.29,2.68-6.75l.34-1.94c2.17-2.51,1.58-6.83,6.7-10.7-1.24-.66-1.99-.51-2.96-.31-.61,4.08-4.33,7.46-5.18,10.42-.58,2.03-1.79,3.2-2.28,4.92l-1.89,6.58c-.28.96.17,2.51-1.97,3.35l1.94,1.75c.43-4.22,2.7-6.89,2.62-7.31ZM800.07,348.85l-1.28-1.27c-.46-.46-1.73.04-1.56,1.07.2,1.22,1.85,1.29,2.54.89l.3-.69ZM800.81,349.56l-.49.52c.82.8,1.54,1.88,3.03,2.72.98-.05,1.13-1.1.18-1.37-.73-1.2-1.67-1.96-2.72-1.86ZM938.75,499.06c1.85-.76,3.74-1.72,6.24-1.97.18-.42.24-1.55-.69-2.54-2.27-2.42,2.37-5.44,2.77-6.5.18-.47.04-1.09-.18-1.17-1.6.25-1.54,1.34-1.95,1.92l-4.73,6.73c-2.05,2.91-6.62,4.38-7.55,2.2-.87-2.05.73-3.5,1.65-5.09l2.57-4.44c4.13-7.15,18.67-18.8,21.07-12.46-2.47,1.86-4.8,3.28-5.48,5.89,3.32-1.82,5.48-4.65,9.94-7.07l4.59-2.49,3.61-1.34,3.04-.97c2.2-.7,4.81-1.03,6.58.24.42.3,1.42-.13,2.45-.33l3.88-.76c4.7-.92,9.32-2.35,15.1-2.14.65.33,1.71,1.89,2.49,1.61,1.91-.71,3.5-.07,5.62-.49l4.98-.99c2.35-.47,4.43-1.02,6.71-.96,3.15.08,6.43-1.27,10.07-.06,1.72.57,3.98,1.04,3.69,4.06,2.4.43,5.64.13,8.28,1.82l3.32,2.12c.91.58.08,2.12-.63,2l-1.86-.33-4.38-.08c.19,1.83.95,1.95,1.64,1.96l7.21.12c2.55.04,5.18,1.28,8.25,2.28.34,1.32-1.8,2.36-2.8,1.71-4.21-2.75-6.86.04-9.04-1.12-1.29-.69-3.75,1.47-5.86-1.33-1.57,1.65-4.16,1.23-5.65,1.61l-4.15,1.06-8.8,1.68c-.36.07-1.22-.18-1.6.38-.17.25-.23.69.29.67l9.9-.41c1.42-.06,2.84.83,4.54-.27,1.6-1.03,4.65.88,5.98.16.92-.5,2.52-.48,3.76-.19,6.47,1.55,12.55-.94,17.14-.04l5.01.98,10.81.35c2.16.07,3.5-.4,5.63-.21l11.4,1.04c.82.08,1.79.82,2.59.27,1.82-1.27,5.53,1.01,8.69-.15,1.66-.61,3.09-.2,4.9-.14l8.21.28c.24.77,1.3,1.47,1.53,1.06,1.37-2.36,3.01-1.06,2.82-3.35-.41-.07-1.47.05-2.69.33-.22-.26-.76-.81-1.33-.76l-1.78.15c-.24-1.14-.93-1.41-1.75-1.03l-1.78.02c-1.96.02-4.14-1.42-5.95-3.06l-6.32-5.73-4.14-4.75c-1.49-1.7-2.76-3.01-3.53-4.92-.58-1.43-3.83-3.13-3.65-5.38.06-.72.77-2.75-.86-2.67l-4.85.23c-3.75.18-7.14.26-10.91-.49l-4.96-1-3.12-.99-3.01-.97c-2.46-.8-4.31-1.64-6.56-2.44l-2.24-.8-10.36-5.51-10.36-6.74-10.69-8.21-5.95-5.22-14.8-14.36c-1.59-1.55-3.56-3.65-5.54-4.07l-8.47-1.84-13.19-2.23-7.13-1-9.44-.78-11.3-.98-10.14-.94-12.95-1.07-7.28-1.31-3.75-.69-6.83-1.15c-.94-.16-2.17-.95-3.1-.99-5.1-.22-9.39-2.05-14.38-3.29l-4.92-1.22c-2.56-.63-5.2-1.53-7.63-2.46l-6.24-2.38-5.99-2.2-9.51-3.74-6.66-3.19-10.79-5.58-4.97-.94c-2.15-.41-4.47-2.18-6.26-1.02l-3.14,2.05c-2.18,1.42-4.82.27-6.8-.53l-10.94-4.4-5.6-2.03-7.46-2.7-5.73-1.45c2.6,2.03,5.46,2.8,7.92,4.74l3.29,2.58c1.48.3,2.91.67,3.08,2.39.16,1.61-2.73,3.97-3.11,3.83l-2.12-.78c-1.7-.62-4.88-.74-7.3-1.29l-5.02-1.15-3.56-1.45c-3.81-1.55-9.47-3.21-11.64-5.31-.54-.52-1.55-1.05-2.27-1.09-.33-.02-.88,0-.83.73-.98.6-.59,1.93.74,1.48l2.92,3.54c.99,1.21-.86,2.88-2.27,3.41,1.68.52,2.88.4,5.08.49,1.49.06,3.32,3.35,1.86,7.33-2.94-.46-4.69.86-6.98,1.95l-4.32,2.05-8.88,5.41c-.39.24.01,1.24-.4,1.88l4.93-2.29c1.2-.56,3.23-1.33,4.64-.9.91.28,2.51,1.25,2.73,2.9.42,3.04-3.29,4.03-5.27,5.48l-3.34,2.43-5.18,4.88c-.62.58-1.39,1.06-1.68,1.86l2.68-.84,2.07-.84c1.57-.64,3.01-1.14,4.33-.51.88.42,2.34,1.68,2.18,3.24-.17,1.7-1.02,2.42-1.99,2.81-1.57.63-4.13,3.02-6.56,5.37l-4.6,4.45-2.7,3.33c-.28.35-.33,1.22-.33,1.84l4.68-2.85c1.66-1.01,4.13-.98,5.65.07,1.39.96,1.4,1.93,1.12,2.82-.76,2.47-2.2,2.86-3.83,4.31l-6.92,6.14-5.04,6.06c-2.23,2.68-3.04,6.02-5.69,8.37-.67.59-.62,2.47-1.25,3.47-1.48,2.36-3.3,4.13-2.72,6.92l5.46-8.15c.98-1.47,3.63-2.1,4.83-.99,1.29,1.19.86,2.01.42,3.33l-2,6.01c-.55,1.65-1.56,3.13-2.29,4.82l-1.98,4.6c-.54,1.26-.58,2.47-1.69,3.83-.72,1.31.8,1.99,1.34.42,1.04-1.91,2.15-3.9,4.51-4.42,1.54-.34,2.35,1.16,2.7,2.17.39,1.16.06,1.28-.57,2.72l-3.5,8.05c-.72,1.65-.58,3.18-1.23,5.29l-2.55,8.35c-.77,2.53-1.71,5.14-2.08,7.61l-1.42,9.49c-.42,2.77,1.86,6.03.19,9.73l5.58-1.58,7.69-2.17,3.53-1.66,10.8-2.18c4.68-.94,8.37-.9,8.86-1.6.33-.47.05-1.31-.5-1.49-1.06-.35-1.62,1.3-4.42,1.47l-9.05.55c-3.43.21-7.59,4.29-9.43,1.8s2.46-3.79,5.97-6.96c-.97-2.99,1.75-6.22,5.24-7.78-.12-2.26.47-4.22,1.71-5.17,1.64-1.26,3.16-1.22,5.53-1.36l3.18-.2c.52-2.64,5.2-4.28,7.52-4.15l7.32.41c1.31.47,2.05-.29,1.91-1.62,4.88-2.42,11.88-1.96,17.29-.81,2,.43,3.78.07,6.21,1.84.04-.46.23-1.53-.78-2.54,1.17-1.59,3.28-1.07,5.27-1.2,7.56-.52,14.85,1.01,21.64,6.27.16-.47.03-1.64-.74-2.75-.88-1.27.55-2.6,1.74-2.41.76.12,1.41.2,2.08.92s1.93.68,2.55.97c5.99,2.85,9.45,7.34,13.48,12.2.58.61,1.36.02.42-.47-1.55-5.4-5.4-9.03-2.61-9.13.44-.02,1,.46,1.33,1.38,3.16,2.07,4.95,5.91,6.16,9.08l1.02,2.71c.42,1.12,1.18,3.07.23,4.13-.34.4-2.02-.93-3.11-.77-.47.82.4,2.68,1.56,2.84,1.5.2,2.75.43,4.23,1.01l8.59,3.34,5.86,3.29c2.09,1.17,4.64.56,6.9.3l9.86-1.15,8.14-.91c3.88-.44,7.93-.71,11.63.17,9.76,2.33,12.66-7.82,17.29-9.42l2.2-.76,5.14-2.84,4.93-2.03ZM871.02,361.56l-.12,1.05c1.35.8,2.05-1.36.12-1.05ZM822.84,363.6l-.5.5.5.5.5-.5-.5-.5ZM933.81,368.73l4.76-.18c-.16-1.17-1.27-1.11-1.72-1.02-.74-1.38-2.01-1.13-2.6-.06l-6.77.44c0,.19.14.57.53.73.79-.08,2.34-.26,3.18.19.83,1.08,1.84,1.13,2.63-.1ZM680.8,382.72c1.64,1.65,3.3-1.62,2.98-6.12-.08-1.04,2.57-3.13,2.8-7.22-3.75-.81-2.78,7.41-5.78,13.35ZM892.95,370.61l-.5.5.5.5.5-.5-.5-.5ZM900.54,372.05c-1.1-.69-2.7-.67-4.1-.22.42.89,1.12,1.48,1.63,1.75.71.39,2.64.52,2.48-1.53ZM943.49,374.57c-1.87-.84-2.47,1.55-.21,1.2,1.1.3,1.49-1.07.21-1.2ZM945.57,374.75c-.5,1.49.47,2.23,1.85,1.89l4.15-.17c-.96-2.27-2.81-2.03-6-1.72ZM1010.12,378.89l5.54-.58c-.03-.21-.19-.49-.54-.66-1.34-.03-2.66.47-4.68.4l-2.76-.1c-3.36-.12-5.98-.9-9.09-1.01l-11.93-.41c-2.93-.1-5.17-.56-8.17-.64l-7.01-.19-2.41-1.22c-.4-.2-1.73,0-1.5,1.29.27,1.49,2.83.76,3.76.92l5.12.92c.63.11,2.46,1.12,3.15,1.11,2.75-.01,6.44.11,10.07.56l4.29.53,10.46-.02h3.29s2.42-.91,2.42-.91ZM675.1,382.5c-.05-1.18-1.85-1.5-2.2.12.17.81,1.3,1.38,2.2-.12ZM976.99,389.66c-.78-2.05-2.27-1.19-2.75-1.32l-4.73-1.33-4.94-.87c-2.17-.38-3.78-.51-5.94-.69l-5.08-.42-6.01-.81c-.7,2.54,1.42,1.16,4.8,2.7,2.4-.06,4.62-.54,7.15.84,1.15.63,3.54-.57,5.09-.02l3.27,1.16c.3.11,5.94,1.02,9.15.77ZM673.78,386.48c.23-1.27-.22-1.65-1.53-1.37.25,3.15-2.4,4.96-1.49,9.18,3.19.04.2-6.37,3.03-7.81ZM988,392.05c-1.6-.76-2.15-1.07-3.82-1.16-1.46-.57-1.81.86-.18.87,1.29,1.17,2.09,1.43,3.6,1.31,1.01.59,1.44-.84.4-1.02ZM670.62,396.65l-.5.5v1l.5.5.5-.5v-1l-.5-.5ZM694.45,400.24c1.83-.27,2.24-2.14,1.56-3.51-1.71,1.76-2.33,3.63-1.56,3.51ZM677.54,405.64c1.27-2.28.51-3.46-.02-4.1-.79,1.87-.54,3.05.02,4.1ZM694.27,407.9c1.04-.39,1.08-1.24.89-1.73-.21-.55-1.02-.83-1.51-.5-.42.28-.81,1.02-.48,2.1-.18.94.99,1.12,1.09.13ZM678.06,413.65l-.08-7.11c-2.05,1.09-2.23,2.83-1.74,5.22-.53,1.3.26,2.46,1.82,1.89ZM1023.37,420.49c-.11-.64-2.03-1.16-2.58-1.88-2.71-3.59-4.96-7.21-9.95-7.7l7.68,6.99c1.71,1.55,3.33,3.05,4.54,3.69l.31-1.1ZM677.63,415.68l-.5.5.5.5.5-.5-.5-.5ZM677.63,417.68l-.5.5v1l.5.5.5-.5v-1l-.5-.5ZM1024.27,421.9l-.12.74c.08.96,1.12,1.18,1.44.29l-1.32-1.04ZM1095.64,439.1c.53.04,1.28.19,1.62-.23.23-.29.1-1.1-.18-1.61l-7.47-.23-4.74-1.36-4.6-1.21c-2.38-.63-5.12-.68-7.4-1.83l-4.01-2.02-5.3-2.53c-1.79-.86-2.45-2.13-4.15-1.92-.17.75-.09,1.29.2,1.5l5.93,4.2,1.9,2.03,5.14,2.85c.82.46,2.19.43,3.14.17,3.89,3.2,8.26,2.87,9.89,3.96,1.97,1.32,4.54-2.17,10.02-1.77ZM1083.66,426.35c-.17,1.54,1.18,1.6,1.57,1.36.54-.33.74-.93.5-1.52-.19-.47-1.34-1.18-2.07.16ZM723.7,426.7l-.5.5.5.5.5-.5-.5-.5ZM1199.16,426.77c-1.07-.64-2.31.13-2.13.51.6,1.24,1.34,1.3,1.92.99.51-.27,1.19-.93.21-1.51ZM1199.33,431.18c.06-.89-.28-1.22-.95-1.28-1.28-.11-2.2,2.19-2.02,4.51,1.16-1.73,2.87-1.8,2.98-3.23ZM721.61,432.63c1.55-.52.44-2.5-.65-1.38-1.03.51-.68,1.88.65,1.38ZM674.63,432.7l-.5.5v1l.5.5.5-.5v-1l-.5-.5ZM1092.92,449.51c3.43-1.4,5.36.65,7.31.66.72-1.47-3.87-4.08-6.86-3.51l-5.6,1.07c-3.63.7-5.74.41-9.02-.03l-7.8-1.03-13.88-5.27-2.83-1.38c-1.32-.64-2.69-1.54-5.11-2.51-.09,1.88,1.56,2.3,3.3,3.23l2.85,1.51c2.54,1.35,5.16,2.89,8.04,3.69,1.57.44,2.91.83,3.69,2.27,1.57-.46,2.34-.03,3.79.44l4.11,1.33c1.61.52,2.91.57,4.5.91l4.03.85c.49.1,1.93.41,2.37.04,2.26-1.86,3.74.85,6.56.25-.44-.27-1.08-1.85.58-2.53ZM1194.39,437.71l-.5.5.5.5.5-.5-.5-.5ZM676.87,442.27c.2-2.19-.42-3-2.09-3.22.19,1.42.17,2.08-.21,3,.99.37,1.83.42,2.3.22ZM679.11,448.66c-.8-1.38-1.12-1.87-2.36-2.7.06.89.26,1.78-.08,3.16,1.02.45,1.8.42,2.44-.46ZM660.88,491.07c1.31.43,2.17.24,2.52.11-1.67-1.83-.53-3.38-.8-4.12-1.04-2.94-3.8-6.06-5.35-11.43l-2.03-7.01-1.08-6.95c-.31-1.98-.37-3.82-.13-6.21-.22-.08-1.56-.12-1.86.01.27,2.31-.73,4.44-.18,5.49,1.03,2,.94,4.97.81,7.18.56,5.5,3.54,8.79,2.8,12.26,1.43,1.44,1.81,2.95,2.55,4.95.52,1.38,3.01,2.72,2.76,5.73ZM1102.29,465.91c.22.74-.2.08.11-1.07-5.07-3.98-7.26-9.5-9.18-9.77-.54-.08-1.8.04-1.94.62-.33,1.37.57,1.59,1.35,1.92l7.52,6.81c.51.46.5,1.04,2.14,1.5ZM1210.41,474.77l-.5.5.5.5.5-.5-.5-.5ZM1033.68,477.43c.57-.53.4-1.55.16-1.6l-6.42.92c-.37.31-.36,1.57-.04,1.98l6.3-1.3ZM1011.9,485.09c.17-1.35-.03-1.91-.23-2.21-2.47.25-4.25.9-5.66,2.51l5.9-.3ZM809.36,487.67c-.22-1.71-1.74-1.7-2.62-1.12.32.5.36,1.17-.14,1.72,1.25.07,2.52-.15,2.76-.6ZM813.31,489.88c.33-1.08-.06-1.82-.48-2.1-.48-.33-1.29-.05-1.51.5-.19.48-.15,1.34.89,1.73.11.99,1.28.81,1.09-.13ZM787.26,489.65c-.06-1.18-1.84-1.5-2.2.12.17.81,1.3,1.38,2.2-.12ZM959.04,490.79l-.5.5v1l.5.5.5-.5v-1l-.5-.5ZM1128.91,493.79c0-.62-.5-1.12-1.12-1.12s-1.12.5-1.12,1.12.5,1.12,1.12,1.12,1.12-.5,1.12-1.12ZM953.03,493.79l-.5.5.5.5.5-.5-.5-.5ZM1107.16,495.16c1.68-.17,2.24.89,2.97,1.51,2.4.74,1.69-3.27-.36-1.21-2.12-1.32-4.61-1.67-6.65-.07-1.08.05-1.16,1.03-.54,1.86,1.15,1.56,2.32-1.86,4.58-2.09ZM1008.19,603.2l7.15-.09,4.32-.97,10.62-.99,3.32-.71c2.54-.54,5.01-.39,7.16-1.43,1.38-.67,2.4-.33,3.25.57,4.41-2.91,10.75-2.67,16.18-4.37l3.7-1.16c1.51-.47,3.17-1.24,4.79-1.55l2.14-.42,3.75-2.34c3.03-1.89,7.1-3.29,9.91-7.94l4.13-6.83,1.89-5.02,1.45-4.8,2.1-8.22.86-4.49,1.53-11.61.07-8.03c0-.89.67-1.15.77-1.44.03-.09-1.32-3.46-.33-6.25.39-1.11,0-2.22-.12-3.27l-.91-7.77.35-2.55c-2.46-4.03-3.2-10.22-7.74-11.73l-5.83-1.94-4.01-1.01-11.16-.54c-2.29-.11-4.12-.46-6.93-.55l-9.91-.31-7.98.02-13.06.05-13.02.75-9.62.21-2.37.97-7.75.24c-1.89.06-4.54.96-6.26,1.17l-8.04,1-3.04.93-5.96,1.06-6.66,1.76-4.42,1.17-3.62.87-3.45,1.06-3.48.85-3.44,1.35c-1.19.47-2.51.54-3.39.66-1.15,1.06-2.48,1.5-4.19,2.07-2.78.93-5.3,3.23-7.64,4.99-3.95,2.96-6.31,12.06-5.03,18.48l.54,2.73,1.54,5.39,1.96,5.72,4.97,12.17,4.45,9.72,1.99,4.02,2.86,4.93,1.4,2.63,4.79,7.42c3.38,5.24,8.93,9.67,14.69,10.68l3.4.6c1.43.25,2.5.8,3.71.86l5.89.3c5.61,2.1,18.88,1,27.73.89ZM1132.47,502.62c-1.31-.97-2.93-2.45-3.39-3.66-.09-.32.44-1.09-.24-1.74-.26-.26-1.23-.64-1.29.38l-.19,3.48c1.65.66,2.91,1.06,3.95,2.2.58.77,1.49.51,1.16-.66ZM846.27,506.32c1.21-.72-.77-3.15-1.4-3.14s-1.98,1.65-1.91,3.48c.63-.17,2.28.28,3.32-.34ZM1116.45,506.25c.96-.77,1.55-1.37,2.85-1.48,1.58-1.14-.39-3.05-1.52-1.49-.9,1.24-1.76,1.56-2.89,1.73-.75,1.07.3,2.25,1.56,1.24ZM834.3,504.46c-.17,1.54,1.18,1.6,1.57,1.36.54-.33.74-.93.5-1.52-.19-.47-1.34-1.18-2.07.16ZM1212.41,503.81l-.5.5.5.5h1l.5-.5-.5-.5h-1ZM1191,506.81c0-.62-.5-1.12-1.12-1.12s-1.12.5-1.12,1.12.5,1.12,1.12,1.12,1.12-.5,1.12-1.12ZM807.19,763.43l-1.22-5.36-.56-5.96c-.23-2.46-.82-3.99-.8-6.14l.02-2.03c.01-1.13-.06-2.36.02-4.26l.1-2.61c.06-1.4,1.93-1.29,2.17-.24-.04,1.07.69,1.33.84,2.52l.49,3.8,1.11,2.93c1.59,4.2,2.35,8.38,3.88,9.79,1.31.3,2.05-.8,1.25-1.87l.32-2.8c.36-3.13-.43-5.94.27-9.41,1.83-.64,2.63.71,2.77,2.28l.16,1.81c.09,1.03.17,1.37.54,2.36l1.6,4.28c1.01,2.69,1.74,4.92,2.28,7.64l1.11,5.55c2.44.32.76-1.57,1.84-3.64.43-.82,1.74-.88,2.15.02l.7,5.49,1.05,4.73c.21.95.35,1.76.67,2.82l.61,2c1.29,4.24.87,12.54,3.7,11.62,1.66-.54-.76-2.12-1.15-5.49-.54-4.6-1.58-8.67-2.21-14.01l-.45-3.78c-.16-1.37.59-2.57.09-3.87-.26-.68-1.02-1.82-.65-2.86.16-.45.51-1.12,1.75-1.61.56-.22,1.91,1.2,1.66,1.66-.81,1.13.28,1.46.45,2.48l.53,3.03,1.08,1.88c.81,1.4.56,2.61.82,3.6.31,1.2,2.09,3.46,1.8,5.05-.09.51,1.18,1.57,1.43,2.47l1.12,3.98c.38,1.34.73,2.36,1.03,4.21l.58,3.57c4.17,1.17-1.5-4.67.28-13.84.24-1.22-.04-3.87,1.89-4,1.07.14,2.39,2.09,2.45,2.91-.78.8-.97,1.32-.61,2.14-1.04.99.89,1.22,1.84,3.47l1.48,3.52c.28.68.08,1.44.02,1.81,2.1,2.52.91,5.32,3.25,6.83.48-.35.64-.9.49-1.63l-.37-1.7c-.04-.18-.73-.73-.56-1.48.99-4.45-1.55-5.73.67-7.57-2.02-2.06.16-3.63-.02-3.84l-1.06-1.31c-.8-.99.86-3.05,1.79-2.92,2.51.35,1.98,3.87,3.7,9.67l.93,3.14.98,4.01c.49,2.02,2.06,4.06,1.57,6.18,1.84,1.37.6,3,2.12,2.24-.85-1.97-.99-5.09,1.51-6.47,1.01-.56,3.3.94,3.34,1.83l.25,4.95,1.06,1.63-.02,1.66,4,5.24c.66.86,1.04,1.77,1.26,2.67l1.06,4.44c.53,1.56,1.96,1.29,1.57-.08-.56-1.57.57-2.17.72-2.74l.62-2.34c.35-1.3,1.83-1.78,2.52-1.77.41,0,1.74.64,1.89,1.7l.45,3.16c.16,1.16.59,2.55,1.1,3.78l1.26,3.01,1.46,5.47c-.11.99.88,1.39,1.35.89l-.54-2.44c-.22-1.01.73-1.77,1.5-1.52,1.26.4,1.77,1.78,1.63,3.56.08.22.65.66,1.82.78l-.56-4.84c-.22-1.92-.22-3.51.85-5.4.28-1.86,2.53-1.1,2.05.52-.19.83.28,1.33.98,1.47.79-.97,1.75-.83,2.51-.23s.9,1.28,1.27,2.67l1.6,5.91,3.73,10.3c.21.58.13,1.36,2.08,1.92-1.47.93-.48,2.55.77,1.38-1.49-1.7-1.05-4.09-1.5-6.35-.72-1.99-.71-3.39-.65-5.17l.23-7.03.81-4.24c.12-.6.52-2.4,1.53-2.44.58-.02,1.29.91,3.76,1.7-1.5-2.78,2.3-6.71,1.78-12.78l-1.68.13-1.5,3.88c-2.49.38-3.68-1.08-4.72-2.51-.73-1.01.2-2.96-.4-3.94l-1.69-2.77-.79-5.13c-.41-2.67-1.15-6.28.4-8.74,1.13-.36,2.85-.69,4.06-2.15.89-1.07,2.86-.02,3.41.68,2.3,2.91-.16,4.92,1.78,4.92.59-1.69,2.51-1.05,2.14.57l2.03.66c-1.43-2.26-.65-3.95,1.23-6.05,1.21-1.35,2.1-1.89,3.63-1.16,2.91,1.39,3.14,10.53,3.44,10.92,1.54,2.05.38-3.8,1.74-5.77l.89-1.28-.42-1.39c-.3-.98,1.9-2.27,3.09-3.23.95-.76,3.32-.24,3.7.94l1.3,4.1c1.68,5.29.53,10.31,1.27,11.09,2.32,2.43.1-3.7,1.65-9.98l1-4.04c.31-1.26,1.22-2.4,2.41-2.7,1.06-.27,2.78.13,3.8,2.02.63,1.17.16,3.6.27,5.14.72.21,2.74.06,3.02-.97l1.24-4.58c.49-1.83,2.15-3.33,4.14-3.12,2.86.29,2.12,3.6,3.32,5.07l-.1,9.27c.82,1.2,2.31-3.19,2.22-3.67-.5-2.44,1.12-4.71,1.95-7.02.72-1.99,1.73-4.96,4.55-4.3,3.29.77,3.88,4.3,2.72,8.94-.22.86.04,1.32,1.09,1.6.96.22,1.11-.88.49-1.19.94-2.72,1.37-4.84,3.44-5.73.58-3.61,1.21-5.92,3.87-6.54,1.02-.24,1.64-.04,2.45,1.09.49-.06,2.11-.11,2.57.96.17.39-.3.67,1.01,1.86-.84,1.15-.99,2.33-1.29,3.82l-.61,3c-.28,1.37-.64,2.46-1.11,3.35-.25,1.41-.6,2.03-1.06,2.59-.69.83-2.33,1.51-3.53.37-.7-.67-1.17-1.58-1.06-2.29.18-.83-.8-1.06-1.15-.24.02,2.32-.2,4-.83,6.21l-1.52,5.34c-.4.34-1.24.95-.78,1.94.88.27.99.82,1.09,1.18l1.26,4.73c2.09,7.87.19,12.5-1.54,10.52-.51-.58-.78-1-2.47-1.09l.79,6.17,1.32,5.14c.56,2.18,1.05,3.14,1.42,5.18l1.07,5.92.77,3.65c.35.94,1.13,1.23,1.64.95l-.43-2.47-.49-4.1-.11-1.97-.65-1.93-.02-5.81c0-2.08.95-4.03.96-6.13v-2.86s.09-1.85.09-1.85l.3-4.48c.08-1.17.11-2.03.94-2.64.51-.37,1.53-.41,2.04-.1.58.35,1.1,1.73,1.09,2.78l-.09,10.03.67,8.57c1.32.13,1.56-.6,1.09-1.5.15-3.68-.97-5.59,1.34-5.99.79.48,1.31,1.32,1.37,2.04l.88,10.01.99,7.05.49,5.2c1.28.33,1.92.13,2.33-.31.5-.54-.34-2.4-.34-3.02l-.03-6.62-1.17-2.33c.27-3.7-.35-6.63-.66-10.13l-.38-4.29.05-4.72c.01-1.45,1.04-2.83,2.19-2.95,2.21-.24,1.16,4.84,3.91,5.96l-.7,1.54,1.01,1.4c.77,1.06.23,2.74.87,4.06l.74,1.52c.83,1.69.12-1.45.32-3.56.28-3.02-1.29-5.14,1.54-5.12.18,1.06-.13,2.42,1.39,3.48-.84,1.05.35,2.04,1.02.99l-.23-5.33c-.02-.46-.11-.88.27-1.75-.19.01-1.03-.41-.71-1.2.62-1.12.87-2.1,1.82-2.42-1.55-2.21-1.91-3.65-.23-5.26,1.18-1.14,1.93-.48,2.47.14,1.06,1.2.41,2.8,1.11,5.63l1.99,8.02c-.93.89-.4,1.98.48,1.95l-.19-2.21.71-3.85.4-2.16c.24-1.34-.31-2.21.42-4.73,2.11.64,2,1.66,2.11,3.06l.89,11.51c.1.97-.34,1.08-.28,1.34l.3,1.2c.18.74.16,1.3.66,1.45.11.03.56-.07,1-.36l-.19-9.88-.04-2.86.11-5.58c.02-.78.26-1.1-.76-2.06-.05-.6.61-1.25.79-1.44.37-4.98-1.07-8.89,2.04-9.49,2.55-.5,1.96,4.05,3.49,8.71.96.61,1.58-.03,1.61-.59.03-.93-.15-1.28-.59-2.12-.71-1.35.22-2.24.85-2.68.91-.64,1.56-.13,2.02.32,1.33,1.28-.27,4.81,2.74,3.74l-.44-2.72-.4-3.64-.21-3.92c-.09-1.63.68-1.86.85-2.34.4-1.19-1.4-5.56.78-6.77,2.02-1.12,2.74,1.66,2.93,2.81l.73,4.63c.16,1.02,1.27,4.22,1.15,4.12.27.23,1.33.37,1.69.02l-.8-6.62-.53-5.98c-.1-1.14.56-2.64,2.06-2.68l3.25,1.62-.33-6.26c-.03-.52-1.16-1.53-.02-2.65.18-.17,0-.71.34-2.03-.4-.2-1.25-.91-.59-1.99,1.16-1.88-.36-11.87,2.63-11.93,1.45-.03,2.22,2.51,2.67,5.84l.84,6.23.94,7.84c.26,2.2.73,3.84.5,6s1.94,4.92,1.08,10.32c2.23,1.22,2.21-.78,1.49-4.72-.83-4.49-.52-9.65-.09-14.26l.49-5.3c.19-2.03-.34-3.97.18-6.24.32-1.39,1.72-2.71.93-4.9-.31-.87.63-1.85,1.02-2l-.33-2.02c-1.49-1.6-.66-3.91,1.23-4.98.32-.18,1.7.03,1.84,1.11l1.01,8.08c.55,4.36-.29,6.18,1.13,6.44.31.06.99-.12,1.06-.43.07-.29-.03-.99-.25-1.77l-.61-2.21c-.4-1.47.38-2.25.49-3.08.17-1.27-.19-4.26,1.61-4.75,2.1,1.24,2.28,3.47,1.74,5.32,1.48,1.7-.22,4.16,1.13,5.06.34.23,1.4-.01,1.37-.42l-.82-9.26c-.15-1.66,1.28-2.44,2.46-2.59l-.05-8.47c0-1.55-.18-2.51,1.2-3.65-.87-.53-1.3-1.28-1.14-1.83l.59-1.93c.57-1.89-1.75-4.93,1.82-7.64,3.14,1.03.75,4.42,2.27,6.03-.09-.1,1.77,6.56,1.55,7.33l-.35,1.23c-.09.3.79.82.87,1.47l.65,5.24c.54,4.35.8,8.93,2.33,13.35.49.94-.02-.59.22-1.52l-.23-14.65c0-.49-.33-.96-.52-1.26.93-1.94-.14-3.32.18-5.27l.35-2.19c.73-4.5-.69-6.91,1.27-8.21-2.58-3.99-1.22-11.37-2.61-13.56-1.14-1.81.31-4.16,1.57-3.85,2.34.58,2.15,3.51,2.44,4.7l1.03,4.21c.43,1.77.4,3.24.69,4.47l1.12,4.71,1.35,6.98c.36,1.87-.69,3.95,1.74,5.01l-.35-7.23c-.16-3.34-1.83-6.34-.59-10.44.37-.46,2.24.16,2.45.46.24-.95-.58-1.58-.67-1.88l-.15-6.14c-.03-1.42.3-2.62-.51-4.16-.88-1.67.19-3.99.12-5.34l-.4-7.24c-.07-1.3.9-2.5.27-3.47-1.21-1.85-.51-5.47,2.06-6.02,1.32-.28,2.45,3.4,1.32,4.81,1.52,2.51,2.63,6.39,2.27,7.33-.3.79.57,1.22.72,2.36l.49,3.67c1.46,3.48,1.61,6.53,2.02,9.13l1.27,8.07c.23,1.46.71,2.37-.33,3.81,1.76.9,2.49-.57,1.64-1.77-.35-1.06-.43-1.82-.38-2.97l.28-7.11c.82-.74.99-1.21.92-2.23l-.28-4.05c-.6-8.85.36-14.07.25-17.98l-.14-4.78c-.04-1.26-.38-1.89.36-2.59-1.24-.77-.83-2.24-.31-3.32.42-.86-1.08-2.45,1.02-4.68,3.84,2.38,1.95,5.52,2.76,6.47,1.62,1.91,2.14,6.32,2.79,10.15,1.67,2.1,1.01,4.4,1.74,7.01l1.29,4.56c.2.69-.07,2.43.18,3.46l.71,2.82c-.59,5.37,1.69,10.81,1.31,16.2-.3,1.01.19,1.88,1.49,1.37l-.27-8.6c-.02-.48-.05-.9.28-1.44l-1.97-15.45-.69-13.11c-.07-1.37.49-2.62,2.4-2.37.26-1.06.05-2.29-.16-3.75l-1.26-8.84-.61-5.1c-.14-1.15.74-1.98,1.3-1.76.49.18.75,1.1,1.07,1.81l.86,1.9c.56,1.24.26,2.11.58,3.19l1.23,4.1.76,4.09,1.37,5.91c.15.63-.04,1.51,2.03,1.63-1.09-1.8-1.51-3.65-1.15-5.98l.19-1.26-.32-1.27c-.37-1.45,1.74-2.04,2.38-1.59.51.36.91,2.84,1.48,5.73-.84,1.82,1.81,1.87.9,0-.25-2.42-.03-4.5-1.03-6.3-1.59-2.86.43-6.52-.85-9.13-.73-1.49-.64-2.87,1.27-4.46,2.2.65,3.19,4.58,4.52,9.69l1.51,5.78c-.29.81.66,1.29,1.22.77l-.05-11.21c1.55-.62,3.09-.12,3.96.05.63-4.34-2.15-7.5-.28-10.44.41-.64-.25-1.97-.27-2.54l-.36-7.61c-.06-1.3.96-2.14,1.93-1.82.57.19,1.09.75,1.39,1.91l1.26,4.96,2.06,7.08.71,3.19,1.07,6.95c.7,1.12.7.22,1.59-1.82l-2.41-14.56c-.31-1.86-.83-3.87-.42-5.85.54-.85.74-1.25.79-2.2l.21-4.85.57-4.33c.52-.38,1.65.21,1.89.84.3.82-.12,1.34.23,2.64l1.01,3.66c.61,1.35,1.96.68,1.25-.57l.07-3.25c.05-2.3-.67-4,.83-5.57-1.09-1.56-1.34-3.88.3-5.61.92-.97,1.9-2.08,3.33-2.37l2.16,1.96c1.6-.4,2.49,1.01,2.42,1.97l-.12,1.76c1.14,1.22.71,2.67.82,3.73l.53,5.16c.19,1.89.91,3.02.63,5.05.11.26.75.45,1.37.32l5,.19c3.71.14,10.37-1.45,11.51-2.25l5.44-3.81,6.75-5.67,4.3-4.96,4.98-6,4.69-7.02,4.48-7.12,1.21-3.36,1.28-2.53,2.38-4.85c1.4-2.86,2.17-5.26,2.96-7.85l1.27-4.19.75-4.04,1.18-3.98.86-7.02c.12-.96.67-1.19.2-2.06.61-.3.56-1.22-.39-1.22l-.64-5.87-1.18-8.88-.87-5.02-.99-4.1c-.46-1.89-.34-4.93-.93-6.52l-1.22-3.3-.97-4.13-1.01-3.96c-3.64-8.54-13.32-13.4-20.02-12.07l-4.92.98-6.57,2.71c-4.01,1.66-5.81,4.79-8.18,2.63-1.42,1.81-3.55,1.9-4.84.47-1.12-1.24-1.1-3.2.74-4.59.66-.5,1.29-.61,1.39-2.48-4.58,2.34-8.47-.47-14.07-2.85-.16.52.07,1.3.53,1.64,4.01,2.96,6.77,7.01,8.89,11.3-1.47,1.49-2.78,2.41-3.69,2.62l-2.16-1.2c-1.95-1.08-2.45-2.65-3.15-3.69-3-.66-5.17-3.21-6.99-5.58-1.23-1.62-3.85-2.5-4.46-4.78-.49-1.81-5.09-5.2-7.77-4.43-.38-1.11-1.71-.9-1.52.38,2.17,1.79,4.41,3.92,6.48,6.07l2.37,2.47,4.08,4.18,5.75,6.35,1.72,2.1c.91,1.11.94,1.7,2.82,2.91l.64,1.77c2.87,2.58,2.39,7.98.66,8.93-1.74.96-4.67.94-6.81.28-2.27-.7-3.44-3.44-4.92-5.03l-3.93-4.22-3-3.91c-2.03-2.64-4.39-4.01-6.24-7.01-1.22-1.97-3.74-3.39-4.29-5.88-.15-.68-5.96-4.92-2.01-9.51-.52-2.62-1.73.48-5.4.12-1.16-.35-1.41.29-1.63,1.4l-.79,4.17c-.51,2.68.22,5.13-.53,7.69-.62,2.13-.2,3.88-.41,5.82l-.22,1.98-.36,7.24-.59,2.56-.02,1.89-1.76,11.42-.45,2.15c-.81,3.85-1.58,8.47-2.64,11.01l-1.76,4.24-1.38,4.36-2.78,6.26-3.74,5.2c-3.45,4.8-8.75,7.97-14.08,10.58-4.06,1.98-7.62,4.53-12.36,5.27l-4.53.71-8.39,2.36-5.04,1.04-6.07.81-9.83,1.65-7.02.91-11.94.8-8.21.81c-2.07.2-3.46.38-5.33-.23s-3.75.59-5.63.35l-4.89-.63-10.93-.5-9.02-.99c-3.74-.41-7.13-1.84-10.63-3.07-6.22-2.19-9.61-5.01-13.8-9.8l-3.17-3.63-4.93-7.12-6.31-9.72-2.23-4.8-3.22-6.75-1.62-3.64-4.69-11.35-2.63-6.18c-.99-2.33-2.08-4.29-2.73-6.3l-1.16-3.61c-.53-1.63-3.01-3.11-4.39-3.4l-6.65-1.38c-2.03-.42-3.5,0-5.28.41l-8.08,1.88c-4.9,1.14-6.39,6.84-4.61,12.58,1.36,4.4,0,10.68-1.15,16.89l-1.1,5.91c-.58,3.11-1.58,5.77-1.47,9.06l-1.61,2.95c-.65,1.2-.36,3.07-.87,5.14l-.99,4.01c-.36,1.46-.48,4.15-1.88,5.95-.54.69-.22,2.73-.63,4.06l-1.52,5-1.2,3.38c-.48,1.34-.46,3.49-1.9,7.93l-1.91,5.91c-.52,1.62-.48,3.3-.96,4.74l-1,3c-.85,2.53-1.91,4.84-2.2,5.96l-.58,2.17c-.31,1.15-1.19,2.56-1.36,3.47-2.12,11.3,9.55,14.52,10.74,15.95.37.45,1.81.68,2.59,1.08l2.84,1.47,4.16,1.54,9.05,5.09,5.34,3.83,3.63,3.53c1.22,1.19,3.96,1.26,5.86,1.92,5.26,1.83,15.74-.45,18.96-5.09l2.02-2.91c4.4-6.35,9.52-11.06,16.06-15.07l3.13-1.92,3.05-1.97,5.37-2.68c2.83-1.42,6.16-3.16,9.4-1.27,2.45,4.34.47,8.91-4.1,10.97l-4.01,1.81-3.95,2.22-4.04,2.85-5.11,4.1c-.94.76-3.17,1.29-3.57,3.29-.33,1.62,2.71-1.15,4.38-1.12,2.51.04,3,3.49,5.2,2.37-2.12-1.37-.8-3.45.45-3.5,3.67-.14,4.63,4.92,6.74,4.39l-1.36-4.43c-.52-1.71,1.88-3.11,3.4-2.13l3.19,2.05c2.72,1.75,4.91,2.71,7.25,4.62l3.13,2.56c.3-1.21-.46-1.27-.62-1.47l-5.5-6.72c-.87-1.06,1.4-4.19,2.72-3.23l4.92,3.58c.7.51,2.67-.31,3.87.76l9.62,8.59c.8.57,1.31.11.97-.55l-7.3-8.38c-.45-.51,1.55-1.76,2.35-.99.33.33.9.34,1.54,1.75l2.63.67c-.69,1.22.77,1.99,1.09.71-3.04-3.18-5.61-4.96-4.85-6.73.51-1.18,1.93-1.85,2.64-1.75-.18-.03,4.9,2.79,6.3,3.83l3.32,2.46c3.69,2.73,6.39,5.91,9.61,9.15.31-.68.19-1.57-.28-2.23l-4.76-6.65c-.54-.75,1.81-2.2,2.75-1.3.37.35.96.3,1.47,2.01.8-.62,2.37-.23,2.68.82l.39,1.34c2.08,1.41,2.83,3.46,3.87,5.03,2.56.23,1.09,2.78,3.62,3.08.09.58.13,1.54,1.1,2.23,1.82-1.63-1.35-2.28-3.11-5.61-1.15-2.19-2.87-4.31-4.63-5.92-2.26-1.13-4.45-4.98-4.37-5.57.08-.56,1.16-1.79,1.83-1.83,2.89.28,5.12,2.48,7.31,4.2l2.27,1.78c5.12,2.83,8.47,6.82,11.4,11.52,1.1.28,1.41-.17,1.12-.62l-4.02-7.07c1.09-1.53,2.05-2.63,3.1-2.4.48.1.94.64,1.77,1.33l2.65,2.22,5.27,4.87c5.12,4.74,7.66,10.55,8.11,17.04l.42,6.11c.16,2.29-.11,4.83-2.23,4.89-1.34.03-2.46-1.61-2.16-2.39.18-.45,1.14-.86,1.47-1.04-1.08-1.06-1.34-2.59-1.55-3.46l-.98-4.14-3.26-8.03c-.15-.37-1.1-.66-1.44-.54.57,3.29,1.6,7.42,3.07,9.18,1.01,1.21.49,1.98.89,3.46l1.32,4.89.08,18.19c.01,2.39-.92-4.67-3.33-4.36.27,2.07.16,4.07-.51,6.26l-2.1-1.2c-.4,1.3-2.01,3.34-3.48,2.58-3.44-1.79-1.3-4.3-1.31-5.82l-.08-.38-1.02-7.09-.92-3.24-.87-5.2-2.04-2.82c-.71-.98-.59-2.06-2.03-2.46-.41,5.88-6.43,11.26-9.26,15.82l-1.84,2.96-5.73,5.3c-5.52,5.11-10.59,10.7-17.46,14.67l-7.77,4.49c-2.31,1.34-4.41,2.16-6.74,3.07l-8,3.15-6.91,2.19-4.51,1.12-10.22,1.86-9.04.98-6.83.25c-4.51.16-8.58.64-13.04.02l-9.83-1.35c-11.46-1.57-21.92-6.46-31.2-13.75l-5.11-4.02-9.62-8.35-3.87-4.14c-1.5-1.6-3.88-2.77-6.21-4.88-3.25-2.93,1.42-8.77,3.86-9.03l2.89-.31,24.67,2.73,4.42.38,3.94-.19,12.02.45,16.99.34c3.87.08,7.85-1.11,11.89-1.85l6.26-1.14,6.12-.93,12.88-2.62,5.15-1.42,5.82-1.1,10.38-2.87c5.03-1.39,10.22-2.51,11.91-3.11l2.93-1.05,3.92-.97,4.03-.92,4.2-1.13,7.37-1.41c.71-.14.89-.66.81-1.07-.1-.55-.73-.78-1.15-.75.11-.79-.45-1.51-1.4-.96-.12-.78-1.27-.51-.83.26-.06,1.47-1.62,1.79-2.52,1.55-3.06-.81-3.72-4.35-5.89-2.81-.43.3-1.4,1.11-2.09.91-1.47-.42-1.21-2.53-3.66-2.04.88,1.4,1.05,3.48,0,4.37-2.3,1.93-6.6-.46-7.76-2.02-.32-.43-1.84-.34-2.3-.09l-1.68.94c-.13,2.22-1.49,2.68-3.14,2.86-4.69.5-5.64-2.66-9.5-3.54l.56,2.26c.34,1.36-1.61,2.97-2.78,3.23-2.87.65-3.66-1.45-7.26-.92-2.22.33-2.59-1.56-3.22-2.19-2.54-2.58-.04,3.31-.41,3.95-1.36,2.38-7.71,2.21-11.94-3.07-.82.81-.34,2.11.31,3.7.61,1.5-1.55,2.86-3.09,2.75-3.93-.27-6.57-2.98-8.45-6.54-.6-1.54-1.74-.52-.61.47.73,1.55.86,2.8.85,4.3,0,1.13-2.06,2.28-3.05,2s-2.09-.54-3.13-1.59l-2.44-2.47-1.65-1.83-.18,2.91c-.09,1.54-1.69,3.65-3.17,4.47-.64.03-2.2-.81-2.98-1.96-1.1.28-2.1.32-2.65-.13-1.17-.94-.8-2.9-1.91-4.39-2.88,3.43-2.79,8.47-5.51,8.35-3.03-.13-4.89-3.22-3.39-6.22-.18-.49-1.46-.23-1.72.14-.22.32-.42.57-.46,1.66-2.1,2.62-2.45,5.16-5.02,5.58-2.13.35-4.07-.28-4.76-2.69,1.65-1.12.48-2.6-.91-1.45-.46,1.76-.95,2.64-2.18,3.37-1.38.82-3.74,1.35-4.53-.97-.16-.48-1.48-.36-1.83-.09-.52,1.67-1.97,1.89-3.16,2.54-1.61.87-3.03.38-3.66-.73-.27-.47-.38-1.02-.05-2.1-1.1-.1-2.18.39-2.84.55-.7-.62-2.06-.59-2.68-.25-.09,1.86-1.11,3.03-2.74,3.09-.67.02-2.72-1.04-3.1-.71-.6,1.05-.81,2.49-2.6,2.6-1.06.07-1.85,0-2.29-.43s-.63-1.54-.67-2.43c-.12-2.73-2.38,1.69-6.51,4.28-.64-.39-1.4-.72-2.08-.63-1.04-.6-2,.47-1.12,1.53l-1.95,2.83c-1.3,1.89-.7,6.01-1.99,9.06-.49,1.16.57,3.57-1.73,4.62,1.1.64,1.17,1.26,1.22,1.89.05.68-.27,1.31-.94,1.79l.99,1.77.64,5.84.99,4.06,1.31,3.21c1.97,4.85.52,2.59-1.43,4.19-.76.62-4.07,1.41-5.71-1.61l-.2-1.9c-3.52-6.49-3.31-9.56-4.49-10.38-1.11-.78-1.4-2.08-1.13-3.17-1.29,0-1.75.2-2.56,1.53l-2.93-3.57c-1.98-2.41-2.12-4.2-2.78-6.39l-.81-2.66-1.29-6.27c-1.03-5.02-.43-7.77.18-11.89l.72-4.86,1.51-2.3c.68-1.04,1.46-1.62,2.06-1.39,2.66,1,.12,7.29.14,9.65l.02,2.49c2.36.57,1.08-3.91,3.42-10.67l1.23-3.57c1.57-4.55,2.6-7.29,5.82-5.83l-.99,4.55c-.13.59-1.17,1.53-.88,3.14.05.26,1.22.29,1.52-.12-.92-1.8.64-2.55.9-3.12l2.45-5.2c.65-1.38.97-5.2,3.93-4.19.51.18,1.37,1.95,2.29,2.6.12.25-.97,1.72-1.28,2.6l-1.52,4.26-1.03,2.22c0,1.5,1.45,1.42,1.54.07,3.2-6.72,8.76-16,11.5-15.16,1.17.36,1.73,1.78,1.06,3.22.74-.44,1.49-.14,1.82.07.91-3.38,3.54-6.89,5.3-7.33,1.4-.35,2.88.16,3.28,1.77-1.08.83-.7,2.06.75,1.71.47-1.63,2.1-1.94,3.24-2.74,1.57-1.1,2.96-.52,3.55.43.29.47.06,1.56-.36,2.21,1.64.14,2.77-1.51,3.62-1.79,2.02.13,2.07,1.89,1.88,2.65-.21.88-.28,1.32-.97,2.24-.78.53-.15,1.31.41.64l1.8-1.8c.52-.53,2.16-3.42,1.1-3.91l-13.12-6.09-2.76-1.43c-3.71-1.92-6.8-3.88-9.21-7l-3.05-3.96c-2.9-3.75-4.97-10.87-3.71-15.15l2.07-7.06.82-4.97.94-3.85c.5-2.05,1.56-3.15,1.86-5.23l-5.04,2.92-5.81,2.37-8.81,2.37-9.27,2.31-5.02,1.02-6.98.99-7.13.93-13.87,1.51-13.05.46c-1.61.06-3.26.42-4.93.33l-17.09-.93c-.3-.11-1.11-.89-1.47-.75-.29.11-.74.41-1.18.32l-4.31-.88-4.94-.98-2.26-.53c-.37.94-.77,1.99-.58,2.48,1.72,4.62,1.07,8.88,1.65,13.18l1.08,7.98.85,7.1.98,5.23,1.55,9.38c.95-.23,2.38.44,2.48,1.58.04.43-.39.74.31,1.75l.28,3.74c.06.82,1.34,5.26,2.38,8.67l2.29,7.47c1.62,5.27,1.21,7.85,3.37,7.06l-.44-2.22c-.41-2.02-.66-4.48-.59-6.74l.13-4.02c.02-.59,1.1-2.34,1.68-3.23,3.15.65,1.23,3.98,2.67,7.65.23.58,1.43,1.12,1.48,2.69.13,3.51,1.29,6.44,2.28,10.73l1.15,4.97,2.25,6.31.8,3.14,2.51,6.89c-.07.13.57.35,1.68.35.05-.95.06-2.82-.7-3.82-1.19-1.56-.78-3.39-1.19-4.63-1.33-4.08.79-5.99.09-7.2s-1.16-3.29-.15-4.65c1.06-1.43-1.22-6.04,2.22-7.54.87-.38,2.26,1.91,1.46,3.13-.65,1,.38,1.75.45,2.1l.82,4.08,3.12,8.05c.64,1.65-.19,5.12.72,6.38,1.64,2.28,1.62,4.26,2.07,6.79l1.02,5.72c1.02.69,1.73.09,1.58-.94l-.44-3.11c-.32-2.27-.7-4.35-.53-6.91,3.8.66,1.09-3.03,2-8.83.09-.6.83-2.72,1.44-2.96,2.54-1.05,2.37,3.08,4.05,10.78l.91,4.17c.32,1.47,3.03,3.54,3.14,6.1.02.41-1.12,1.28-.26,2.06,2.12,1.9,1.54,5.15,2.12,7.25.32,1.17,2.62,1.99,1.58,4.8-.33.89-.02,2.86.39,3.9l1.16,2.98.94,2.84c.41,1.23.91,2.15,1.09,2.67,1.34.39,1.76-.23,1.54-1.25-.74-.68-1.32-1.4-1.72-3.13ZM1218.85,514.82c-.47-1.94-3.1-1.19-3.02-.05.12,1.92,3.35,1.41,3.02.05ZM787.34,624.65l14.87-.89,8.17-.81,6.01-.97,5.94-1.12,5.99-1.13,6.45-1.7c1.88-.49,5.4-1.12,6.56-1.92l2.08-1.43c5.05-.35,11.82-6.88,13.59-10.86l2.52-5.69,2.01-5.1,1.05-3.94,1.5-5.15,1.17-5.06,1.21-4.94,1.36-8.09.7-5.96c.65-5.54.61-10.16.97-10.98.84-1.92.33-4.07.03-6.16l-.86-5.96-1.08-3.13-1.1-3.77c-2.72-4.76-6.79-7.96-11.98-9.04l-7.1-1.47-7.91-.7-8.15-.72-3.43-.38-23.63.3-16.15.94-13.98,1.97-10.41,1.96-4.54,1.05-6.03.99-3.89,1.46-11.7,3.26c-2.56.71-4.53,1.76-6.22,2.44l-4.61,1.85c-1.31.52-2.68,1.65-4.52,1.96-2.37.4-8.23,7.3-8.2,11.99l.08,11.22.99,6.96,2.12,10.03,1.22,3.92c.58,1.87.75,2.6,1.5,4.36l2.39,5.64c.51,1.2.72,2.44.47,3.62,1.88,1.49,2.41,4.2,3.5,6.31l2.79,5.42,4.21,6.56c1.44,2.25,6.34,6.69,8.05,7.16,4.21,1.18,7.04,2.79,8.83,3.07l6.07.95,6.07.88,10.83,1.17c1.05.11,3.22.39,4.26-.03,2.58-1.04,5.47-.1,9.93-.36ZM709.68,526.84l-.5.5.5.5.5-.5-.5-.5ZM706.67,527.84l-.5.5.5.5.5-.5-.5-.5ZM688.82,535.62c2.17-2.77,4.31-2.12,6.23-2.72l4.17-1.29c1.06-.33,3.09-.2,4.02-1.03l1.53-1.37-11.69,1.97-2.99-.83c-1.72,2.4-2.99,3.13-2.6,7.05,1.19.24,1.56-.69,1.32-1.77ZM689.34,543.25c.38-.31.3-1.19.14-1.65-.23-.65-1.53-.97-1.96-.74.81,1.43.11,1.75.14,2.1.05.51.97.88,1.68.3ZM699.64,558.44c.43-6-3.25-7.95-9.64-9.05.46,2.17,4.4,4.48,8.11,6.61l1.53,2.44ZM934.63,677.06c0-.62-.5-1.12-1.12-1.12s-1.12.5-1.12,1.12.5,1.12,1.12,1.12,1.12-.5,1.12-1.12ZM959.24,680.03c1.13-2.58-.62-3.6-1.39-3.88-1.03,1.81.08,3.4,1.39,3.88ZM1124.77,680.7c.67.63,2.05.23.48-1.29l-.48,1.29ZM888.94,680.07l-.5.5.5.5.5-.5-.5-.5ZM996.12,682.48c-.1-1.49-1.17-1.39-1.68-1.01-.83.61-.9,1.15-.36,1.65s.97.46,1.62.36c.64.05.71-.45.42-1ZM1126.3,681.08l-.52.52c-.74.22-1.28,1.13-.16,1.71l.15,5.27c.2.38.56.52.66.53.61-3.56.63-7.39-.13-8.03ZM1121.87,687.25c.27-1.38-1.46-1.38-1.18,0-.61,2.05,1.79,2.05,1.18,0ZM1115.27,694.09l-.5.5.5.5.5-.5-.5-.5ZM1123.28,702.1l-.5.5.5.5.5-.5-.5-.5ZM885.89,735.7l3.66,2.46,4.4,2.34,9.5,3.3,2.85.54,6.05.99c3.16.52,6.67,1.45,10.25,1.1l12.03-1.15,8.88-1.04,7.08-1.58,9.05-2.43c8.66-2.33,16.27-6.54,23.33-11.67l3.43-2.5,7.11-6.28,2.06-2.79c1.22-1.65,3.16-6.18,3.14-5.8.2-4,2.47-7.01,1.09-7.4-1.14-.32-2.37.92-5.82,1.11-.9.05-2.51.98-3.41,1.19l-4.92,1.13-3.1.73c-1.43.34-2.35.58-3.66.99l-3.49,1.1-16.43,3.85-4.46,1.14c-2.4.61-4.23.57-6.11.99l-5.97,1.34-7,1.07-9.08,1.66c-1.72.31-3.04.79-4.89.78h-16.71s-1.82.63-1.82.63l-1.95-.55c-6.31-1.8-10.85,1.07-17.51-.91-2.63-.78-8.64,1-8.64.59-.02,1.32,5.45,11.34,11.01,15.08ZM1115.27,707.1l-.5.5.5.5.5-.5-.5-.5ZM830.86,723.13l-.5.5.5.5h1l.5-.5-.5-.5h-1ZM1092.26,746.36c.71,1.42,2.46.12,1.04-1.06,1.86-1.95.75-3.56.76-4.71l.03-7.91c0-1.33,1.01-3.48-1.15-4.52-.31,1.56.47,3.7.05,4.61-.75,1.44-.48,2.45-.49,3.6l-.02,2.32c0,1.22.11,1.79.04,2.97l-.26,4.71ZM832.86,730.14l-.5.5.5.57.5-.57-.5-.5ZM778.78,737.15l-.5.5v1l.5.5.5-.5v-1l-.5-.5ZM1078.22,743.16l-.5.5.5.5.5-.5-.5-.5ZM789.21,744.78c-.16,1.58,1.22,1.62,1.59,1.39.55-.33.74-.93.5-1.52-.19-.47-1.33-1.23-2.1.12ZM1092.24,750.17l-.5.5.5.5h1l.5-.5-.5-.5h-1ZM1079.22,751.17l-.5.5.5.5h1l.5-.5-.5-.5h-1ZM814.27,758.83c-.17,1.54,1.18,1.6,1.57,1.36.54-.33.74-.93.5-1.52-.19-.47-1.34-1.18-2.07.16ZM1058.81,767.19c0-.62-.5-1.12-1.12-1.12s-1.12.5-1.12,1.12.5,1.12,1.12,1.12,1.12-.5,1.12-1.12ZM1058.41,771.68c.66-.25.5-2.26-.21-2.42-.74.52-1.34,1.14-1.45,1.43s.8,1.32,1.65.99ZM1057.63,787.75c1.3.8,2.1-.38,1.5-1.43l.09-3.11.16-7.03c.02-.8-.18-2.08-.64-2.4-.24-.17-.66-.31-1.4.21.33,1.89-.62,5.54.37,7,1.31,1.94-1.15,3.14-.07,6.76ZM823.49,780.65c-1.31-1.04-2.91-.18-2.6.31.94,1.52,1.39,1.83,2.67,1.68.18-.31.74-1.34-.06-1.99ZM915.98,788.22l-.5.5v1l.5.5.5-.5v-1l-.5-.5ZM843.87,793.23l-.5.5.5.5.5-.5-.5-.5ZM913.98,798.24l-.5.5v1l.5.59.5-.59v-1l-.5-.5ZM1030.73,798c-1.58.96-.56,2.88-.49,4.07l.24,4.2c.05.96.23,1.5.77,1.81,1.64.92,1.74-4.74-.51-10.08ZM963.99,802.93c-.96-.73-.59-2.56-.89-3.31-.4-1.01-2.66.13-2.01,1.38.39.75.57,1.66,1.63,1.6.42-.02.87.11,1.27.34ZM964.19,803.53l-.69.25c.22,2.45.78,6.49-.11,9.55-.18.61-1.86,0-.94,7.08l.91,7.02.81,6.73c.1.84.2,1.4.87,1.64.42.15.99-.14.97-.84l-.28-8.38-.81-5.3c-.44-2.9.98-5.57,4.08-7.19-.59-3.02-2.76-5.06-2.22-7.82l-1.33-2.44c-.18-.32-.86-.38-1.25-.29ZM929.81,827.51c1.48-2.54-.33-5.29.89-7.02.32-.46.05-1.74-.16-2.43-1.76-5.91,2.28-11.75-2.59-11.56.95,3.13-2.13,5.44-.02,7.72-1.04,1.79-1.27,3.28-.23,5.15-.37.78-1.07,1.86-1.2,2.81,1.4,1.47,1.66,3.27,1.23,5.24.36.24,1.87.52,2.08.1ZM1023.14,806.14l-.5.61.5.5.5-.5-.5-.61ZM920.6,811.26c0-.62-.5-1.12-1.12-1.12s-1.12.5-1.12,1.12.5,1.12,1.12,1.12,1.12-.5,1.12-1.12ZM947.08,826.2c.59.53,1.77.66,1.5.59-.53-2.91.14-4.3.11-6.38l-.15-8.21c-.02-.94-.19-1.67-1.44-1.45.1,1.38-.03,2.43-.68,3.36-1.13,1.61.25,3.52.08,4.68l-.53,3.52c-.19,1.27.65,2.67,1.11,3.89ZM1032.77,811.26c0-.62-.5-1.12-1.12-1.12s-1.12.5-1.12,1.12.5,1.12,1.12,1.12,1.12-.5,1.12-1.12ZM1030.58,813.91c-.17,1.54,1.18,1.6,1.57,1.36.54-.33.74-.93.5-1.52-.19-.47-1.34-1.18-2.07.16ZM918.22,828.94c.09-2.43-.55-4.98.39-7.39,1.07-2.75-1.68-3.29.11-5.14.36-.37.08-1.82.11-2.37-2.03.3-1.83,2.21-1.94,3.07-1.51.96-2.49,1.39-2.77,2.03-.42.95-.65,2.26.43,3.18,1.92,1.63,1.72,5.31,3.67,6.63ZM922.07,849.9c-1.26-1.29-1.67-2.78-2.55-4.64l-2.37-5-4.05-10.94c.08-.86.84-2.96.13-3.79-.76-.39-.91-1.21.2-1.58-.1-.69-.88-1-1.45-.71-1.16.59.08,6.68,1.72,12.16l1.52,5.1,1.9,3.93,2.61,4.88c.36.67.49,1.56,1.27,1.66.41.05,1.15-.71,1.07-1.09ZM887.94,825.21l-.5.56.5.5.5-.5-.5-.56ZM996.17,833.82c1.34-1.56.89-3.42.46-4.16-1.39-.35-1.89.14-1.62,1.49.62.51,1.64,1.64,1.16,2.68ZM1011.81,830.79c-.42-.44-1.47-.38-1.49.18l-.05,2.32c-.01.54.07,1.26.45,1.44.3.15.61.2.89.04.67-.38,1.01-3.14.21-3.98ZM962.82,847.71l-1.06-4.01c-.69-2.6-1.95-4.73-1.94-7.63,0-.8-.95-1.76-2.07-1.37l1.4,5.96,2.37,7.79,1.99,5.11c.25.63,1.92.2,1.56-.79-.45-1.25-1.42-1.88-2.26-5.06ZM949.35,851l-2.04-5.43-1.46-6.69c.11-1.08-.32-1.51-1.76-1.4l1.3,6.94c.19,1.03,2.32,6.46,3.97,6.57ZM964.49,838.95c-.17,1.54,1.18,1.6,1.57,1.36.54-.33.74-.93.5-1.52-.19-.47-1.34-1.18-2.07.16ZM932.82,845.4c-.49-1.42-1.67-1.38-2.22-.69.92,1.54.96,2.44,2.47,3.63.55-.65.54-1.48-.25-2.94ZM953.03,844.31l-.5.5.5.5.5-.5-.5-.5ZM976.07,845.18l-.5.63.5.5.5-.5-.5-.63Z"/>
        <path class="cls-1" d="M1092.92,449.51c-1.66.68-1.01,2.26-.58,2.53-2.82.59-4.31-2.11-6.56-.25-.44.37-1.88.06-2.37-.04l-4.03-.85c-1.59-.33-2.89-.39-4.5-.91l-4.11-1.33c-1.45-.47-2.22-.9-3.79-.44-.78-1.44-2.12-1.83-3.69-2.27-2.87-.8-5.5-2.33-8.04-3.69l-2.85-1.51c-1.74-.93-3.39-1.35-3.3-3.23,2.42.97,3.8,1.87,5.11,2.51l2.83,1.38,13.88,5.27,7.8,1.03c3.28.43,5.39.72,9.02.03l5.6-1.07c2.99-.57,7.58,2.04,6.86,3.51-1.94-.01-3.88-2.06-7.31-.66Z"/>
        <path class="cls-1" d="M1095.64,439.1c-5.48-.4-8.05,3.09-10.02,1.77-1.63-1.09-6-.76-9.89-3.96-.95.27-2.32.29-3.14-.17l-5.14-2.85-1.9-2.03-5.93-4.2c-.3-.21-.37-.76-.2-1.5,1.69-.21,2.36,1.07,4.15,1.92l5.3,2.53,4.01,2.02c2.28,1.15,5.02,1.2,7.4,1.83l4.6,1.21,4.74,1.36,7.47.23c.28.51.42,1.32.18,1.61-.34.42-1.1.27-1.62.23Z"/>
        <path class="cls-1" d="M660.55,353.48c1.13-3.37,2.58-7.13,2.97-10.52,1.66-.71,1.08-2.58,1.55-3.45l3.97-7.26,2.25-4.33,10.87-13.37,3.93-4.02c1.7-1.74,3.05-3.7,5.71-4.69-1.02,3.96-4.26,5.37-6.53,7.83l-2.82,3.06-6.71,7.75c.03.48.02,1.8-.47,2.18-2.16,1.67-2.63,4.47-3.91,6.31-2.81,4.05-5.74,10.22-7.67,15.58-.55,1.52.06,4.13-3.13,4.94Z"/>
        <path class="cls-1" d="M962.72,802.59c-1.05.06-1.24-.85-1.63-1.6-.64-1.25,1.61-2.39,2.01-1.38.3.75-.07,2.58.89,3.31.19.15.26.37.2.6.4-.09,1.08-.03,1.25.29l1.33,2.44c-.54,2.76,1.63,4.8,2.22,7.82-3.1,1.63-4.52,4.29-4.08,7.19l.81,5.3.28,8.38c.02.7-.55.99-.97.84-.67-.24-.77-.8-.87-1.64l-.81-6.73-.91-7.02c-.92-7.08.76-6.46.94-7.08.88-3.06.32-7.1.11-9.55-.03-.4-.35-.94-.79-1.19Z"/>
        <path class="cls-1" d="M660.88,491.07c.25-3.01-2.24-4.35-2.76-5.73-.75-2-1.12-3.51-2.55-4.95.74-3.47-2.24-6.75-2.8-12.26.14-2.21.22-5.18-.81-7.18-.54-1.06.46-3.18.18-5.49.3-.14,1.65-.1,1.86-.01-.25,2.39-.18,4.23.13,6.21l1.08,6.95,2.03,7.01c1.55,5.37,4.31,8.49,5.35,11.43.26.74-.87,2.29.8,4.12-.35.13-1.21.32-2.52-.11Z"/>
        <path class="cls-1" d="M929.81,827.51c-.21.43-1.72.15-2.08-.1.42-1.97.17-3.77-1.23-5.24.13-.95.83-2.03,1.2-2.81-1.04-1.87-.81-3.35.23-5.15-2.11-2.27.98-4.58.02-7.72,4.87-.2.82,5.64,2.59,11.56.2.69.48,1.97.16,2.43-1.22,1.74.59,4.48-.89,7.02Z"/>
        <path class="cls-1" d="M670.52,365.38c.07.43-2.2,3.1-2.62,7.31l-1.94-1.75c2.14-.84,1.7-2.39,1.97-3.35l1.89-6.58c.49-1.72,1.7-2.89,2.28-4.92.85-2.96,4.57-6.35,5.18-10.42.97-.2,1.72-.35,2.96.31-5.11,3.87-4.53,8.19-6.7,10.7l-.34,1.94c-.08.47-3.19,3.85-2.68,6.75Z"/>
        <path class="cls-1" d="M922.07,849.9c.08.38-.66,1.14-1.07,1.09-.79-.1-.91-.99-1.27-1.66l-2.61-4.88-1.9-3.93-1.52-5.1c-1.63-5.48-2.87-11.57-1.72-12.16.57-.29,1.35.02,1.45.71-1.12.37-.96,1.19-.2,1.58.71.82-.04,2.92-.13,3.79l4.05,10.94,2.37,5c.88,1.86,1.28,3.35,2.55,4.64Z"/>
        <path class="cls-1" d="M688.82,535.62c.24,1.09-.13,2.01-1.32,1.77-.4-3.92.88-4.65,2.6-7.05l2.99.83,11.69-1.97-1.53,1.37c-.93.83-2.95.7-4.02,1.03l-4.17,1.29c-1.92.6-4.06-.05-6.23,2.72Z"/>
        <path class="cls-1" d="M918.22,828.94c-1.95-1.32-1.75-5.01-3.67-6.63-1.08-.92-.85-2.23-.43-3.18.28-.63,1.26-1.06,2.77-2.03.11-.86-.09-2.77,1.94-3.07-.03.56.25,2-.11,2.37-1.79,1.85.97,2.39-.11,5.14-.94,2.41-.3,4.97-.39,7.39Z"/>
        <path class="cls-1" d="M962.82,847.71c.84,3.18,1.81,3.8,2.26,5.06.35.99-1.32,1.42-1.56.79l-1.99-5.11-2.37-7.79-1.4-5.96c1.12-.39,2.07.57,2.07,1.37-.01,2.9,1.25,5.03,1.94,7.63l1.06,4.01Z"/>
        <path class="cls-1" d="M773.99,223.44c-.67.44-1.13.46-1.4-.82,4.54-2.2,9.07-6.91,14.3-7.9-.75,1.55-1.67,3.18-3.15,3.92l-6.61,3.34-3.13,1.46Z"/>
        <path class="cls-1" d="M947.08,826.2c-.46-1.22-1.3-2.62-1.11-3.89l.53-3.52c.17-1.16-1.2-3.07-.08-4.68.65-.93.78-1.98.68-3.36,1.24-.21,1.42.51,1.44,1.45l.15,8.21c.04,2.08-.64,3.46-.11,6.38.27.07-.91-.06-1.5-.59Z"/>
        <path class="cls-1" d="M1092.26,746.36l.26-4.71c.06-1.18-.05-1.75-.04-2.97l.02-2.32c0-1.14-.26-2.16.49-3.6.42-.92-.36-3.06-.05-4.61,2.16,1.04,1.15,3.18,1.15,4.52l-.03,7.91c0,1.15,1.11,2.76-.76,4.71,1.43,1.19-.33,2.48-1.04,1.06Z"/>
        <path class="cls-1" d="M1057.63,787.75c-1.07-3.62,1.38-4.82.07-6.76-.99-1.47-.04-5.12-.37-7,.75-.52,1.17-.38,1.4-.21.46.33.66,1.61.64,2.4l-.16,7.03-.09,3.11c.61,1.05-.2,2.23-1.5,1.43Z"/>
        <path class="cls-1" d="M1102.29,465.91c-1.64-.46-1.64-1.04-2.14-1.5l-7.52-6.81c-.78-.33-1.68-.55-1.35-1.92.14-.58,1.4-.69,1.94-.62,1.92.27,4.11,5.79,9.18,9.77-.31,1.15.11,1.81-.11,1.07Z"/>
        <path class="cls-1" d="M699.64,558.44l-1.53-2.44c-3.71-2.13-7.65-4.44-8.11-6.61,6.4,1.1,10.07,3.05,9.64,9.05Z"/>
        <path class="cls-1" d="M680.8,382.72c3-5.94,2.03-14.15,5.78-13.35-.23,4.09-2.88,6.18-2.8,7.22.33,4.5-1.34,7.77-2.98,6.12Z"/>
        <path class="cls-1" d="M1023.06,421.58c-1.21-.63-2.83-2.13-4.54-3.69l-7.68-6.99c4.99.49,7.25,4.11,9.95,7.7.55.73,2.47,1.24,2.58,1.88.19,1.09.68,1.24.9,1.42l1.32,1.04c-.32.88-1.36.66-1.44-.29-.46-.59-.86-.94-1.09-1.06Z"/>
        <path class="cls-1" d="M949.35,851c-1.65-.12-3.77-5.55-3.97-6.57l-1.3-6.94c1.44-.11,1.87.32,1.76,1.4l1.46,6.69,2.04,5.43Z"/>
        <path class="cls-1" d="M1030.73,798c2.26,5.34,2.16,11,.51,10.08-.54-.3-.72-.85-.77-1.81l-.24-4.2c-.07-1.19-1.09-3.11.49-4.07Z"/>
        <path class="cls-1" d="M1107.16,495.16c-2.27.23-3.43,3.65-4.58,2.09-.62-.83-.54-1.81.54-1.86,2.05-1.59,4.54-1.24,6.65.07,2.05-2.06,2.76,1.95.36,1.21-.73-.62-1.29-1.68-2.97-1.51Z"/>
        <path class="cls-1" d="M673.78,386.48c-2.83,1.44.17,7.85-3.03,7.81-.91-4.22,1.75-6.03,1.49-9.18,1.31-.28,1.76.1,1.53,1.37Z"/>
        <path class="cls-1" d="M1132.47,502.62c.32,1.17-.58,1.43-1.16.66-1.04-1.14-2.29-1.54-3.95-2.2l.19-3.48c.06-1.02,1.02-.64,1.29-.38.68.66.14,1.42.24,1.74.46,1.2,2.08,2.69,3.39,3.66Z"/>
        <path class="cls-1" d="M1033.68,477.43l-6.3,1.3c-.32-.41-.33-1.67.04-1.98l6.42-.92c.24.05.41,1.07-.16,1.6Z"/>
        <path class="cls-1" d="M734.72,276.2c-1.65-.14-1.85-.94-2.73-1.65-.4-.33-.16-1.58.13-2.07l1.57-2.65c.69,1.17.54,2.08.56,3.72.19.76.8,1.71.47,2.66Z"/>
        <path class="cls-1" d="M1011.9,485.09l-5.9.3c1.42-1.61,3.19-2.27,5.66-2.51.2.3.4.86.23,2.21Z"/>
        <path class="cls-1" d="M933.81,368.73c-.79,1.23-1.8,1.19-2.63.1-.84-.45-2.39-.28-3.18-.19-.39-.17-.53-.54-.53-.73l6.77-.44c.59-1.07,1.86-1.32,2.6.06.46-.09,1.56-.15,1.72,1.02l-4.76.18Z"/>
        <path class="cls-1" d="M757.31,240.85c-2.71,2.11-3.34,5.01-5.8,6.71-.69-1.54.19-2.2.74-3.02l1.99-3.2c.55-.88,1.76-1.58,3.07-.49Z"/>
        <path class="cls-1" d="M846.27,506.32c-1.04.62-2.68.17-3.32.34-.07-1.84,1.31-3.48,1.91-3.48s2.62,2.42,1.4,3.14Z"/>
        <path class="cls-1" d="M678.06,413.65c-1.56.57-2.35-.59-1.82-1.89-.49-2.4-.31-4.13,1.74-5.22l.08,7.11Z"/>
        <path class="cls-1" d="M1199.33,431.18c-.1,1.43-1.82,1.5-2.98,3.23-.18-2.32.74-4.62,2.02-4.51.67.06,1.02.39.95,1.28Z"/>
        <path class="cls-1" d="M988,392.05c1.04.18.61,1.62-.4,1.02-1.51.12-2.31-.14-3.6-1.31-1.63-.01-1.28-1.45.18-.87,1.67.08,2.22.4,3.82,1.16Z"/>
        <path class="cls-1" d="M951.57,376.46l-4.15.17c-1.37.34-2.35-.39-1.85-1.89"/>
        <path class="cls-1" d="M1011.81,830.79c.8.84.46,3.6-.21,3.98-.27.16-.58.11-.89-.04-.37-.18-.46-.9-.45-1.44l.05-2.32c.01-.56,1.07-.62,1.49-.18Z"/>
        <path class="cls-1" d="M996.17,833.82c.49-1.04-.53-2.17-1.16-2.68-.27-1.34.23-1.83,1.62-1.49.43.74.88,2.6-.46,4.16Z"/>
        <path class="cls-1" d="M676.87,442.27c-.48.2-1.32.15-2.3-.22.38-.92.4-1.58.21-3,1.67.22,2.29,1.03,2.09,3.22Z"/>
        <path class="cls-1" d="M679.11,448.66c-.64.88-1.42.9-2.44.46.35-1.38.15-2.27.08-3.16,1.24.83,1.56,1.32,2.36,2.7Z"/>
        <path class="cls-1" d="M1124.77,680.7c.67.63,2.05.23.48-1.29.44,1.27.92,1.55,1.06,1.67.76.64.74,4.47.13,8.03-.1-.01-.46-.16-.66-.53l-.15-5.27c-1.12-.59-.58-1.49.16-1.71l-1.01-.89Z"/>
        <path class="cls-1" d="M1116.45,506.25c-1.27,1.02-2.32-.17-1.56-1.24,1.13-.17,2-.49,2.89-1.73,1.13-1.56,3.1.35,1.52,1.49-1.29.1-1.89.71-2.85,1.48Z"/>
        <path class="cls-1" d="M691.52,297.76l-2.17,1.9c-.74-2.04,2.16-4.51,3.3-4.13.58.19.76.92.52,1.46-.36.79-1.32.48-1.65.78Z"/>
        <path class="cls-1" d="M823.49,780.65c.81.64.24,1.68.06,1.99-1.28.16-1.73-.15-2.67-1.68-.3-.49,1.29-1.35,2.6-.31Z"/>
        <path class="cls-1" d="M694.2,295.34c.38-1.44,1.95-2.42,3.77-1.72-.02-1.94.59-2.09,1.99-2.45.42-.4,1.06-.98,1.71-.67.56.27.75.93.5,1.48-.34.76-1.17.58-1.56.78l-2.83,1.41c-.69.34-1.54,1.29-3.58,1.18Z"/>
        <path class="cls-1" d="M758.6,238.62c-.37.88-1.31.81-1.45-.06-.28-1.73.54-2.29,1.9-2.33.58-1.13,1.71-1.1,2.23-.32l-2.68,2.7Z"/>
        <path class="cls-1" d="M689.34,543.25c-.71.59-1.63.21-1.68-.3-.03-.35.67-.67-.14-2.1.43-.23,1.73.09,1.96.74.16.47.24,1.34-.14,1.65Z"/>
        <path class="cls-1" d="M822.79,314.64c.83.22.17,1.24-.33.51-1.15.09-2.69-1.39-1.88-2.53.36-.51,2.48.38,2.21,2.02Z"/>
        <path class="cls-1" d="M809.36,487.67c-.24.45-1.51.67-2.76.6.49-.56.46-1.22.14-1.72.89-.57,2.41-.59,2.62,1.12Z"/>
        <path class="cls-1" d="M1189.71,337.15c-.54,1.37-1.6.81-2.13.8-.75,0-1.1-1.62-.58-1.84,1.3-.54,2.94.44,2.71,1.03Z"/>
        <path class="cls-1" d="M900.54,372.05c.16,2.05-1.77,1.92-2.48,1.53-.51-.28-1.21-.86-1.63-1.75,1.4-.45,3.01-.47,4.1.22Z"/>
        <path class="cls-1" d="M799.78,349.53c-.69.4-2.35.33-2.54-.89-.17-1.03,1.1-1.53,1.56-1.07l1.28,1.27.74.71c1.05-.09,1.98.67,2.72,1.86.95.27.81,1.32-.18,1.37-1.49-.84-2.21-1.92-3.03-2.72l-.55-.54Z"/>
        <path class="cls-1" d="M863.03,340.61c.65,1.27-1.57,1.67-1.63.19-1.18-.33-1.19-1.26-1.01-1.73.21-.55,1.06-.84,1.52-.49.35.27.45,1.15,1.12,2.03Z"/>
        <path class="cls-1" d="M996.12,682.48c.29.54.22,1.04-.42,1-.65.1-1.1.11-1.62-.36-.55-.49-.47-1.04.36-1.65.52-.38,1.59-.47,1.68,1.01Z"/>
        <path class="cls-1" d="M959.24,680.03c-1.31-.48-2.43-2.08-1.39-3.88.77.28,2.52,1.31,1.39,3.88Z"/>
        <path class="cls-1" d="M1218.85,514.82c.33,1.36-2.9,1.87-3.02-.05-.07-1.14,2.55-1.9,3.02.05Z"/>
        <path class="cls-1" d="M932.82,845.4c.78,1.46.79,2.29.25,2.94-1.51-1.19-1.56-2.09-2.47-3.63.55-.69,1.73-.73,2.22.69Z"/>
        <path class="cls-1" d="M694.45,400.24c-.77.11-.14-1.75,1.56-3.51.68,1.37.27,3.25-1.56,3.51Z"/>
        <path class="cls-1" d="M694.27,407.9c-.11.99-1.28.81-1.09-.13-.33-1.08.06-1.82.48-2.1.48-.33,1.29-.05,1.51.5.19.48.15,1.34-.89,1.73Z"/>
        <path class="cls-1" d="M813.31,489.88c.18.94-.99,1.12-1.09.13-1.04-.39-1.08-1.24-.89-1.73.21-.55,1.02-.83,1.51-.5.42.28.81,1.02.48,2.1Z"/>
        <path class="cls-1" d="M879.93,305.52c-.68.21-1.09.01-1.52-.48-.53-.6.23-1.56.61-1.36.51.27.89.76,1.11,1.06.37.51.85.75,1.43.81,2.05,1.14.06,3.15-1.11,1.1.04-.65-.25-.97-.52-1.14Z"/>
        <circle class="cls-1" cx="833.36" cy="335.56" r="1.12"/>
        <path class="cls-1" d="M677.54,405.64c-.55-1.06-.81-2.24-.02-4.1.53.65,1.29,1.82.02,4.1Z"/>
        <path class="cls-1" d="M1083.66,426.35c.74-1.34,1.88-.63,2.07-.16.24.59.04,1.19-.5,1.52-.39.24-1.74.17-1.57-1.36Z"/>
        <path class="cls-1" d="M1199.16,426.77c.98.58.29,1.24-.21,1.51-.57.3-1.32.25-1.92-.99-.17-.39,1.06-1.15,2.13-.51Z"/>
        <circle class="cls-1" cx="919.48" cy="811.26" r="1.12"/>
        <circle class="cls-1" cx="1127.79" cy="493.79" r="1.12"/>
        <circle class="cls-1" cx="1031.65" cy="811.26" r="1.12"/>
        <path class="cls-1" d="M1030.58,813.91c.74-1.34,1.88-.63,2.07-.16.24.59.04,1.19-.5,1.52-.39.24-1.74.17-1.57-1.36Z"/>
        <circle class="cls-1" cx="967.56" cy="321.54" r="1.12"/>
        <path class="cls-1" d="M834.3,504.46c.74-1.34,1.88-.63,2.07-.16.24.59.04,1.19-.5,1.52-.39.24-1.74.17-1.57-1.36Z"/>
        <circle class="cls-1" cx="1189.88" cy="506.81" r="1.12"/>
        <circle class="cls-1" cx="933.51" cy="677.06" r="1.12"/>
        <path class="cls-1" d="M789.21,744.78c.76-1.35,1.91-.59,2.1-.12.23.58.05,1.19-.5,1.52-.38.23-1.76.18-1.59-1.39Z"/>
        <path class="cls-1" d="M814.27,758.83c.74-1.34,1.88-.63,2.07-.16.24.59.04,1.19-.5,1.52-.39.24-1.74.17-1.57-1.36Z"/>
        <circle class="cls-1" cx="1057.69" cy="767.19" r="1.12"/>
        <path class="cls-1" d="M964.49,838.95c.74-1.34,1.88-.63,2.07-.16.24.59.04,1.19-.5,1.52-.39.24-1.74.17-1.57-1.36Z"/>
        <path class="cls-1" d="M1058.41,771.68c-.86.33-1.76-.69-1.65-.99s.71-.91,1.45-1.43c.71.16.86,2.17.21,2.42Z"/>
        <path class="cls-1" d="M1121.87,687.25c.61,2.05-1.79,2.05-1.18,0-.27-1.38,1.46-1.38,1.18,0Z"/>
        <path class="cls-1" d="M787.26,489.65c-.9,1.49-2.03.93-2.2.12.36-1.62,2.15-1.29,2.2-.12Z"/>
        <path class="cls-1" d="M675.1,382.5c-.89,1.49-2.03.92-2.2.12.35-1.62,2.15-1.29,2.2-.12Z"/>
        <path class="cls-1" d="M918.46,331.38c-1.43.84-2.65-.38-1.81-1.81.79.19,1.62,1.02,1.81,1.81Z"/>
        <path class="cls-1" d="M721.61,432.63c-1.33.5-1.68-.88-.65-1.38,1.09-1.11,2.2.86.65,1.38Z"/>
        <path class="cls-1" d="M943.49,374.57c1.27.13.89,1.5-.21,1.2-2.26.36-1.66-2.04.21-1.2Z"/>
        <polygon class="cls-1" points="674.63 432.7 675.13 433.21 675.13 434.21 674.63 434.71 674.13 434.21 674.13 433.21 674.63 432.7"/>
        <polygon class="cls-1" points="686.65 299.51 687.15 300.01 687.15 301.01 686.65 301.51 686.14 301.01 686.14 300.01 686.65 299.51"/>
        <polygon class="cls-1" points="670.62 396.65 671.12 397.15 671.12 398.15 670.62 398.66 670.12 398.15 670.12 397.15 670.62 396.65"/>
        <polygon class="cls-1" points="977.07 195.36 978.07 195.36 978.57 195.86 978.07 196.36 977.07 196.36 976.57 195.86 977.07 195.36"/>
        <polygon class="cls-1" points="734.72 263.46 735.22 263.96 735.22 264.96 734.72 265.46 734.21 264.96 734.21 263.96 734.72 263.46"/>
        <polygon class="cls-1" points="823.85 317.54 824.85 317.54 825.35 318.04 824.85 318.54 823.85 318.54 823.34 318.04 823.85 317.54"/>
        <polygon class="cls-1" points="830.86 723.13 831.86 723.13 832.36 723.63 831.86 724.13 830.86 724.13 830.36 723.63 830.86 723.13"/>
        <polygon class="cls-1" points="778.78 737.15 779.28 737.65 779.28 738.65 778.78 739.15 778.28 738.65 778.28 737.65 778.78 737.15"/>
        <polygon class="cls-1" points="1092.24 750.17 1093.24 750.17 1093.74 750.67 1093.24 751.17 1092.24 751.17 1091.74 750.67 1092.24 750.17"/>
        <polygon class="cls-1" points="1079.22 751.17 1080.22 751.17 1080.72 751.67 1080.22 752.17 1079.22 752.17 1078.72 751.67 1079.22 751.17"/>
        <polygon class="cls-1" points="959.04 490.79 959.54 491.29 959.54 492.29 959.04 492.79 958.54 492.29 958.54 491.29 959.04 490.79"/>
        <polygon class="cls-1" points="1212.41 503.81 1213.41 503.81 1213.91 504.31 1213.41 504.81 1212.41 504.81 1211.91 504.31 1212.41 503.81"/>
        <polygon class="cls-1" points="677.63 417.68 678.13 418.18 678.13 419.19 677.63 419.69 677.13 419.19 677.13 418.18 677.63 417.68"/>
        <polygon class="cls-1" points="915.98 788.22 916.48 788.72 916.48 789.73 915.98 790.23 915.48 789.73 915.48 788.72 915.98 788.22"/>
        <polygon class="cls-1" points="913.98 798.24 914.48 798.74 914.48 799.74 913.98 800.33 913.48 799.74 913.48 798.74 913.98 798.24"/>
        <rect class="cls-1" x="888.59" y="680.21" width=".71" height=".71" transform="translate(-220.87 827.91) rotate(-45)"/>
        <rect class="cls-1" x="1114.92" y="694.23" width=".71" height=".71" transform="translate(-164.49 992.06) rotate(-45)"/>
        <rect class="cls-1" x="1122.93" y="702.24" width=".71" height=".71" transform="translate(-167.81 1000.07) rotate(-45)"/>
        <rect class="cls-1" x="1114.92" y="707.25" width=".71" height=".71" transform="translate(-173.7 995.87) rotate(-45)"/>
        <rect class="cls-1" x="677.28" y="415.83" width=".71" height=".71" transform="translate(-95.81 601.05) rotate(-45)"/>
        <polygon class="cls-1" points="1023.14 806.14 1023.64 806.75 1023.14 807.25 1022.64 806.75 1023.14 806.14"/>
        <rect class="cls-1" x="723.35" y="426.84" width=".71" height=".71" transform="translate(-90.11 636.86) rotate(-45)"/>
        <rect class="cls-1" x="1194.03" y="437.86" width=".71" height=".71" transform="translate(39.96 972.91) rotate(-45)"/>
        <rect class="cls-1" x="1077.86" y="743.3" width=".71" height=".71" transform="translate(-210.04 980.23) rotate(-45)"/>
        <rect class="cls-1" x="892.59" y="370.76" width=".71" height=".71" transform="translate(-.88 740.11) rotate(-45)"/>
        <rect class="cls-1" x="709.32" y="526.99" width=".71" height=".71" transform="translate(-165.03 656.27) rotate(-45)"/>
        <rect class="cls-1" x="822.49" y="363.75" width=".71" height=".71" transform="translate(-16.46 688.48) rotate(-45)"/>
        <rect class="cls-1" x="706.32" y="527.99" width=".71" height=".71" transform="translate(-166.62 654.44) rotate(-45)"/>
        <polygon class="cls-1" points="887.94 825.21 888.44 825.78 887.94 826.28 887.44 825.78 887.94 825.21"/>
        <rect class="cls-1" x="920.63" y="331.7" width=".71" height=".71" transform="translate(34.95 748.49) rotate(-45)"/>
        <polygon class="cls-1" points="832.86 730.14 833.36 730.64 832.86 731.21 832.36 730.64 832.86 730.14"/>
        <rect class="cls-1" x="952.68" y="493.94" width=".71" height=".71" transform="translate(-70.38 818.67) rotate(-45)"/>
        <rect class="cls-1" x="1210.06" y="474.91" width=".71" height=".71" transform="translate(18.46 995.09) rotate(-45)"/>
        <rect class="cls-1" x="914.62" y="329.7" width=".71" height=".71" transform="translate(34.61 743.66) rotate(-45)"/>
        <rect class="cls-1" x="843.52" y="793.38" width=".71" height=".71" transform="translate(-314.09 829.19) rotate(-45)"/>
        <rect class="cls-1" x="952.68" y="844.45" width=".71" height=".71" transform="translate(-318.23 921.33) rotate(-45)"/>
        <polygon class="cls-1" points="976.07 845.18 976.57 845.81 976.07 846.31 975.57 845.81 976.07 845.18"/>
        <rect class="cls-1" x="832.5" y="304.66" width=".71" height=".71" transform="translate(28.26 678.26) rotate(-45)"/>
        <path d="M1173.83,571.49l-3.3-1.35c-.58-1.32-2.01-.8-1.45.61.63,3.14,1.42,6.13.69,9.05l-1.03,4.1-1.07,5.87c-.79,4.36-2.96,7.59-5.9,11.25l-2.49,3.09c-2.1,2.61-3.15,5.82-1.39,8.95,1.51,2.7.4,6.18-2.37,7.72-2.95,1.63-6.51-.39-7.8-3.7-6.42-16.46,5.01-19.88,6.72-25.18l2.53-7.82c.7-2.15-1.28-5.34-.31-11.13l1.26-7.51,2.27-7.17c.49-1.56,1.56-3.64,2.67-5.16l3.01-4.13,3.12-3.83c1.35-1.65,6.06-4.71,8-5.29l4.65-1.4c2.33-.7,3.73-.81,5.74-.25,2.93.82,5.02,2.15,5.39,6.06.18,1.89-2.28,5.46-4.74,5.12-4.68-.66-7.68,1.09-10.93,3.8-2.49,2.07-5.77,7.12-4.38,8,1.04-.04,2.62-.11,4.02.85l5.3,3.64c1.87,1.28,2.76,2.41,3.85,4.23l2.64,4.42c.68,1.14.76,2.32,1.25,3.68l1.42,3.94c1.89,5.24,2.87,11.33-.25,15.93l-2.06,3.03c-1.5,2.21-1.85,3.65-3.91,5.29l-3.28,2.6c-1.29,1.02-1.96,2.25-4.09,3.32-1.49.75-3.72-.2-4.25-1.65-.6-1.63.11-2.95,1.34-4.69l6.15-8.73c1.34-1.9,2.14-8.24,1.22-11.64l-1.22-4.51-1.99-4.35c-.8-1.76-2.82-4.13-5.05-5.04Z"/>
        <path d="M1143.01,567.49c-2.18.4-4.98.83-6.13-.55l-9.19-10.96-4.04-4.99-2.55-3.4c-1.02-1.36-1.51-2.21-2.24-3.89l-1.24-2.85c-.85-1.96,1.46-3.66,2.67-4.07,3.19-1.08,6.98,2.87,10.61,7.01,5.5,6.28,11.51,12.27,14.37,19.93.49,1.33-1.37,3.6-2.26,3.77Z"/>
        <path d="M1079.57,632.34c2.7,3.79,7.7,8.01,3.7,12.77-1.21,1.44-2.52,1.57-4.54,1.31-2.2-.28-2.98-1.65-4.13-3.42l-8.35-12.86c-1.17-1.79-1.42-3.86-.25-5.49,1.05-1.46,3.32-3.01,5.61-1.88,1.38.68,2.3,1.15,2.87,2.43l5.08,7.13Z"/>
        <path d="M1103.15,640.95c-1.81,1.81-3.37,1.55-4.95.73-2.14-.54-3.37-2.56-4.61-4.54l-3.16-5.03-2.14-3.75c-1.18-2.06-.74-4.66,1.31-6,1.25-.81,2.57-1.71,4.06-.49,2.18.68,3,1.98,3.94,3.45l3.55,5.51c2.15,3.34,5.49,6.64,2.01,10.12Z"/>
        <path d="M900.55,781.88c.39.8.54,1.69.44,2.57-.39,3.76,1,6.29,1.24,7.79.21,1.29-2.69,3.05-3.66,2.5-2.96-1.69-3.59-4.82-4.13-7.48l-.83-4.16c-.43-2.13-.31-3.6,2.12-5.32,1.37-.97,4.02.38,4.32,2.32.09.59.2,1.18.46,1.71l.03.07Z"/>
        <path d="M1136.97,587.72c-1.72.06-2.3-1.6-2.95-2.1-2.01-1.55-3.37-4.18-5.37-6.57l-2.71-3.23c-1.09-1.29-1.73-2.27-2.16-3.99-.7-1.09-.42-2.29,1.28-3.38,1.01.12,2.46,1.06,3.2,2l8.34,10.56c.65.83.39,3.04,1.8,3.98.35.53-.81,2.7-1.43,2.72Z"/>
        <path d="M929.28,497c-.79,2.69-2.22,4.7-4.55,5.34-3.38-1.71.21-10.34,3.54-14.69l3.52-4.61,3.91-3.11c1.28-1.02,3.55-.68,4.12.96-2.36,2.32-4.25,5.21-5.98,8l-2.42,3.9-2.15,4.23Z"/>
        <path d="M861.29,503.57l.21,2.75c.06.76-1.84,1.74-2.16.79l-2.84-8.49c-.33-.98-.98-1.69-1.31-3.04l-.69-2.88c-.2-.85-.67-1.91-.46-2.42.28-.69,1.34-1.37,2.33-.78,1.63.97,1.87,2.25,1.66,3.41,1.75.82,1.23,2.37.87,2.95,1.95,1.27,1.41,2.98.97,4.01,1.25,1.23,1.3,2.31,1.4,3.71Z"/>
        <path d="M918.56,504.06c-.94.66-2.26-1.08-2.31-1.78-.06-.9.45-1.82.59-2.98l.4-3.42c.19-1.62,1.2-2.29,1.38-4.05.45-.45,1.56-1.27,1.97-2.54,1-1.98,3.56.28,1.45,1.56.05,1.63-.16,2.59-.61,3.91l-1.5,4.32c-.35.99.8,3.46-1.36,4.98Z"/>
        <path d="M866.22,497.12c-.12,2.91,2.65,10.14-.29,12.86-.49.46-1.6.55-1.92-.53l-.55-1.81c-2.46-12.89,2.87-13.28,2.75-10.52Z"/>
        <path d="M1004.58,565.27c-4.47-.57-8.18.67-10.86-.64-1.45.14-4.4.62-5.47-1.94-.88-2.12,2.88-1.56,7.94-1.58,1.07-.18.81-2.66-.7-1.18-2.62-1.03-4.41-3.89-5.8-6.4-3.27-5.89-2.63-9.11-2.81-13.56l.93-2.38c.12-.3.64-3.16,1.71-6.35-1.76.97-3.77.48-5.8,1l-5.69,1.44c-.86.22-2.39.37-3.28.69l-8.81,3.19c-2.32.84-4.41,3.39-7.38,3.6-2.35.17-5.17-1-5.8-3.25-.81-2.88,1.29-4.93,4.18-6.65l8.19-4.89,8.3-3.06,5.2-1.4,5.13-.89,6.95-1.05,10.92-.41,10.81-.57,6.17.44,12.96,1.48,5.06.94,6.09,1.69c2.55.71,5.2,1.52,7.21,3l3.38,2.48c4.71,3.46,9.59,4.81,8.73,7.29-1.07,3.05-2.77,4.23-5.32,3.91-3.21-.4-5.32-2.49-8.12-3.32l-4.49-1.33c-4.69-1.38-9.74-3.34-15.43-3.63-.46-.89-.83-.62-1.08-.51-.34.16-.73.83-.53,1.02l.97.91c1.06,1,3.12,8.89,1.65,13.36l-1.01,3.08c-1.29,3.91-3.6,7.21-7.08,9.62l-2.4,3.01-5.55,1.74c-3.08.97-5.77,1.5-9.05,1.09ZM996.6,534.22c.15.65.97.98,1.5.64.4-.25,1.04-1,.19-2.05l-1.69,1.41Z"/>
        <path d="M808.71,578.08c-3.69,0-8.45-7.09-9.13-9.7l-1.19-4.52c-.55-2.1-.56-3.69-.05-5.97l.85-3.83,1.61-2.39c1.25-1.86-.96-1.06-4.42-.33l-4.04.86c-3.27.69-6.14,1.7-9.06,3.07l-8.64,4.06-4.22,2.61c-1.98,1.22-6.24,5.77-9.04,2.39-1.12-1.35-.9-2.84.08-4.15l1.7-2.27c1.54-2.07,3-3.29,4.15-4.72.93-1.16,1.39-2.42,2.93-3.3l5.94-3.38c4.77-2.71,9.53-4.48,15.22-5.54l4.39-.82c4.81-.9,11.1-2.22,13.67-1.63.58.13,2.17-.73,3.05-.74l10.84-.12,7.01.78,7.17.78c4.66.51,8.78,1.97,13.01,4.34,1.61.91,2.17,2.37,3.03,4.41.65,1.54-1.27,2.32-1.92,3.02-1.45,1.57-2.5,1.68-4.3,1.18l-5.56-1.57-3.95-.66c.1,1.58.7,2.09,1.08,2.8,5.78,10.94-1.66,18.5-2.02,19.78-.71,2.58-4.27,4.21-5.55,5.87-1.08,1.4-1.8,2.6-3.93,3.16l-7.1,1.87h-7.01c-1.73,0-3.05,1.17-4.97.41-4.01-1.59-9.18.59-9.83-2.47-.6-2.79,3.81-1.12,7.88-2.21.5.36,2.09.9,2.29-1.03ZM807.82,552.88l-.5.5-.5,3.5,4-1,.5-.5.5-2.5h-4Z"/>
        <path d="M743.28,613.68c-6.83-3.3-10.01-9.77-10.93-15.87l-1.19-7.87c-.39-2.58-1.15-4.98-.56-7.12-1.45-1.62-.96-3.85-.95-5.37,0-.92-.66-.97-1.47-1.15-2.64-.6-4.14-2.63-6.06-4.46-2.65-2.52-2.84-6.36-3.3-9.89l-.57-4.3.58-9.83c.19-3.18,1.05-6,4.3-6.87.97,1.03,2.36.11,1.65-1.32,1.83-1.55,4.04-3.07,6.39-3.41,2.52-.36,3.78,5.3,4.86,10.82l1.14,5.8,2.28,13.08.87,6.02.68,4.2.98,8.03,1.48,19.76-.17,9.75ZM729.18,569.77c-.05-1.18-1.85-1.5-2.2.12.17.81,1.3,1.38,2.2-.12Z"/>
        <path class="cls-1" d="M996.6,534.22l1.69-1.41c.86,1.05.22,1.8-.19,2.05-.54.34-1.35.01-1.5-.64Z"/>
        <path class="cls-1" d="M729.18,569.77c-.89,1.49-2.03.92-2.2.12.35-1.62,2.15-1.29,2.2-.12Z"/>
      </g>
    </g>
  </g>
</svg>