<?xml version="1.0" encoding="UTF-8"?>
<svg id="Layer_2" data-name="Layer 2" xmlns="http://www.w3.org/2000/svg" viewBox="0 0 391.6 172.13">
  <defs>
    <style>
      .cls-1 {
        letter-spacing: 0em;
      }

      .cls-1, .cls-2, .cls-3, .cls-4 {
        font-family: SpaceGrotesk-Regular, 'Space Grotesk';
      }

      .cls-2 {
        letter-spacing: .02em;
      }

      .cls-5, .cls-6 {
        fill: #05161c;
      }

      .cls-6 {
        font-size: 27.84px;
      }

      .cls-7 {
        letter-spacing: .05em;
      }

      .cls-7, .cls-8 {
        font-family: HolidayFreeRegular, HolidayFree;
      }

      .cls-8, .cls-4 {
        letter-spacing: .02em;
      }

      .cls-3 {
        letter-spacing: 0em;
      }

      .cls-9 {
        fill: #f26419;
      }
    </style>
  </defs>
  <g id="Layer_1-2" data-name="Layer 1">
    <text class="cls-6" transform="translate(3.09 151.19)"><tspan class="cls-4" x="0" y="0">whe</tspan><tspan class="cls-3" x="57.52" y="0">r</tspan><tspan class="cls-2" x="68.07" y="0">e doe</tspan><tspan class="cls-1" x="146.11" y="0">r</tspan><tspan class="cls-2" x="156.88" y="0">s </tspan><tspan class="cls-7" x="179.82" y="0">b</tspan><tspan class="cls-8" x="193.44" y="0">elong</tspan></text>
    <g>
      <path class="cls-5" d="M278.63,94.54h-74.51c-1.62,0-2.93-1.31-2.93-2.93v-12.9c0-1.62,1.31-2.93,2.93-2.93h56.18c7.31,0,13.24-5.93,13.24-13.24h0c0-3.43-1.33-6.72-3.71-9.19l-32.46-33.67c-.55-.57-1.31-.9-2.11-.9h-31.64c-1.62,0-2.93-1.31-2.93-2.93V2.93c0-1.62,1.31-2.93,2.93-2.93h35.05c3.72,0,7.27,1.51,9.85,4.19l39.96,41.45c2.46,2.55,3.83,5.96,3.83,9.5v25.72c0,7.56-6.13,13.69-13.69,13.69Z"/>
      <path class="cls-5" d="M313.66.07h74.51c1.62,0,2.93,1.31,2.93,2.93v12.9c0,1.62-1.31,2.93-2.93,2.93h-56.18c-7.31,0-13.24,5.93-13.24,13.24h0c0,3.43,1.33,6.72,3.71,9.19l32.46,33.67c.55.57,1.31.9,2.11.9h31.64c1.62,0,2.93,1.31,2.93,2.93v12.9c0,1.62-1.31,2.93-2.93,2.93h-35.05c-3.72,0-7.27-1.51-9.85-4.19l-39.96-41.45c-2.46-2.55-3.83-5.96-3.83-9.5V13.76c0-7.56,6.13-13.69,13.69-13.69Z"/>
      <path class="cls-5" d="M55.29,32.93v40.29c0,1.62,1.31,2.93,2.93,2.93h30.6c1.62,0,2.93,1.31,2.93,2.93v12.94c0,1.6-1.31,2.93-2.93,2.93H2.93c-1.62,0-2.93-1.33-2.93-2.93v-12.94c0-1.62,1.31-2.93,2.93-2.93h30.62c1.62,0,2.93-1.31,2.93-2.93v-40.29c0-7.56-6.13-13.69-13.69-13.69H2.93c-1.62,0-2.93-1.31-2.93-2.93V3.39C0,1.77,1.31.46,2.93.46h85.89c1.62,0,2.93,1.31,2.93,2.93v12.92c0,1.62-1.31,2.93-2.93,2.93h-19.84c-7.56,0-13.69,6.13-13.69,13.69Z"/>
      <g>
        <path class="cls-5" d="M124.36,22.13v13.2c0,1.62,1.31,2.93,2.93,2.93h57.32c1.62,0,2.93,1.31,2.93,2.93v12.94c0,1.62-1.31,2.93-2.93,2.93h-65.38c-7.56,0-13.69-6.13-13.69-13.69V14.1c0-7.56,6.13-13.69,13.69-13.69h65.38c1.62,0,2.93,1.31,2.93,2.93v12.92c0,1.62-1.31,2.93-2.93,2.93h-57.32c-1.62,0-2.93,1.31-2.93,2.93Z"/>
        <path class="cls-9" d="M187.55,79.05v12.94c0,1.62-1.31,2.93-2.93,2.93h-65.38c-7.56,0-13.69-6.13-13.69-13.69v-6.94c0-1.62,1.31-2.93,2.93-2.93h12.94c1.62,0,2.93,1.31,2.93,2.93v1.82h60.26c1.62,0,2.93,1.31,2.93,2.93Z"/>
      </g>
    </g>
  </g>
</svg>