<?xml version="1.0" encoding="UTF-8"?>
<svg id="Layer_2" data-name="Layer 2" xmlns="http://www.w3.org/2000/svg" viewBox="0 0 1938.98 274.16">
  <defs>
    <style>
      .cls-1 {
        letter-spacing: -.07em;
      }

      .cls-1, .cls-2, .cls-3, .cls-4 {
        font-family: HelveticaNeue-Roman, 'Helvetica Neue';
      }

      .cls-5, .cls-6, .cls-7 {
        fill: #fff;
      }

      .cls-5, .cls-8 {
        font-size: 17.06px;
      }

      .cls-5, .cls-8, .cls-9 {
        font-family: HelveticaNeue-Light, 'Helvetica Neue';
        font-weight: 300;
      }

      .cls-10 {
        fill: #211c19;
      }

      .cls-2 {
        letter-spacing: -.13em;
      }

      .cls-3 {
        letter-spacing: -.02em;
      }

      .cls-11, .cls-7 {
        font-size: 49.19px;
      }

      .cls-4, .cls-9 {
        letter-spacing: -.02em;
      }

      .cls-12 {
        fill: none;
        stroke: #020202;
        stroke-miterlimit: 10;
      }

      .cls-13 {
        fill: #d00;
      }

      .cls-14 {
        fill: #0f0f0f;
      }
    </style>
  </defs>
  <g id="Layer_1-2" data-name="Layer 1">
    <rect class="cls-6" width="1938.98" height="274.16"/>
    <rect class="cls-14" x="969.49" width="969.49" height="274.16"/>
    <g>
      <text class="cls-8" transform="translate(110.28 214.14) scale(1.07 1)"><tspan x="0" y="0">Nurturing AI Revolution for Inclusion</tspan></text>
      <text class="cls-11" transform="translate(446.54 177.42) scale(1.07 1)"><tspan class="cls-1" x="0" y="0">W</tspan><tspan class="cls-4" x="41.96" y="0">omen </tspan><tspan class="cls-9" x="175.65" y="0">in</tspan><tspan class="cls-4" x="209.59" y="0"> </tspan><tspan class="cls-2" x="222.48" y="0">T</tspan><tspan class="cls-3" x="244.46" y="0">ech</tspan></text>
      <g>
        <path class="cls-10" d="M170.75,158.81l6.91-9.01c10.16-17.21,10.45-35.09-8.27-45.88-12.94-7.46-24.01-5.19-33.75,5.82-3.32,3.76-9.77,14.63-9.77,19.49v54.3l-15.31-5.18-.29-85.87,15.6-2.61v14.31c5.27-2.55,10.22-5.81,15.63-8.11,19.12-8.1,47.48-8.93,58.64,12.21,2.07,3.91.17,3.8-.13,7.28-.98,11.38,4.41,14.83,9.71,23.42-.58,4.11-5.25,4.15-7.76,6.52-.29,1.23,3.32,2.92,3.12,5.09-.17,1.78-2.78,3.03-3.06,4.14-.32,1.29,1.11,2.04,1.25,3.15.45,3.64-4.51,4.21-5.1,5.92-1.15,3.36,3.45,12.72-3.61,12.53-4.42-.12-7.19-4.37-12.28-3.05-4.18,1.09-7.71,9.88-10.52,9.61s-11.23-7.81-14.7-8.82l5.88-7.83"/>
        <g>
          <path d="M235.58,115.46v9.66c7.56-2.27,16.64-3.1,24.19-1.24,12.81,2.85,23.09,13.22,23.09,29.47v30.18l-15.68-2.96v-3.38c-16.7,9.9-44.64,7.27-44.19-14.14.73-34.55,43.44-5.01,44.19-17.21v-.77c-.02-.34-.07-.66-.13-.97-2.25-10.91-29.13-9.19-39.3-1.12v-27.5h-17.34v-7.34h85.19v7.34h-60.01ZM267.18,157.14c-12.73,4.2-36.34-9.5-36.34,3.81,0,9.69,22.6,12.14,36.34,7.04v-10.85Z"/>
          <path d="M284.19,115.46v-7.34h78.43v7.34h-78.43ZM345.6,129.3c8.86,8.66,9.88,31.27-10.81,36.11l-6.46-14.69c16.57-6.23,15.68-15.58,12.23-18.24-5.99-4.61-28.08,1.28-27.96,28.36v22.68l-15.68-2.96v-58.11h15.68v5.64c3.63-3.48,8.65-5.64,15.27-5.64,7.33,0,12.66,1.9,17.73,6.85Z"/>
          <path d="M348.51,115.46v-7.34h41.14v7.34h-41.14ZM361.24,122.45h15.68v58.11l-15.68,2.96v-61.07Z"/>
        </g>
      </g>
      <line class="cls-12" x1="424.12" y1="108.12" x2="424.12" y2="214.14"/>
      <path class="cls-13" d="M348.4,79.7h0c11.42,0,20.68-9.26,20.68-20.68h0c0,11.42,9.26,20.68,20.68,20.68h0c-11.42,0-20.68,9.26-20.68,20.68h0c0-11.42-9.26-20.68-20.68-20.68Z"/>
    </g>
    <g>
      <text class="cls-5" transform="translate(1114.47 214.26) scale(1.07 1)"><tspan x="0" y="0">Nurturing AI Revolution for Inclusion</tspan></text>
      <text class="cls-7" transform="translate(1450.73 177.54) scale(1.07 1)"><tspan class="cls-1" x="0" y="0">W</tspan><tspan class="cls-4" x="41.96" y="0">omen </tspan><tspan class="cls-9" x="175.65" y="0">in</tspan><tspan class="cls-4" x="209.59" y="0"> </tspan><tspan class="cls-2" x="222.48" y="0">T</tspan><tspan class="cls-3" x="244.46" y="0">ech</tspan></text>
      <g>
        <path class="cls-6" d="M1174.94,158.93l6.91-9.01c10.16-17.21,10.45-35.09-8.27-45.88-12.94-7.46-24.01-5.19-33.75,5.82-3.32,3.76-9.77,14.63-9.77,19.49v54.3l-15.31-5.18-.29-85.87,15.6-2.61v14.31c5.27-2.55,10.22-5.81,15.63-8.11,19.12-8.1,47.48-8.93,58.64,12.21,2.07,3.91.17,3.8-.13,7.28-.98,11.38,4.41,14.83,9.71,23.42-.58,4.11-5.25,4.15-7.76,6.52-.29,1.23,3.32,2.92,3.12,5.09-.17,1.78-2.78,3.03-3.06,4.14-.32,1.29,1.11,2.04,1.25,3.15.45,3.64-4.51,4.21-5.1,5.92-1.15,3.36,3.45,12.72-3.61,12.53-4.42-.12-7.19-4.37-12.28-3.05-4.18,1.09-7.71,9.88-10.52,9.61s-11.23-7.81-14.7-8.82l5.88-7.83"/>
        <g>
          <path class="cls-6" d="M1239.77,115.58v9.66c7.56-2.27,16.64-3.1,24.19-1.24,12.81,2.85,23.09,13.22,23.09,29.47v30.18l-15.68-2.96v-3.38c-16.7,9.9-44.64,7.27-44.19-14.14.73-34.55,43.44-5.01,44.19-17.21v-.77c-.02-.34-.07-.66-.13-.97-2.25-10.91-29.13-9.19-39.3-1.12v-27.5h-17.34v-7.34h85.19v7.34h-60.01ZM1271.37,157.26c-12.73,4.2-36.34-9.5-36.34,3.81,0,9.69,22.6,12.14,36.34,7.04v-10.85Z"/>
          <path class="cls-6" d="M1288.38,115.58v-7.34h78.43v7.34h-78.43ZM1349.79,129.42c8.86,8.66,9.88,31.27-10.81,36.11l-6.46-14.69c16.57-6.23,15.68-15.58,12.23-18.24-5.99-4.61-28.08,1.28-27.96,28.36v22.68l-15.68-2.96v-58.11h15.68v5.64c3.63-3.48,8.65-5.64,15.27-5.64,7.33,0,12.66,1.9,17.73,6.85Z"/>
          <path class="cls-6" d="M1352.7,115.58v-7.34h41.14v7.34h-41.14ZM1365.43,122.57h15.68v58.11l-15.68,2.96v-61.07Z"/>
        </g>
      </g>
      <path class="cls-13" d="M1352.59,79.83h0c11.42,0,20.68-9.26,20.68-20.68h0c0,11.42,9.26,20.68,20.68,20.68h0c-11.42,0-20.68,9.26-20.68,20.68h0c0-11.42-9.26-20.68-20.68-20.68Z"/>
    </g>
  </g>
</svg>