<?xml version="1.0" encoding="UTF-8"?>
<svg id="Layer_2" data-name="Layer 2" xmlns="http://www.w3.org/2000/svg" viewBox="0 0 528.48 81.15">
  <defs>
    <style>
      .cls-1 {
        fill: #02160b;
      }
    </style>
  </defs>
  <g id="Layer_1-2" data-name="Layer 1">
    <g>
      <g>
        <path class="cls-1" d="M307.68,40.98c0,33.58-20.1,38.99-38.99,38.99h-24.74V2.1h24.74c18.89,0,38.99,5.41,38.99,38.88ZM298.62,40.98c0-28.72-16.13-31.15-29.93-31.15h-15.69v62.41h15.69c13.81,0,29.93-2.43,29.93-31.26Z"/>
        <path class="cls-1" d="M320.49,2.1h20.66c19,0,29.93,3.76,29.93,19.11,0,11.27-7.51,15.91-15.57,16.46v2.65c11.93.22,21.32,5.08,21.32,19,0,15.69-11.82,20.66-30.71,20.66h-25.63V2.1ZM341.48,35.56c12.7,0,20.54-1.88,20.54-12.92,0-12.04-7.84-12.81-20.54-12.81h-11.93v25.74h11.93ZM346.45,72.24c13.25,0,21.32-2.21,21.32-14.47,0-11.38-8.06-14.47-21.32-14.47h-16.9v28.94h16.9Z"/>
        <path class="cls-1" d="M421.45.99c22.75,0,36.23,17.34,36.23,39.99s-13.48,40.1-36.23,40.1-36.45-17.34-36.45-40.1S398.48.99,421.45.99ZM421.45,73.34c18.34,0,27.17-13.7,27.17-32.36s-8.84-32.25-27.17-32.25-27.39,13.7-27.39,32.25,8.95,32.36,27.39,32.36Z"/>
        <path class="cls-1" d="M487.06,42.63v-3.31l-27.06-37.22h10.38l23.86,33.47,23.97-33.47h10.27l-27.06,37.22v3.31l27.06,37.33h-10.27l-23.97-33.58-23.86,33.58h-10.38l27.06-37.33Z"/>
      </g>
      <g>
        <path class="cls-1" d="M35.24,81.07C8.06,81.07,0,69.03,0,50.81h9.06c0,18.45,9.83,22.53,26.18,22.53,13.25,0,20.88-3.2,20.88-12.59,0-11.82-13.7-14.25-26.07-17.89C14.69,38.21,3.53,34.02,3.53,20.21,3.53,8.28,11.93.99,31.15.99c22.98,0,30.82,14.03,30.82,26.73h-9.06c0-13.26-9.83-19-21.76-19-10.71,0-18.56,2.65-18.56,11.27s6.85,11.16,19.66,15.13c15.24,4.75,32.92,8.95,32.92,25.18,0,11.6-6.96,20.77-29.93,20.77Z"/>
        <path class="cls-1" d="M122.28,49.48h-31.26l-9.72,30.49h-9.06L97.42,2.1h18.56l25.07,77.87h-8.95l-9.83-30.49ZM119.85,41.75l-11.93-37.11h-2.54l-11.82,37.11h26.29Z"/>
      </g>
      <g>
        <polygon class="cls-1" points="190.98 23.25 227.47 0 227.47 46.51 190.98 23.25"/>
        <g>
          <polygon class="cls-1" points="191.8 57.9 155.31 34.64 155.31 81.15 191.8 57.9"/>
          <polygon class="cls-1" points="227.47 52.37 227.47 74.69 191.59 51.81 190.98 51.43 174.34 40.84 155.31 28.74 155.31 6.46 165.38 12.89 165.39 12.88 208.47 40.28 227.47 52.37"/>
        </g>
      </g>
    </g>
  </g>
</svg>